{"glyphs":{"0":{"ha":278,"x_min":0,"x_max":0,"o":"m 496 1056 b 919 746 692 1053 856 925 b 775 68 993 539 933 204 b 219 69 636 -50 389 -72 b 28 642 50 211 -3 425 b 496 1056 60 860 256 1060 m 336 278 b 632 265 424 207 546 196 b 718 614 726 342 738 507 b 514 824 696 728 603 817 b 278 682 446 831 322 792 b 336 278 193 474 276 326 "},"1":{"ha":278,"x_min":0,"x_max":0,"o":"m 318 733 b 201 806 256 735 215 760 b 282 965 186 853 189 901 b 550 1063 374 1028 454 1085 b 650 854 644 1040 650 938 b 635 89 650 772 640 154 b 515 -12 631 24 560 -15 b 404 94 476 -10 413 21 b 411 760 397 158 411 760 b 318 733 428 758 339 733 "},"2":{"ha":278,"x_min":0,"x_max":0,"o":"m 324 774 b 183 726 297 729 240 704 b 142 907 125 747 92 819 b 553 1053 196 1004 358 1101 b 814 665 746 1004 833 807 b 654 336 793 506 739 429 b 525 215 592 269 525 215 b 758 210 528 208 685 210 b 872 101 844 199 872 161 b 735 -3 879 29 831 -3 b 247 -3 638 -3 301 -3 b 132 96 215 -8 135 36 b 276 294 129 157 167 193 b 582 649 386 397 550 539 b 510 825 608 736 579 800 b 388 829 456 844 415 842 b 324 774 353 814 336 796 "},"3":{"ha":278,"x_min":0,"x_max":0,"o":"m 676 539 b 808 290 676 539 807 429 b 569 -12 810 143 717 10 b 496 -18 544 -15 519 -18 b 207 94 356 -18 261 40 b 157 285 136 167 129 242 b 333 300 193 339 282 349 b 465 217 372 260 417 222 b 486 217 472 217 479 217 b 585 275 528 217 579 232 b 506 404 596 343 533 392 l 485 414 b 372 500 436 435 390 454 b 433 633 351 554 388 608 b 551 717 472 654 536 686 b 532 826 568 750 578 788 b 475 844 519 838 500 844 b 376 824 439 844 390 831 b 226 833 319 794 267 799 b 197 906 207 850 196 878 b 257 1006 199 943 219 978 b 483 1064 308 1042 403 1064 b 685 1008 538 1064 617 1054 b 794 731 782 943 808 853 b 676 539 783 633 676 539 "},"4":{"ha":278,"x_min":0,"x_max":0,"o":"m 489 1001 b 626 1049 533 1051 583 1054 b 738 942 669 1044 738 1008 b 735 489 736 803 735 511 b 847 483 735 489 810 486 b 928 379 885 482 928 433 b 829 263 928 324 897 263 b 729 261 761 263 729 261 b 725 71 742 250 728 122 b 629 -18 722 18 672 -18 b 517 65 586 -18 524 13 b 514 263 508 118 514 263 b 204 267 531 256 281 264 b 67 350 129 269 92 304 b 97 515 42 396 57 463 b 489 1001 139 569 436 943 m 511 500 l 517 711 l 344 499 "},"5":{"ha":278,"x_min":0,"x_max":0,"o":"m 271 1029 b 664 1035 392 1032 611 1035 b 792 917 733 1035 794 994 b 658 804 790 853 744 804 b 396 801 571 804 396 801 l 397 649 b 706 594 397 649 599 672 b 826 233 817 515 854 385 b 482 -22 799 92 668 -28 b 179 115 300 -17 214 51 b 219 261 146 175 176 239 b 385 225 271 289 329 264 b 603 246 446 182 561 190 b 550 436 649 307 628 397 b 349 443 485 468 394 453 b 190 535 264 426 190 467 b 190 944 190 588 190 818 b 271 1029 192 994 224 1029 "},"6":{"ha":278,"x_min":0,"x_max":0,"o":"m 625 611 b 817 213 760 576 868 417 b 504 -10 779 60 628 -10 b 381 14 460 -10 419 -1 b 136 568 196 89 118 265 b 439 1036 156 857 304 999 b 524 1047 465 1043 494 1047 b 726 976 600 1047 674 1021 b 747 849 776 935 769 882 b 671 810 739 833 715 810 b 617 819 654 810 636 813 b 535 832 590 828 563 832 b 426 793 486 832 447 818 b 354 585 376 732 354 669 b 511 626 379 601 431 626 b 625 611 547 626 585 621 m 632 328 b 536 442 629 379 589 426 b 506 446 526 444 517 446 b 389 376 461 446 406 424 b 393 261 376 343 372 292 b 503 206 419 225 456 206 b 538 210 514 206 525 207 b 632 328 599 219 633 279 "},"7":{"ha":278,"x_min":0,"x_max":0,"o":"m 643 822 b 386 138 643 822 403 204 b 456 6 369 71 401 18 b 586 65 522 -11 546 11 b 879 861 619 110 863 788 b 761 1026 903 965 828 1024 b 276 1039 693 1029 389 1036 b 111 892 164 1040 114 969 b 114 649 110 840 108 694 b 210 575 118 603 164 575 b 313 642 254 575 308 601 b 318 825 318 682 318 825 "},"8":{"ha":278,"x_min":0,"x_max":0,"o":"m 279 563 b 190 753 279 563 192 638 b 333 1029 188 868 229 974 b 724 979 438 1085 626 1076 b 793 674 821 883 811 733 b 708 556 775 614 708 556 b 831 347 728 547 807 467 b 669 19 858 206 792 69 b 275 53 561 -24 393 -39 b 150 357 160 143 136 239 b 279 563 165 483 279 563 m 583 724 b 603 825 610 747 615 792 b 492 885 596 844 568 888 b 394 790 415 881 396 817 b 469 697 392 764 413 707 b 583 724 513 689 551 694 m 582 408 b 444 428 550 439 488 443 b 368 294 417 418 360 383 b 499 182 375 204 463 183 b 624 275 535 181 613 207 b 582 408 633 326 622 372 "},"9":{"ha":278,"x_min":0,"x_max":0,"o":"m 683 1011 b 826 700 776 944 821 831 b 772 464 829 608 797 525 b 758 425 767 450 763 438 b 594 47 738 368 624 94 b 507 -15 571 7 549 -15 b 468 -8 494 -15 482 -12 b 414 39 444 -1 425 14 b 408 138 399 69 396 108 b 517 381 424 179 496 332 b 508 381 514 381 511 381 b 290 432 453 381 350 388 b 150 729 200 500 149 611 b 317 1018 153 850 222 971 b 508 1057 368 1042 440 1057 b 683 1011 558 1057 629 1049 m 574 625 b 614 757 597 639 625 699 b 485 857 599 831 528 857 l 479 857 b 363 753 432 856 372 813 b 435 610 351 694 383 632 b 479 601 447 604 461 601 b 574 625 515 601 556 613 "},"\u0000":{"ha":0,"x_min":0,"x_max":0,"o":""},"!":{"ha":-281,"x_min":0,"x_max":0,"o":"m 306 1008 b 342 876 332 978 344 929 b 292 346 335 800 300 390 b 208 269 283 299 253 272 l 204 269 b 122 347 164 269 133 299 b 76 885 113 386 79 821 b 111 1001 74 932 85 972 b 218 1047 136 1031 175 1047 b 306 1008 253 1047 283 1033 m 224 233 b 318 174 268 224 300 203 b 329 72 333 146 338 111 b 208 -32 317 11 267 -32 b 76 99 128 -32 76 36 b 194 236 76 156 114 236 b 224 233 204 236 214 235 "},"\"":{"ha":-69,"x_min":0,"x_max":0,"o":"m 176 868 b 64 938 176 868 81 872 b 164 1083 46 1003 90 1081 b 285 972 228 1086 281 1028 b 240 806 289 915 269 844 b 163 764 211 768 179 756 b 150 817 144 774 133 790 b 176 868 176 822 172 838 m 463 868 b 350 938 463 868 367 872 b 449 1083 332 1003 375 1081 b 569 972 514 1086 565 1028 b 525 806 575 915 554 844 b 447 764 496 768 465 756 b 436 817 431 772 418 790 b 463 868 453 842 457 838 "},"#":{"ha":399,"x_min":0,"x_max":0,"o":"m 926 664 b 901 664 921 664 913 664 b 863 415 889 586 875 499 b 918 413 889 414 908 414 b 1024 294 988 408 1025 356 b 886 190 1022 242 981 190 b 825 190 874 190 851 190 b 800 67 814 128 806 82 b 694 -17 781 -3 744 -17 b 601 103 644 -17 594 18 b 614 192 603 117 608 149 b 399 194 543 193 468 193 b 378 90 390 142 382 104 b 267 -14 358 26 322 -14 b 172 124 213 -14 163 35 b 183 197 174 138 178 164 b 165 199 175 199 169 199 b 38 311 76 206 42 254 b 186 421 38 367 97 421 b 219 421 194 421 206 421 b 263 669 233 503 249 590 b 218 671 242 671 226 671 b 85 779 124 678 89 719 b 224 901 79 839 139 901 b 306 901 238 901 267 901 b 311 926 307 913 310 921 b 443 1076 331 1017 353 1086 b 522 917 518 1068 538 986 b 519 900 522 913 521 907 b 731 897 590 899 664 899 b 739 943 735 919 738 936 b 864 1058 754 1044 814 1068 b 944 933 914 1049 954 999 b 938 892 943 926 940 911 b 944 890 940 890 942 890 b 1050 769 1018 882 1056 814 b 926 664 1046 724 1000 664 m 651 418 b 692 665 664 499 679 586 b 479 667 624 665 549 667 b 439 419 467 589 453 501 b 651 418 507 419 582 418 "},"$":{"ha":40,"x_min":0,"x_max":0,"o":"m 468 554 b 696 253 588 492 719 389 b 450 33 674 129 589 54 b 444 8 449 22 446 13 b 368 -35 429 -24 394 -35 b 335 -28 356 -35 344 -33 b 286 35 310 -17 293 6 b 85 129 183 50 131 93 l 76 135 b 33 218 49 157 32 188 b 75 290 33 236 40 265 b 131 310 93 303 111 310 b 219 278 158 310 190 294 b 283 247 231 272 254 260 b 286 439 285 315 285 379 b 57 629 167 496 96 546 b 118 913 13 724 39 843 b 292 992 172 960 235 982 b 313 1043 292 1011 299 1028 b 386 1078 331 1064 361 1078 b 443 1051 407 1078 426 1068 b 471 988 460 1033 469 1011 b 529 972 492 985 511 979 b 686 804 644 932 686 858 b 567 735 686 739 614 715 b 519 767 547 743 533 754 b 469 800 506 778 492 790 b 469 724 469 775 469 750 b 468 554 469 668 468 610 m 235 733 b 289 646 226 707 246 676 b 290 800 289 704 290 757 b 235 733 265 789 244 768 m 501 256 b 508 307 511 275 514 292 b 467 353 503 324 486 339 b 465 314 465 335 465 321 b 464 222 465 313 465 272 b 501 256 481 229 493 239 "},"%":{"ha":363,"x_min":0,"x_max":0,"o":"m 926 982 b 913 836 972 926 939 876 l 911 833 b 601 457 893 807 732 613 b 450 275 532 374 472 301 l 432 251 b 251 42 372 178 299 88 b 186 15 233 24 211 15 b 115 40 157 15 131 28 b 135 183 85 67 93 126 b 328 424 158 215 244 322 b 506 644 400 513 474 603 b 689 864 550 703 631 796 b 757 946 718 899 743 928 b 868 1013 792 988 832 1013 b 926 982 890 1013 911 1001 m 444 939 b 463 683 492 871 500 764 b 272 565 438 626 367 565 b 257 567 268 565 263 565 b 40 724 139 574 64 629 b 164 1010 17 817 51 949 b 257 1033 193 1025 224 1033 b 444 939 336 1033 411 986 m 319 772 b 304 850 329 800 322 835 b 271 860 296 857 283 860 b 200 818 239 860 204 840 b 215 753 196 800 200 772 b 258 733 226 740 242 733 b 319 772 300 733 315 758 m 1006 308 b 926 60 1042 213 979 103 b 789 14 892 31 839 14 b 699 33 756 14 725 21 b 568 246 626 69 568 165 b 739 463 568 353 631 431 b 796 471 758 468 778 471 b 1006 308 888 471 969 407 m 786 303 b 731 236 746 303 731 256 b 788 179 731 217 754 179 b 792 179 789 179 790 179 b 850 250 838 183 851 221 b 786 303 849 272 825 303 "},"&":{"ha":229,"x_min":0,"x_max":0,"o":"m 876 143 b 835 40 893 100 865 61 b 729 42 810 22 764 24 b 681 78 713 50 693 65 b 438 -33 643 43 553 -29 b 421 -33 432 -33 426 -33 b 68 143 293 -33 128 22 b 75 426 25 235 28 335 b 188 554 103 481 157 529 b 107 669 165 578 129 622 b 107 910 69 753 69 829 b 388 1076 153 1008 265 1076 b 486 1060 422 1076 456 1071 b 679 765 635 1007 683 872 b 554 563 676 675 613 597 b 497 526 535 553 513 538 b 660 371 563 463 631 397 b 736 404 678 385 706 404 l 739 404 b 846 314 790 401 839 360 b 819 215 851 279 839 240 b 876 143 839 197 867 169 m 363 676 b 457 811 435 715 469 764 b 372 875 449 849 413 875 b 349 872 364 875 356 875 b 301 832 333 868 313 854 b 297 771 292 814 290 793 b 363 676 311 726 344 692 m 319 415 b 243 292 293 396 239 347 b 383 164 249 221 300 174 b 521 225 447 156 499 201 l 319 415 "},"'":{"ha":-281,"x_min":0,"x_max":0,"o":"m 210 868 b 97 938 210 868 115 872 b 197 1083 81 1003 124 1081 b 318 972 261 1086 314 1028 b 274 806 322 915 303 844 b 196 764 244 768 213 756 b 183 817 178 772 167 790 b 210 868 201 842 206 838 "},"(":{"ha":-139,"x_min":0,"x_max":0,"o":"m 408 940 b 263 522 368 896 267 746 b 442 88 260 300 394 157 b 456 -51 488 18 482 -28 b 311 -49 429 -75 375 -97 b 68 499 247 1 76 175 b 272 1064 60 803 206 1000 b 442 1088 339 1128 400 1129 b 408 940 472 1056 461 1000 "},")":{"ha":-139,"x_min":0,"x_max":0,"o":"m 125 940 b 92 1088 72 1000 61 1056 b 261 1064 133 1129 194 1128 b 465 499 328 1000 472 803 b 222 -49 457 175 286 1 b 78 -51 158 -97 104 -75 b 92 88 51 -28 46 18 b 271 522 139 157 274 300 b 125 940 267 746 165 896 "},"*":{"ha":11,"x_min":0,"x_max":0,"o":"m 606 606 b 631 503 660 561 644 522 b 569 472 617 483 594 472 b 514 490 550 472 531 479 b 422 560 503 497 468 525 b 421 499 422 540 421 519 l 421 485 b 353 389 419 424 410 394 b 346 389 350 389 349 389 b 271 478 304 389 275 425 b 269 554 271 489 271 517 b 190 496 231 525 201 503 b 129 472 168 481 149 472 b 83 496 111 472 96 481 b 106 615 56 532 65 581 b 226 708 117 625 165 663 b 108 800 165 756 117 793 b 67 906 75 828 44 863 b 132 946 79 931 103 946 b 186 929 150 946 168 940 b 271 865 196 922 229 899 b 271 946 271 904 271 933 b 296 1022 268 976 278 1003 b 356 1049 313 1039 333 1049 b 425 949 415 1047 424 997 b 426 861 426 935 426 906 b 496 914 453 881 476 899 l 500 917 b 578 951 524 935 550 951 b 629 925 596 951 614 943 b 644 881 640 911 646 896 b 583 794 642 849 613 819 b 474 708 571 785 526 750 b 606 606 540 657 594 614 "},"+":{"ha":282,"x_min":0,"x_max":0,"o":"m 803 628 b 932 544 868 628 928 618 b 915 492 933 524 928 506 b 794 454 889 463 839 457 b 581 453 767 453 649 453 b 576 168 579 313 578 189 b 492 71 572 88 528 71 b 397 181 439 71 397 118 b 397 282 397 192 397 229 b 396 453 396 329 396 389 b 146 456 276 453 168 454 b 44 532 57 460 44 504 b 150 629 44 588 86 625 b 292 631 164 631 224 631 b 394 631 322 631 357 631 b 396 897 394 764 394 881 b 472 1015 400 951 414 1008 b 581 911 532 1024 576 979 b 582 631 582 886 582 767 b 714 629 632 629 678 629 b 803 628 760 629 793 628 "},",":{"ha":-282,"x_min":0,"x_max":0,"o":"m 213 -6 b 103 61 213 -6 119 -1 b 200 201 86 124 128 199 b 317 94 263 204 313 149 b 274 -65 321 40 301 -29 b 199 -106 246 -101 215 -114 b 188 -56 182 -97 169 -81 b 213 -6 219 -40 208 -35 "},"-":{"ha":-12,"x_min":0,"x_max":0,"o":"m 196 279 b 65 351 124 279 81 293 b 185 463 64 406 113 460 b 486 463 279 457 425 463 b 614 386 549 463 610 431 b 519 281 618 343 596 283 b 196 279 458 264 251 279 "},".":{"ha":-304,"x_min":0,"x_max":0,"o":"m 203 -36 b 82 72 131 -29 86 19 b 207 196 76 125 121 201 b 314 71 294 192 314 119 b 203 -36 314 22 261 -40 "},"/":{"ha":25,"x_min":0,"x_max":0,"o":"m 472 988 b 619 1074 499 1047 547 1113 b 646 921 692 1035 672 968 b 374 356 621 872 418 447 b 201 43 329 263 239 92 b 79 11 165 -7 111 -4 b 65 158 47 28 31 79 b 288 622 99 238 244 519 b 472 988 331 726 447 932 "},":":{"ha":-264,"x_min":0,"x_max":0,"o":"m 217 681 b 96 797 138 686 100 746 b 235 913 90 847 160 926 b 338 792 308 899 338 847 b 217 681 346 725 281 676 m 211 169 b 101 286 146 178 101 231 b 239 393 117 326 174 403 b 332 282 304 383 332 328 b 211 169 332 235 286 161 "},";":{"ha":-264,"x_min":0,"x_max":0,"o":"m 222 676 b 101 785 150 683 106 732 b 226 908 97 838 140 914 b 333 783 314 904 333 831 b 222 676 333 735 281 672 m 214 185 b 106 251 214 185 122 189 b 201 392 89 314 131 389 b 318 285 264 394 314 339 b 275 125 322 231 303 161 b 200 83 247 88 217 75 b 189 133 183 92 172 108 b 214 185 218 144 210 154 "},"<":{"ha":208,"x_min":0,"x_max":0,"o":"m 726 803 b 281 531 674 772 325 557 b 771 269 326 506 699 307 b 849 156 849 228 849 196 l 849 154 b 767 74 849 111 804 74 b 617 129 732 74 697 82 b 532 176 600 139 569 156 b 101 432 388 260 144 397 b 50 543 63 463 36 489 b 146 657 60 589 106 625 l 151 661 b 592 943 217 714 499 886 l 617 958 b 763 1010 669 990 724 1010 b 792 1004 774 1010 783 1008 b 854 911 836 989 861 943 b 736 808 846 871 790 840 "},"=":{"ha":210,"x_min":0,"x_max":0,"o":"m 182 643 b 57 719 100 649 64 671 b 165 831 49 785 100 826 b 744 831 251 826 683 835 b 847 744 822 801 847 801 b 732 647 856 679 794 647 b 182 643 675 633 231 639 m 714 433 b 851 347 790 433 847 419 b 701 256 856 274 779 260 b 154 257 625 251 218 254 b 47 333 86 260 47 285 b 160 435 47 393 94 431 b 714 433 224 439 663 433 "},">":{"ha":208,"x_min":0,"x_max":0,"o":"m 850 543 b 799 432 863 489 836 463 b 367 176 756 397 513 260 b 283 129 329 156 300 139 b 132 74 201 82 168 74 b 50 154 96 74 50 111 l 50 156 b 129 269 50 196 50 228 b 618 531 201 307 572 506 b 174 803 575 557 226 772 l 163 808 b 44 911 108 840 53 871 b 107 1004 39 943 63 989 b 138 1010 115 1008 126 1010 b 282 958 176 1010 231 990 l 307 943 b 747 661 400 886 682 714 l 753 657 b 850 543 793 625 839 589 "},"?":{"ha":57,"x_min":0,"x_max":0,"o":"m 396 233 b 490 174 440 224 472 203 b 503 72 507 146 511 111 b 381 -32 490 11 440 -32 b 250 99 300 -32 250 36 b 367 236 250 156 286 236 b 396 233 376 236 386 235 m 642 949 b 644 572 740 811 708 664 b 565 472 618 535 590 501 b 504 385 536 436 510 406 b 389 275 494 351 463 275 b 319 303 360 275 336 285 b 293 382 300 322 292 351 b 429 614 300 471 342 542 b 467 806 482 658 511 743 b 372 843 442 840 388 843 b 338 839 356 843 343 840 b 260 749 294 821 267 765 b 136 660 240 704 207 651 b 68 697 107 663 85 675 b 49 788 50 721 43 754 b 219 1022 63 867 96 964 b 390 1058 269 1046 331 1058 b 642 949 500 1058 590 1018 "},"@":{"ha":425,"x_min":0,"x_max":0,"o":"m 931 933 b 1064 522 1082 796 1079 617 b 867 317 1047 413 969 332 b 818 313 850 314 835 313 b 721 332 767 313 732 326 b 590 307 690 315 643 307 b 482 321 553 307 514 311 b 328 524 407 342 325 414 b 554 758 331 676 447 753 b 793 628 656 764 763 706 b 810 507 817 571 813 526 b 875 543 842 503 863 515 b 825 767 876 547 924 667 b 578 863 764 828 674 863 b 497 853 549 863 522 860 b 257 624 401 828 282 753 b 364 290 232 490 275 357 b 665 217 443 231 608 217 b 746 231 686 217 715 224 b 860 246 786 240 831 250 b 918 206 885 242 906 228 b 922 124 931 182 933 150 b 739 31 908 85 846 54 b 621 19 704 24 663 19 b 303 90 544 19 428 32 b 57 600 124 174 28 374 b 347 1006 81 775 189 926 b 571 1050 404 1035 483 1050 b 931 933 715 1050 850 1006 m 643 515 b 644 575 650 529 654 554 b 614 606 639 589 629 599 b 575 614 600 611 588 614 b 490 546 536 614 503 588 b 494 497 483 528 485 511 b 557 461 506 479 531 464 b 643 515 586 457 625 474 "},"A":{"ha":442,"x_min":0,"x_max":0,"o":"m 1083 136 b 1039 0 1111 78 1086 22 b 871 67 993 -21 913 -8 b 778 283 850 104 814 193 l 382 282 b 367 249 375 267 369 254 b 263 49 339 190 276 68 b 125 -19 217 -15 189 -33 b 56 143 61 -6 22 54 b 364 794 89 232 328 707 b 504 1038 400 883 439 1010 b 722 990 571 1065 686 1051 b 1083 136 758 931 1056 194 m 589 742 b 483 508 589 742 538 628 l 683 510 b 589 742 649 586 589 742 "},"B":{"ha":253,"x_min":0,"x_max":0,"o":"m 767 518 b 849 264 794 476 863 379 b 601 -3 828 100 744 11 b 419 -11 539 -8 479 -11 b 286 -7 364 -11 319 -8 b 239 -6 267 -6 251 -6 b 119 106 188 -6 126 38 b 114 879 114 146 113 406 b 114 918 114 899 114 913 b 247 1051 114 993 167 1046 b 404 1056 289 1054 347 1056 b 610 1046 464 1056 547 1054 b 817 846 717 1032 799 933 b 763 550 847 690 786 589 b 754 536 758 544 756 538 b 767 518 756 535 761 526 m 596 796 b 451 832 579 819 529 832 b 413 831 436 832 422 831 b 401 831 408 831 404 831 b 346 800 389 831 349 828 b 344 735 344 785 344 760 b 343 669 344 710 344 685 b 354 629 342 654 346 640 b 382 615 361 622 371 617 l 389 615 b 464 611 406 614 433 611 b 464 611 464 611 464 611 b 582 636 522 611 561 619 b 596 796 619 667 635 744 m 343 263 b 354 224 342 247 346 233 b 382 210 361 215 371 210 l 386 210 b 472 206 403 208 436 206 b 599 229 536 206 579 214 b 614 381 638 260 653 329 b 457 415 597 404 543 415 b 414 415 439 415 424 415 b 401 415 408 415 404 415 b 346 383 389 415 349 413 b 344 324 344 369 344 346 b 343 263 344 301 344 278 "},"C":{"ha":307,"x_min":0,"x_max":0,"o":"m 806 258 b 890 217 843 258 869 246 b 915 117 915 183 924 149 b 817 22 904 78 869 44 b 625 -6 775 4 706 -6 b 335 51 506 -6 397 15 b 90 588 247 101 47 253 b 543 1040 131 911 383 1036 b 560 1042 549 1040 554 1042 b 908 903 721 1042 867 969 b 907 756 954 833 933 789 b 835 724 890 736 865 724 b 747 753 807 724 776 733 b 600 790 708 778 656 790 b 522 782 574 790 549 788 b 335 551 449 764 343 674 b 436 292 328 436 360 354 b 638 235 483 253 574 235 b 668 236 649 235 658 235 b 731 247 689 239 711 243 b 806 258 757 253 782 258 "},"D":{"ha":361,"x_min":0,"x_max":0,"o":"m 874 875 b 936 244 999 713 999 428 b 550 -6 874 65 690 -3 l 535 -6 b 339 -8 463 -7 393 -8 b 238 -6 292 -8 258 -7 b 113 149 151 4 110 54 b 113 404 113 186 113 288 b 115 883 113 596 111 836 b 317 1039 122 990 225 1039 b 322 1039 319 1039 321 1039 b 372 1039 336 1038 351 1039 b 443 1040 393 1040 417 1040 b 874 875 649 1040 790 986 m 764 489 b 693 711 765 586 742 661 b 457 789 618 789 497 789 b 435 789 449 789 442 789 b 421 789 429 789 425 789 b 421 789 421 789 421 789 b 413 789 418 789 415 789 b 401 789 410 789 406 789 b 342 733 358 789 342 775 b 342 663 342 724 342 697 b 342 293 342 549 340 338 b 408 239 344 239 385 239 b 431 238 414 239 421 238 b 493 235 446 236 468 235 b 764 489 668 235 758 319 "},"E":{"ha":226,"x_min":0,"x_max":0,"o":"m 736 225 b 826 113 799 222 826 157 b 733 1 826 69 789 4 b 240 -6 682 -1 286 -6 b 111 114 183 -6 115 15 b 114 735 107 204 111 536 b 115 883 115 807 115 864 b 243 1024 115 976 156 1021 b 319 1024 260 1024 285 1024 b 747 1018 457 1024 693 1021 b 846 903 815 1017 846 957 b 735 794 846 838 804 797 b 556 793 704 793 643 793 b 408 793 497 793 440 793 b 383 793 396 793 388 793 b 354 758 367 793 357 782 b 351 626 353 753 351 697 b 710 618 465 624 671 618 b 764 594 731 618 749 610 b 794 507 783 572 796 539 b 699 407 792 461 753 408 b 636 406 689 406 668 406 b 350 408 557 406 428 407 b 349 260 349 333 349 272 b 399 228 349 236 375 228 b 736 225 463 228 678 228 "},"F":{"ha":213,"x_min":0,"x_max":0,"o":"m 357 760 b 357 686 357 756 357 728 b 725 685 463 685 685 683 b 725 685 725 685 725 685 b 783 660 747 685 767 676 b 815 572 804 638 817 604 b 718 465 814 524 775 469 b 360 461 678 463 458 461 b 364 213 361 371 363 278 b 365 90 364 144 365 96 b 254 -19 365 28 307 -17 b 246 -19 251 -19 249 -19 b 121 101 218 -19 126 -11 b 114 874 115 219 114 792 b 243 1015 114 967 156 1014 b 746 1011 333 1018 683 1013 b 847 900 817 1008 847 954 b 735 789 847 832 806 790 b 556 788 704 788 643 788 b 406 788 496 788 438 788 l 381 788 b 357 760 369 788 361 785 "},"G":{"ha":408,"x_min":0,"x_max":0,"o":"m 922 563 b 1033 435 976 557 1032 507 b 888 103 1033 433 1033 224 b 575 3 806 35 703 3 b 475 8 543 3 510 4 b 97 365 260 33 122 236 b 254 907 51 606 101 782 b 593 1028 351 988 465 1028 b 743 1013 653 1028 704 1019 b 957 846 871 988 946 899 b 940 754 964 808 958 776 b 858 713 919 728 889 713 b 781 744 828 713 803 729 b 756 760 772 750 764 756 b 704 783 739 769 721 778 b 614 794 679 790 647 794 b 379 692 589 794 460 789 b 400 290 294 589 285 388 b 592 225 451 247 517 225 b 696 239 625 225 661 229 b 815 368 776 261 806 331 b 676 367 776 367 708 367 b 547 457 615 367 549 397 b 574 528 546 490 556 510 b 676 564 596 551 631 564 l 719 565 b 835 567 757 565 799 567 b 922 563 876 567 904 565 "},"H":{"ha":417,"x_min":0,"x_max":0,"o":"m 110 875 b 213 1008 110 875 101 1008 b 344 856 322 1008 344 921 b 344 607 344 815 344 607 l 760 604 b 763 847 760 604 763 789 b 899 1008 764 986 825 1015 b 990 868 971 1000 986 942 b 1000 119 999 738 1000 218 b 874 -6 1000 26 947 -14 b 771 117 800 1 788 43 b 764 396 761 163 764 396 l 354 401 b 353 122 354 401 358 182 b 228 -7 346 32 301 -7 b 118 138 154 -7 115 60 b 110 875 121 219 110 778 "},"I":{"ha":-233,"x_min":0,"x_max":0,"o":"m 353 504 b 357 143 356 335 358 175 b 242 6 354 63 333 11 b 235 4 239 4 238 4 b 118 158 153 4 121 85 b 110 899 114 253 100 825 b 233 1010 118 971 178 1010 b 317 972 263 1010 294 996 b 349 885 332 956 350 928 b 353 504 347 847 350 672 "},"J":{"ha":164,"x_min":0,"x_max":0,"o":"m 632 1019 b 746 874 707 1018 746 968 b 726 311 746 785 733 410 b 481 13 718 154 631 49 b 376 0 447 4 413 0 b 101 111 264 0 161 42 b 51 332 28 196 13 267 b 136 374 65 357 100 374 b 226 329 174 374 206 358 l 235 318 b 368 238 267 275 294 238 b 368 238 368 238 368 238 b 376 238 371 238 374 238 b 514 393 463 240 511 296 b 515 876 517 486 518 815 b 551 990 514 924 526 964 b 628 1019 571 1010 597 1019 l 632 1019 "},"K":{"ha":299,"x_min":0,"x_max":0,"o":"m 915 204 b 946 58 954 164 968 97 b 840 4 928 26 886 4 b 772 22 817 4 793 10 b 521 217 708 58 575 171 b 376 326 486 247 425 292 b 357 342 371 332 364 336 b 358 133 358 235 358 153 b 246 -4 356 51 336 1 b 236 -4 242 -4 239 -4 b 121 146 157 -4 124 74 b 117 936 117 224 108 861 b 239 1047 125 1008 183 1047 b 321 1011 268 1047 300 1033 b 354 925 336 994 356 967 b 354 690 353 900 353 804 b 568 854 447 758 521 815 b 603 882 581 864 592 872 l 617 893 b 824 1018 706 965 769 1018 b 931 914 879 1017 931 967 b 825 761 932 869 893 814 b 554 515 750 704 583 543 b 915 204 599 476 885 238 "},"L":{"ha":307,"x_min":0,"x_max":0,"o":"m 808 265 b 939 140 894 265 936 203 b 907 56 940 108 929 79 b 807 13 882 28 846 14 b 307 10 731 11 369 10 b 119 185 243 10 122 47 b 117 910 117 308 114 844 b 243 1053 119 999 167 1053 b 338 1014 281 1053 314 1039 b 374 911 363 989 375 953 b 378 433 372 854 376 590 l 378 421 b 379 311 378 364 379 322 b 418 267 379 282 393 267 b 553 267 431 267 486 267 b 808 265 649 267 767 265 "},"M":{"ha":494,"x_min":0,"x_max":0,"o":"m 1078 690 b 1081 111 1081 489 1083 151 b 978 7 1076 51 1035 10 b 860 111 924 4 863 40 b 846 489 858 150 851 349 l 843 593 b 696 383 800 529 718 406 b 601 339 668 354 636 339 b 499 390 565 339 531 357 b 343 576 453 440 381 529 b 342 118 343 474 343 158 b 228 3 339 56 290 6 b 221 3 226 3 224 3 b 111 114 185 3 122 17 b 113 733 104 179 110 540 l 113 739 b 114 860 113 800 114 843 b 204 1019 114 947 143 999 b 236 1024 215 1022 226 1024 b 386 918 292 1024 336 976 b 594 622 449 844 561 674 b 846 999 644 704 807 968 b 949 1036 875 1022 914 1036 b 1018 1013 975 1036 999 1028 b 1076 846 1072 968 1076 915 b 1078 694 1076 828 1078 769 l 1078 690 "},"N":{"ha":453,"x_min":0,"x_max":0,"o":"m 929 1040 b 1039 929 982 1039 1039 993 b 1031 117 1039 874 1035 181 b 903 10 1026 65 975 10 b 832 28 879 10 856 15 b 347 614 760 65 429 504 b 349 117 349 510 350 168 b 236 15 346 56 289 18 b 122 132 185 13 129 49 b 114 904 115 215 113 858 b 228 1032 118 975 160 1022 b 247 1033 233 1032 240 1033 b 397 960 285 1033 340 1021 b 814 396 443 910 736 503 b 814 925 814 504 814 867 b 926 1040 814 997 872 1040 l 929 1040 "},"O":{"ha":450,"x_min":0,"x_max":0,"o":"m 1060 660 b 853 71 1124 436 1029 167 b 586 8 778 31 686 8 b 274 97 464 8 347 42 b 86 657 143 197 38 421 b 547 1031 124 838 307 1026 l 558 1031 b 1060 660 792 1031 997 878 m 818 410 b 760 706 843 492 851 610 b 574 778 717 751 649 778 b 406 722 508 778 447 758 b 332 439 332 661 304 558 b 572 258 354 340 456 264 b 818 410 668 254 789 307 "},"P":{"ha":286,"x_min":0,"x_max":0,"o":"m 676 1036 b 928 728 819 1029 932 890 b 685 407 924 583 846 421 b 475 400 624 401 553 400 b 358 401 421 400 378 400 b 356 85 360 350 360 129 b 236 -22 347 15 289 -22 b 117 78 186 -22 126 10 b 114 813 108 126 113 590 b 114 910 114 861 114 897 b 233 1046 114 989 157 1038 b 318 1049 250 1047 279 1049 b 676 1036 401 1049 532 1044 m 367 647 b 397 625 368 625 375 625 l 418 624 b 493 624 436 624 464 624 b 614 626 547 624 589 625 b 700 736 668 631 696 665 b 636 828 703 779 682 824 b 399 835 585 832 425 835 b 369 796 381 835 369 828 b 368 754 369 789 369 772 b 367 647 367 718 365 668 "},"Q":{"ha":432,"x_min":0,"x_max":0,"o":"m 981 229 b 1025 178 1001 207 1017 189 b 1010 64 1053 139 1051 78 b 871 68 983 33 918 28 b 846 90 864 75 856 82 b 836 85 843 89 840 86 b 268 110 657 -14 394 15 b 85 660 143 206 19 425 b 536 1025 122 838 299 1021 b 1039 663 774 1029 979 874 b 981 229 1081 519 1056 353 m 561 254 b 661 267 594 251 629 257 b 651 278 657 271 654 275 b 642 414 613 329 617 374 b 796 415 667 453 742 465 b 813 400 801 411 807 406 b 817 411 814 404 815 408 b 756 718 843 501 849 621 b 388 735 664 814 483 814 b 311 442 304 665 286 553 b 561 254 333 340 438 260 "},"R":{"ha":296,"x_min":0,"x_max":0,"o":"m 754 424 b 882 151 808 317 868 193 b 822 8 904 82 864 29 b 678 67 781 -11 707 -1 b 528 394 658 113 583 275 b 338 393 424 392 343 393 b 336 90 338 393 342 142 b 226 -8 329 29 278 -8 b 115 85 176 -8 125 25 b 114 913 106 144 114 840 b 224 1039 114 994 160 1032 b 672 1029 289 1046 496 1039 b 931 728 811 1022 935 886 b 754 424 926 614 865 475 m 349 633 b 390 600 350 600 367 600 b 608 603 413 600 547 599 b 718 722 671 607 713 649 b 632 839 721 769 685 833 b 390 844 579 843 426 831 b 351 797 361 844 351 826 b 349 633 351 774 346 665 "},"S":{"ha":131,"x_min":0,"x_max":0,"o":"m 764 881 b 754 808 771 856 768 831 b 701 768 742 788 724 774 b 660 763 686 765 674 763 b 574 792 632 763 606 772 b 439 828 543 811 483 828 b 415 825 431 828 422 826 b 347 731 372 815 342 775 b 482 600 353 675 418 633 b 700 394 561 558 658 478 b 613 51 758 276 719 126 b 371 -10 554 11 472 -10 b 299 -7 347 -10 324 -8 b 110 68 239 -1 136 39 b 89 221 65 117 57 176 b 186 274 115 256 149 274 b 251 258 207 274 229 269 b 394 229 292 242 347 229 b 449 239 418 229 438 233 b 485 293 468 250 482 271 b 464 356 489 315 481 338 b 363 425 444 376 407 399 b 182 558 300 463 229 506 b 135 882 96 657 101 790 b 432 1068 185 1019 321 1068 b 526 1057 465 1068 497 1064 b 764 881 676 1017 749 938 "},"T":{"ha":286,"x_min":0,"x_max":0,"o":"m 857 1061 b 953 956 924 1054 953 999 b 847 858 953 914 915 856 b 614 857 821 860 726 858 b 611 113 611 747 614 172 b 507 -14 608 39 593 -10 b 394 128 428 -19 397 57 b 396 854 392 206 389 719 b 158 851 279 851 181 850 b 31 949 89 854 42 869 b 164 1067 21 1028 97 1064 b 857 1061 242 1069 792 1069 "},"U":{"ha":392,"x_min":0,"x_max":0,"o":"m 867 1029 b 976 881 935 1029 976 974 b 965 335 976 797 972 421 b 569 7 951 178 808 8 l 564 7 b 124 390 300 7 139 147 b 110 879 113 546 110 803 b 235 1029 110 972 157 1029 b 240 1029 236 1029 238 1029 b 356 876 317 1026 356 975 b 353 796 356 858 354 831 b 369 394 349 674 340 469 b 554 249 399 317 436 249 b 560 249 556 249 558 249 b 742 404 674 250 728 297 b 744 800 751 475 747 671 b 743 894 743 842 743 876 b 867 1029 743 974 794 1029 "},"V":{"ha":369,"x_min":0,"x_max":0,"o":"m 972 1000 b 1019 839 1038 960 1039 889 b 639 88 1006 800 688 164 b 515 21 613 46 567 21 b 385 94 463 21 414 49 b 50 840 293 243 68 792 b 99 1010 21 919 36 975 b 144 1022 113 1018 129 1022 b 272 926 192 1022 239 986 b 525 358 308 861 500 418 b 804 938 556 419 782 892 b 919 1015 824 975 869 1015 b 972 1000 938 1015 956 1010 "},"W":{"ha":497,"x_min":0,"x_max":0,"o":"m 38 867 b 113 1013 26 947 63 996 b 265 904 192 1039 246 964 b 403 438 293 821 403 438 b 497 740 415 433 474 697 b 696 735 538 815 650 826 b 801 411 742 644 801 411 b 950 924 819 404 911 810 b 1103 992 976 1004 1047 1017 b 1151 861 1147 972 1167 907 b 904 67 1136 814 956 156 b 700 60 853 -21 731 6 b 597 343 663 124 597 343 b 494 56 608 343 526 93 b 301 88 440 -6 344 3 b 38 867 256 176 46 807 "},"X":{"ha":274,"x_min":0,"x_max":0,"o":"m 629 521 b 874 211 750 369 857 235 b 871 36 919 147 938 97 b 682 79 808 -21 732 22 b 474 338 660 106 574 211 b 244 74 360 204 264 92 b 69 46 189 17 142 -11 b 81 243 1 100 32 183 b 321 529 104 272 206 392 b 81 843 203 679 97 815 b 107 1003 40 908 69 974 b 269 979 144 1033 222 1042 b 478 713 286 954 375 843 b 732 1001 600 856 708 981 b 897 1003 790 1053 861 1035 b 900 835 935 969 956 893 b 629 521 876 810 758 672 "},"Y":{"ha":321,"x_min":0,"x_max":0,"o":"m 61 856 b 75 1014 28 914 21 975 b 250 982 131 1054 203 1036 b 524 678 296 931 524 678 b 806 1007 535 668 764 975 b 951 1007 846 1039 908 1051 b 949 835 994 964 981 883 b 636 435 883 735 636 435 b 635 108 660 428 636 172 b 519 -6 632 44 581 -6 b 397 129 446 -4 401 51 b 396 450 393 207 396 450 b 61 856 401 435 79 824 "},"Z":{"ha":197,"x_min":0,"x_max":0,"o":"m 194 788 b 50 893 121 788 51 826 b 194 1018 47 961 94 1017 b 632 1017 296 1021 561 1018 b 768 926 704 1014 751 976 b 722 747 786 875 757 818 b 360 225 693 690 360 225 b 736 221 368 204 690 219 b 847 119 807 224 843 174 b 744 10 851 65 824 17 b 188 7 665 4 250 6 b 54 138 114 10 54 57 b 181 369 54 217 139 303 b 483 792 239 465 483 792 b 194 788 492 774 239 788 "},"[":{"ha":-158,"x_min":0,"x_max":0,"o":"m 103 1003 b 210 1125 99 1085 153 1125 b 438 1124 267 1125 400 1124 b 500 1036 497 1121 504 1083 b 413 961 496 985 461 961 b 283 958 374 940 283 958 b 275 401 286 935 271 524 b 276 111 294 263 276 111 b 438 103 296 97 393 107 b 499 25 483 99 499 61 b 421 -61 522 -25 486 -57 b 210 -62 368 -75 258 -67 b 103 36 164 -76 111 -37 b 103 1003 99 94 107 938 "},"¥":{"ha":0,"x_min":0,"x_max":0,"o":""},"]":{"ha":-144,"x_min":0,"x_max":0,"o":"m 442 1003 b 442 36 438 938 460 94 b 336 -62 435 -37 394 -76 b 124 -61 288 -67 190 -75 b 46 25 58 -57 60 -25 b 107 103 46 61 63 99 b 269 111 153 107 286 97 b 271 401 269 111 288 263 b 263 958 275 524 271 935 b 133 961 263 958 183 940 b 46 1036 83 961 49 985 b 108 1124 42 1083 86 1121 b 336 1125 144 1124 279 1125 b 442 1003 393 1125 447 1085 "},"^":{"ha":174,"x_min":0,"x_max":0,"o":"m 453 836 b 196 410 453 836 228 450 b 75 365 176 353 106 351 b 38 486 43 379 11 425 b 242 818 63 546 174 713 b 400 1068 311 925 367 1049 b 542 1036 435 1088 510 1082 b 783 572 572 990 761 624 b 844 403 807 519 858 440 b 726 360 829 365 772 342 b 579 583 681 376 628 494 b 453 836 531 672 453 836 "},"_":{"ha":67,"x_min":0,"x_max":0,"o":"m 608 -39 b 738 -122 672 -39 733 -49 b 721 -175 739 -143 733 -161 b 600 -212 694 -204 644 -210 b 379 -214 569 -214 443 -214 b 125 -211 214 -214 158 -212 b 24 -135 36 -207 24 -162 b 129 -37 24 -79 64 -42 b 368 -36 142 -36 300 -36 b 526 -37 488 -36 421 -37 b 608 -39 572 -37 599 -39 "},"`":{"ha":-83,"x_min":0,"x_max":0,"o":"m 276 1043 b 385 931 306 1021 357 975 b 322 829 424 868 363 813 b 168 910 279 847 206 876 b 164 1042 129 942 124 1004 b 276 1043 204 1079 236 1072 "},"a":{"ha":193,"x_min":0,"x_max":0,"o":"m 582 63 b 354 6 582 63 490 -6 b 75 279 217 17 82 103 b 274 638 69 404 96 551 b 725 525 439 718 654 638 b 783 96 828 364 785 164 b 669 -12 782 22 732 -12 b 582 63 607 -12 582 63 m 556 286 b 461 467 585 344 569 438 b 285 349 351 496 301 421 b 414 199 269 278 319 199 b 556 286 476 199 531 235 "},"b":{"ha":176,"x_min":0,"x_max":0,"o":"m 103 907 b 232 1026 100 993 171 1033 b 340 900 293 1019 340 956 b 344 683 340 846 344 683 b 715 571 367 678 601 708 b 742 131 828 435 828 251 b 338 0 657 10 453 -4 b 110 140 222 3 122 -6 b 103 907 96 288 106 813 m 324 254 b 504 225 326 194 444 192 b 553 399 567 258 585 339 b 394 468 517 468 446 468 b 319 393 342 468 319 446 b 324 254 319 351 319 307 "},"c":{"ha":74,"x_min":0,"x_max":0,"o":"m 593 10 b 321 17 531 -8 454 -17 b 71 336 189 47 82 171 b 328 708 61 503 147 660 b 646 674 472 749 592 708 b 699 531 681 651 725 607 b 567 463 678 468 625 442 b 328 385 476 494 353 500 b 463 240 314 314 347 254 b 638 244 524 233 597 254 b 714 133 664 239 714 213 b 593 10 714 60 651 26 "},"d":{"ha":179,"x_min":0,"x_max":0,"o":"m 768 144 b 542 1 756 -3 657 6 b 136 128 426 -4 222 8 b 158 568 49 247 47 431 b 528 683 271 707 528 683 b 528 901 535 681 529 847 b 636 1029 528 956 575 1021 b 767 911 697 1036 768 996 b 768 144 764 815 781 290 m 556 394 b 481 468 556 447 532 468 b 321 397 428 468 358 467 b 372 224 290 338 310 257 b 553 256 432 192 550 196 b 556 394 556 308 556 353 "},"e":{"ha":49,"x_min":0,"x_max":0,"o":"m 74 385 b 319 706 74 517 157 689 b 639 563 482 724 582 667 b 579 299 694 460 668 356 b 328 265 507 253 328 265 b 524 215 342 258 354 176 b 625 78 590 231 668 154 b 342 7 600 32 517 -24 b 74 385 199 32 74 121 m 472 479 b 351 528 461 525 404 549 b 319 432 313 492 293 453 b 472 479 358 404 488 425 "},"f":{"ha":132,"x_min":0,"x_max":0,"o":"m 703 982 b 768 808 783 928 794 863 b 647 753 740 754 678 736 b 538 740 617 769 564 779 b 510 686 525 725 517 707 b 614 682 557 685 594 683 b 719 546 682 675 717 600 b 590 432 724 481 665 433 b 494 428 564 431 531 429 b 488 108 492 304 488 149 b 386 -1 488 50 433 1 b 276 99 339 -6 283 33 b 274 424 271 143 272 288 b 249 425 264 424 256 424 b 42 517 147 431 57 439 b 164 685 24 601 61 678 b 278 689 192 688 232 688 b 397 951 278 824 329 894 b 703 982 465 1010 621 1036 "},"g":{"ha":124,"x_min":0,"x_max":0,"o":"m 513 154 b 164 214 443 150 269 122 b 90 576 74 292 44 472 b 474 751 156 724 313 794 b 724 417 613 715 697 603 b 640 -96 746 256 735 26 b 342 -221 575 -181 468 -228 b 117 -87 221 -214 135 -154 b 214 39 103 -32 143 46 b 375 14 285 31 322 4 b 513 154 465 29 521 68 m 499 410 b 463 532 517 458 493 499 b 296 521 433 564 333 579 b 354 367 257 464 299 375 b 499 410 418 357 479 358 "},"h":{"ha":188,"x_min":0,"x_max":0,"o":"m 107 893 b 207 1036 113 965 114 1036 b 331 893 300 1036 331 954 b 342 636 332 807 342 636 b 615 613 344 635 454 685 b 779 324 717 567 768 464 b 778 86 788 215 783 118 b 678 0 772 50 747 0 b 567 96 603 0 571 53 b 561 313 563 139 564 271 b 335 308 551 460 342 457 b 332 126 333 265 338 165 b 219 0 317 36 283 6 b 114 121 147 -6 121 36 b 107 893 107 190 103 851 "},"i":{"ha":-229,"x_min":0,"x_max":0,"o":"m 246 663 b 104 811 158 657 94 729 b 289 921 118 921 240 947 b 371 786 346 892 371 844 b 246 663 371 728 333 669 m 111 143 b 110 463 104 217 101 351 b 242 611 117 572 185 608 b 358 438 310 611 358 556 b 351 101 358 315 365 175 b 224 -12 336 28 297 -18 b 111 143 128 -4 119 69 "},"j":{"ha":54,"x_min":0,"x_max":0,"o":"m 522 658 b 400 783 460 664 400 724 b 542 929 400 842 447 938 b 676 785 636 921 679 836 b 522 658 672 733 613 650 m 414 439 b 544 604 411 532 460 604 b 649 443 629 604 644 536 b 633 67 653 350 643 185 b 385 -190 621 -83 489 -172 b 78 -111 264 -210 147 -181 b 71 69 42 -74 22 17 b 219 79 108 111 172 108 b 364 64 265 50 329 49 b 414 439 450 103 418 293 "},"k":{"ha":67,"x_min":0,"x_max":0,"o":"m 479 383 b 668 185 479 383 635 225 b 668 38 701 144 692 65 b 497 35 646 13 565 -25 b 328 201 464 64 389 140 b 326 104 328 151 328 115 b 214 -8 324 51 286 -1 b 114 111 142 -14 110 42 b 107 894 117 179 107 838 b 199 1022 107 957 121 1022 b 326 900 276 1022 326 964 b 328 569 326 874 328 729 b 521 718 394 622 489 696 b 682 692 575 756 656 742 b 649 533 708 642 699 574 b 479 383 599 494 479 383 "},"l":{"ha":-253,"x_min":0,"x_max":0,"o":"m 335 147 b 231 0 331 61 329 6 b 107 164 139 -7 110 82 b 114 888 103 263 104 806 b 238 1006 124 969 185 1006 b 342 875 289 1006 344 960 b 335 147 339 789 338 218 "},"m":{"ha":438,"x_min":0,"x_max":0,"o":"m 104 582 b 204 710 104 658 146 710 b 321 636 261 710 296 697 b 478 694 321 636 388 697 b 629 618 581 689 629 618 b 824 682 639 599 729 692 b 1028 463 918 674 1011 597 b 1024 69 1046 328 1028 119 b 928 -11 1019 21 982 -11 b 838 76 875 -11 846 22 b 833 382 828 131 842 332 b 757 444 824 431 793 444 b 689 382 721 444 703 431 b 676 79 676 332 681 128 b 574 -3 672 29 628 -3 b 485 74 519 -3 497 29 b 469 381 471 118 475 336 b 407 461 465 425 451 457 b 326 394 363 465 336 439 b 313 53 318 350 322 93 b 219 -15 304 13 264 -15 b 110 79 175 -15 114 11 b 104 582 104 188 104 518 "},"n":{"ha":200,"x_min":0,"x_max":0,"o":"m 106 593 b 208 711 113 671 157 707 b 322 632 258 714 318 668 b 542 671 322 632 388 706 b 785 392 686 640 761 547 b 793 79 801 282 797 126 b 707 -14 789 32 758 -10 b 600 79 657 -17 607 4 b 590 358 593 165 597 282 b 464 467 582 443 538 467 b 322 328 389 467 319 439 b 321 78 324 238 322 133 b 222 -14 318 15 276 -11 b 115 86 167 -18 128 11 b 106 593 104 160 97 507 "},"o":{"ha":131,"x_min":0,"x_max":0,"o":"m 410 -7 b 72 264 272 -7 115 74 b 404 690 36 425 113 693 b 761 308 694 688 768 457 b 410 -7 751 144 631 -7 m 549 307 b 475 472 561 347 563 429 b 276 386 375 522 290 438 b 382 218 261 325 286 236 b 549 307 475 199 535 251 "},"p":{"ha":128,"x_min":0,"x_max":0,"o":"m 107 576 b 319 718 121 724 203 714 b 706 586 435 721 619 707 b 678 139 790 465 790 275 b 326 28 564 1 326 28 b 328 -107 342 4 328 -51 b 229 -232 328 -161 290 -225 b 115 -114 168 -239 113 -199 b 107 576 119 -18 94 431 m 301 325 b 375 250 301 272 324 250 b 535 319 428 250 497 250 b 486 493 567 379 547 460 b 304 463 426 525 308 522 b 301 325 301 411 301 365 "},"q":{"ha":118,"x_min":0,"x_max":0,"o":"m 708 -114 b 596 -232 713 -199 657 -239 b 496 -107 535 -225 496 -161 b 499 28 496 -53 499 28 b 147 139 506 4 261 1 b 119 586 35 275 35 465 b 506 718 206 707 390 721 b 717 576 622 714 704 724 b 708 -114 731 431 706 -18 m 521 463 b 339 493 517 522 399 525 b 290 319 276 460 258 379 b 449 250 326 250 397 250 b 524 325 501 250 524 272 b 521 463 524 365 524 411 "},"r":{"ha":61,"x_min":0,"x_max":0,"o":"m 100 579 b 196 735 94 678 122 735 b 310 622 269 735 310 690 b 310 551 310 556 310 551 b 489 663 329 538 392 631 b 701 599 588 693 683 679 b 569 453 721 519 679 483 b 344 242 451 419 375 349 b 257 10 319 156 339 31 b 118 119 124 -26 129 53 b 100 579 106 188 107 481 "},"s":{"ha":-11,"x_min":0,"x_max":0,"o":"m 119 604 b 360 774 161 744 263 769 b 600 679 482 778 575 736 b 514 540 624 625 597 542 b 338 540 442 540 381 592 b 433 429 296 490 388 467 b 567 128 501 372 607 275 b 311 -42 532 3 456 -44 b 72 49 160 -40 103 8 b 186 204 42 88 71 229 b 365 199 264 188 350 158 b 213 340 389 258 269 288 b 119 604 139 407 88 496 "},"t":{"ha":18,"x_min":0,"x_max":0,"o":"m 564 707 b 676 576 651 696 678 619 b 533 474 675 517 619 474 b 461 474 524 474 472 474 b 461 132 461 339 461 178 b 363 -4 461 51 436 -4 b 256 136 288 -4 265 43 b 251 474 250 204 250 350 b 36 572 171 471 36 479 b 264 713 36 672 157 710 b 374 886 267 832 283 886 b 464 711 464 886 464 790 b 564 707 482 710 549 708 "},"u":{"ha":172,"x_min":0,"x_max":0,"o":"m 93 550 b 199 711 86 667 121 707 b 315 575 278 717 311 638 b 356 233 318 513 310 257 b 535 269 400 208 504 204 b 557 615 567 335 551 551 b 675 704 561 679 604 710 b 771 519 746 700 765 646 b 550 10 775 414 803 61 b 111 235 299 -42 150 39 b 93 550 72 432 97 486 "},"v":{"ha":267,"x_min":0,"x_max":0,"o":"m 51 526 b 92 699 21 607 26 660 b 264 617 160 738 222 694 b 463 265 306 540 463 265 b 703 629 481 258 669 581 b 868 688 736 678 796 733 b 908 525 940 643 925 568 b 628 86 893 482 676 165 b 300 93 557 -26 383 -43 b 51 526 199 257 74 463 "},"w":{"ha":310,"x_min":0,"x_max":0,"o":"m 951 650 b 954 571 963 624 964 596 b 933 508 951 564 944 542 b 758 49 861 296 789 93 b 669 -6 735 14 717 -6 b 589 43 624 -6 608 14 b 501 240 572 68 517 235 b 408 36 501 240 426 53 b 346 -1 383 13 381 -1 b 251 64 297 -1 276 24 b 42 582 215 125 50 531 b 103 718 31 647 42 700 b 139 724 115 721 126 724 b 268 624 206 724 250 669 b 347 399 282 589 322 471 b 406 549 365 450 394 531 b 500 606 428 583 454 606 b 594 544 546 606 572 582 b 661 382 614 511 644 431 b 751 638 688 460 732 589 b 864 713 769 685 811 713 b 903 703 882 713 885 710 b 951 650 926 694 939 675 "},"x":{"ha":72,"x_min":0,"x_max":0,"o":"m 693 208 b 699 36 717 174 783 110 b 626 7 678 17 653 7 b 506 75 586 7 542 32 b 382 210 492 92 443 147 b 236 57 310 133 250 71 b 140 6 210 31 181 6 b 74 28 117 6 100 8 b 33 97 51 46 38 71 b 78 215 29 147 58 193 b 222 372 93 235 153 299 b 72 538 140 457 85 515 b 88 697 33 601 43 663 b 161 721 107 713 133 721 b 260 669 201 721 236 703 b 382 539 271 654 321 601 b 518 676 449 607 503 663 b 679 676 565 717 636 715 b 708 601 701 656 708 633 b 676 517 710 569 699 540 b 542 376 661 501 607 444 b 693 208 629 283 681 226 "},"y":{"ha":157,"x_min":0,"x_max":0,"o":"m 63 506 b 83 690 22 593 21 647 b 272 621 146 733 219 699 b 417 401 321 550 417 401 b 613 647 436 386 565 597 b 779 657 644 681 717 724 b 754 449 843 589 813 526 b 326 -104 697 371 389 -51 b 149 -128 274 -149 229 -192 b 179 81 89 -82 131 8 b 272 188 228 153 272 188 b 63 506 293 178 92 443 "},"z":{"ha":56,"x_min":0,"x_max":0,"o":"m 160 497 b 44 581 99 501 47 522 b 172 701 42 639 83 699 b 557 704 268 704 499 704 b 642 539 615 704 696 615 b 367 207 618 504 367 207 b 622 197 374 192 582 200 b 708 92 663 194 713 156 b 588 -8 703 28 654 -8 b 164 -8 524 -19 215 -8 b 57 78 114 -8 68 43 b 126 235 42 131 82 183 b 365 501 172 285 365 501 b 160 497 371 488 217 496 "},"{":{"ha":-214,"x_min":0,"x_max":0,"o":"m 403 981 b 342 871 381 963 342 918 b 346 793 342 850 344 822 b 350 631 351 740 357 681 b 279 497 342 574 303 522 b 336 365 300 472 332 425 b 335 265 339 336 336 303 b 347 100 329 204 325 135 b 393 42 365 72 381 56 b 425 -12 408 25 422 10 b 410 -69 428 -36 422 -56 b 350 -93 397 -85 376 -93 b 194 88 288 -93 215 4 b 192 251 182 138 188 199 b 194 342 194 286 199 321 b 161 403 190 364 176 383 b 122 476 144 424 126 446 b 181 603 114 526 135 569 b 208 739 200 617 221 683 b 240 1044 197 789 165 960 b 363 1107 289 1099 338 1107 b 424 1085 389 1107 413 1099 b 436 1040 433 1074 438 1058 b 403 981 433 1018 422 996 "},"|":{"ha":-261,"x_min":0,"x_max":0,"o":"m 313 996 b 308 -25 317 935 313 24 b 224 -124 304 -106 260 -124 b 129 -14 171 -124 129 -75 b 129 89 129 -1 129 36 b 128 982 128 278 125 949 b 204 1100 132 1036 146 1092 b 313 996 264 1108 308 1063 "},"}":{"ha":-200,"x_min":0,"x_max":0,"o":"m 99 981 b 67 1040 81 996 68 1018 b 79 1085 65 1058 69 1074 b 139 1107 90 1099 114 1107 b 261 1044 164 1107 214 1099 b 294 739 338 960 306 789 b 322 603 282 683 303 617 b 381 476 368 569 388 526 b 342 403 375 446 358 424 b 308 342 326 383 313 364 b 311 251 304 321 307 286 b 308 88 315 199 321 138 b 153 -93 288 4 215 -93 b 92 -69 126 -93 106 -85 b 78 -12 79 -56 75 -36 b 110 42 81 10 93 25 b 156 100 122 56 138 72 b 168 265 178 135 172 204 b 165 365 165 303 164 336 b 222 497 171 425 203 472 b 153 631 200 522 161 574 b 156 793 146 681 151 740 b 161 871 158 822 161 850 b 99 981 161 918 122 963 "},"~":{"ha":-133,"x_min":0,"x_max":0,"o":"m 164 944 b 65 951 115 925 88 919 b 96 1065 42 983 51 1033 b 276 1068 135 1093 211 1093 b 424 1058 329 1047 394 1047 b 503 1022 453 1071 490 1057 b 449 921 517 988 507 944 b 294 931 390 896 343 913 b 164 944 244 950 200 958 "},"\\":{"ha":28,"x_min":0,"x_max":0,"o":"m 244 988 b 429 622 269 932 386 726 b 651 158 472 519 618 238 b 638 11 686 79 669 28 b 515 42 606 -4 551 -7 b 343 356 478 92 388 263 b 71 921 299 447 96 872 b 97 1074 44 968 25 1035 b 244 988 169 1113 218 1047 "},"¦":{"ha":0,"x_min":0,"x_max":0,"o":""},"¡":{"ha":0,"x_min":0,"x_max":0,"o":""},"¢":{"ha":0,"x_min":0,"x_max":0,"o":""},"£":{"ha":0,"x_min":0,"x_max":0,"o":""},"⁄":{"ha":0,"x_min":0,"x_max":0,"o":""},"¤":{"ha":0,"x_min":0,"x_max":0,"o":""},"«":{"ha":0,"x_min":0,"x_max":0,"o":""},"‹":{"ha":0,"x_min":0,"x_max":0,"o":""},"›":{"ha":0,"x_min":0,"x_max":0,"o":""},"ﬁ":{"ha":0,"x_min":0,"x_max":0,"o":""},"ﬂ":{"ha":0,"x_min":0,"x_max":0,"o":""},"‒":{"ha":0,"x_min":0,"x_max":0,"o":""},"·":{"ha":0,"x_min":0,"x_max":0,"o":""},"•":{"ha":0,"x_min":0,"x_max":0,"o":""},"‚":{"ha":0,"x_min":0,"x_max":0,"o":""},"„":{"ha":0,"x_min":0,"x_max":0,"o":""},"»":{"ha":0,"x_min":0,"x_max":0,"o":""},"¿":{"ha":0,"x_min":0,"x_max":0,"o":""},"́":{"ha":0,"x_min":0,"x_max":0,"o":""},"̂":{"ha":0,"x_min":0,"x_max":0,"o":""},"¯":{"ha":0,"x_min":0,"x_max":0,"o":""},"̆":{"ha":0,"x_min":0,"x_max":0,"o":""},"̇":{"ha":0,"x_min":0,"x_max":0,"o":""},"̈":{"ha":0,"x_min":0,"x_max":0,"o":""},"̊":{"ha":0,"x_min":0,"x_max":0,"o":""},"¸":{"ha":0,"x_min":0,"x_max":0,"o":""},"̋":{"ha":0,"x_min":0,"x_max":0,"o":""},"̨":{"ha":0,"x_min":0,"x_max":0,"o":""},"̌":{"ha":0,"x_min":0,"x_max":0,"o":""},"̶":{"ha":0,"x_min":0,"x_max":0,"o":""},"Æ":{"ha":0,"x_min":0,"x_max":0,"o":""},"ª":{"ha":0,"x_min":0,"x_max":0,"o":""},"Ł":{"ha":0,"x_min":0,"x_max":0,"o":""},"Ø":{"ha":0,"x_min":0,"x_max":0,"o":""},"Œ":{"ha":0,"x_min":0,"x_max":0,"o":""},"º":{"ha":0,"x_min":0,"x_max":0,"o":""},"æ":{"ha":0,"x_min":0,"x_max":0,"o":""},"ı":{"ha":0,"x_min":0,"x_max":0,"o":""},"ł":{"ha":0,"x_min":0,"x_max":0,"o":""},"ø":{"ha":0,"x_min":0,"x_max":0,"o":""},"œ":{"ha":0,"x_min":0,"x_max":0,"o":""},"ß":{"ha":0,"x_min":0,"x_max":0,"o":""},"­":{"ha":0,"x_min":0,"x_max":0,"o":""},"©":{"ha":0,"x_min":0,"x_max":0,"o":""},"¬":{"ha":0,"x_min":0,"x_max":0,"o":""},"®":{"ha":0,"x_min":0,"x_max":0,"o":""},"²":{"ha":0,"x_min":0,"x_max":0,"o":""},"³":{"ha":0,"x_min":0,"x_max":0,"o":""},"µ":{"ha":0,"x_min":0,"x_max":0,"o":""},"¹":{"ha":0,"x_min":0,"x_max":0,"o":""},"¼":{"ha":0,"x_min":0,"x_max":0,"o":""},"½":{"ha":0,"x_min":0,"x_max":0,"o":""},"¾":{"ha":0,"x_min":0,"x_max":0,"o":""},"À":{"ha":0,"x_min":0,"x_max":0,"o":""},"Á":{"ha":0,"x_min":0,"x_max":0,"o":""},"Â":{"ha":0,"x_min":0,"x_max":0,"o":""},"Ã":{"ha":0,"x_min":0,"x_max":0,"o":""},"Ä":{"ha":0,"x_min":0,"x_max":0,"o":""},"Å":{"ha":0,"x_min":0,"x_max":0,"o":""},"Ç":{"ha":0,"x_min":0,"x_max":0,"o":""},"È":{"ha":0,"x_min":0,"x_max":0,"o":""},"É":{"ha":0,"x_min":0,"x_max":0,"o":""},"Ê":{"ha":0,"x_min":0,"x_max":0,"o":""},"Ë":{"ha":0,"x_min":0,"x_max":0,"o":""},"Ì":{"ha":0,"x_min":0,"x_max":0,"o":""},"Í":{"ha":0,"x_min":0,"x_max":0,"o":""},"Î":{"ha":0,"x_min":0,"x_max":0,"o":""},"Ï":{"ha":0,"x_min":0,"x_max":0,"o":""},"Ð":{"ha":0,"x_min":0,"x_max":0,"o":""},"Ñ":{"ha":0,"x_min":0,"x_max":0,"o":""},"Ò":{"ha":0,"x_min":0,"x_max":0,"o":""},"Ó":{"ha":0,"x_min":0,"x_max":0,"o":""},"Ô":{"ha":0,"x_min":0,"x_max":0,"o":""},"Õ":{"ha":0,"x_min":0,"x_max":0,"o":""},"Ö":{"ha":0,"x_min":0,"x_max":0,"o":""},"Ù":{"ha":0,"x_min":0,"x_max":0,"o":""},"Ú":{"ha":0,"x_min":0,"x_max":0,"o":""},"Û":{"ha":0,"x_min":0,"x_max":0,"o":""},"Ü":{"ha":0,"x_min":0,"x_max":0,"o":""},"Ý":{"ha":0,"x_min":0,"x_max":0,"o":""},"Þ":{"ha":0,"x_min":0,"x_max":0,"o":""},"à":{"ha":0,"x_min":0,"x_max":0,"o":""},"á":{"ha":0,"x_min":0,"x_max":0,"o":""},"â":{"ha":0,"x_min":0,"x_max":0,"o":""},"ã":{"ha":0,"x_min":0,"x_max":0,"o":""},"ä":{"ha":0,"x_min":0,"x_max":0,"o":""},"å":{"ha":0,"x_min":0,"x_max":0,"o":""},"ç":{"ha":0,"x_min":0,"x_max":0,"o":""},"è":{"ha":0,"x_min":0,"x_max":0,"o":""},"é":{"ha":0,"x_min":0,"x_max":0,"o":""},"ê":{"ha":0,"x_min":0,"x_max":0,"o":""},"ë":{"ha":0,"x_min":0,"x_max":0,"o":""},"ì":{"ha":0,"x_min":0,"x_max":0,"o":""},"í":{"ha":0,"x_min":0,"x_max":0,"o":""},"î":{"ha":0,"x_min":0,"x_max":0,"o":""},"ï":{"ha":0,"x_min":0,"x_max":0,"o":""},"ð":{"ha":0,"x_min":0,"x_max":0,"o":""},"ñ":{"ha":0,"x_min":0,"x_max":0,"o":""},"ò":{"ha":0,"x_min":0,"x_max":0,"o":""},"ó":{"ha":0,"x_min":0,"x_max":0,"o":""},"ô":{"ha":0,"x_min":0,"x_max":0,"o":""},"õ":{"ha":0,"x_min":0,"x_max":0,"o":""},"ö":{"ha":0,"x_min":0,"x_max":0,"o":""},"ù":{"ha":0,"x_min":0,"x_max":0,"o":""},"ú":{"ha":0,"x_min":0,"x_max":0,"o":""},"û":{"ha":0,"x_min":0,"x_max":0,"o":""},"ü":{"ha":0,"x_min":0,"x_max":0,"o":""},"ý":{"ha":0,"x_min":0,"x_max":0,"o":""},"þ":{"ha":0,"x_min":0,"x_max":0,"o":""},"ÿ":{"ha":0,"x_min":0,"x_max":0,"o":""},"Š":{"ha":0,"x_min":0,"x_max":0,"o":""},"Ÿ":{"ha":0,"x_min":0,"x_max":0,"o":""},"Ž":{"ha":0,"x_min":0,"x_max":0,"o":""},"̅":{"ha":0,"x_min":0,"x_max":0,"o":""},"š":{"ha":0,"x_min":0,"x_max":0,"o":""},"™":{"ha":0,"x_min":0,"x_max":0,"o":""},"ž":{"ha":0,"x_min":0,"x_max":0,"o":""}," ":{"ha":0,"x_min":0,"x_max":0,"o":""},"￨":{"ha":0,"x_min":0,"x_max":0,"o":""},"‾":{"ha":0,"x_min":0,"x_max":0,"o":""},"｡":{"ha":19,"x_min":0,"x_max":0,"o":"m 219 -39 b 61 136 100 -31 68 58 b 247 311 54 213 136 332 b 408 129 360 290 408 213 b 219 -39 426 36 318 -47 m 286 143 b 239 199 286 167 271 194 b 174 144 206 204 174 174 b 225 86 176 93 192 90 b 286 143 263 82 286 119 "},"｢":{"ha":211,"x_min":0,"x_max":0,"o":"m 468 911 b 461 17 468 911 461 79 b 371 -72 464 -65 413 -72 b 285 13 329 -72 292 -50 b 278 976 278 74 278 915 b 417 1101 278 1039 335 1101 b 761 1094 500 1099 679 1104 b 842 997 817 1088 842 1039 b 724 917 842 964 800 919 b 468 911 631 915 468 911 "},"｣":{"ha":208,"x_min":0,"x_max":0,"o":"m 432 118 b 439 1013 432 118 439 950 b 529 1101 453 1067 488 1101 b 615 1017 571 1101 608 1079 b 622 51 622 954 622 114 b 483 -72 622 -10 565 -72 b 139 -65 417 -97 221 -75 b 58 31 83 -58 58 -10 b 176 111 58 65 100 110 b 432 118 269 114 432 118 "},"､":{"ha":17,"x_min":0,"x_max":0,"o":"m 117 117 b 86 235 75 154 58 188 b 225 251 114 283 181 286 b 364 125 269 217 328 156 b 390 6 419 76 415 39 b 269 -19 365 -26 317 -57 b 117 117 224 17 149 89 "},"･":{"ha":22,"x_min":0,"x_max":0,"o":"m 367 428 b 222 574 267 435 229 510 b 390 721 217 639 296 739 b 513 568 485 703 513 639 b 367 428 513 499 449 422 "},"ｦ":{"ha":0,"x_min":0,"x_max":0,"o":""},"ｧ":{"ha":0,"x_min":0,"x_max":0,"o":""},"ｨ":{"ha":0,"x_min":0,"x_max":0,"o":""},"ｩ":{"ha":0,"x_min":0,"x_max":0,"o":""},"ｪ":{"ha":0,"x_min":0,"x_max":0,"o":""},"ｫ":{"ha":0,"x_min":0,"x_max":0,"o":""},"ｬ":{"ha":0,"x_min":0,"x_max":0,"o":""},"ｭ":{"ha":0,"x_min":0,"x_max":0,"o":""},"ｮ":{"ha":0,"x_min":0,"x_max":0,"o":""},"ｯ":{"ha":0,"x_min":0,"x_max":0,"o":""},"ｰ":{"ha":-47,"x_min":0,"x_max":0,"o":"m 179 474 b 49 546 107 474 64 488 b 168 657 47 600 96 654 b 469 657 263 651 408 657 b 597 581 532 657 593 625 b 503 475 601 538 579 478 b 179 474 442 458 235 474 "},"ｱ":{"ha":0,"x_min":0,"x_max":0,"o":""},"ｲ":{"ha":0,"x_min":0,"x_max":0,"o":""},"ｳ":{"ha":0,"x_min":0,"x_max":0,"o":""},"ｴ":{"ha":0,"x_min":0,"x_max":0,"o":""},"ｵ":{"ha":0,"x_min":0,"x_max":0,"o":""},"ｶ":{"ha":0,"x_min":0,"x_max":0,"o":""},"ｷ":{"ha":0,"x_min":0,"x_max":0,"o":""},"ｸ":{"ha":0,"x_min":0,"x_max":0,"o":""},"ｹ":{"ha":0,"x_min":0,"x_max":0,"o":""},"ｺ":{"ha":0,"x_min":0,"x_max":0,"o":""},"ｻ":{"ha":0,"x_min":0,"x_max":0,"o":""},"ｼ":{"ha":0,"x_min":0,"x_max":0,"o":""},"ｽ":{"ha":0,"x_min":0,"x_max":0,"o":""},"ｾ":{"ha":0,"x_min":0,"x_max":0,"o":""},"ｿ":{"ha":0,"x_min":0,"x_max":0,"o":""},"ﾀ":{"ha":0,"x_min":0,"x_max":0,"o":""},"ﾁ":{"ha":0,"x_min":0,"x_max":0,"o":""},"ﾂ":{"ha":0,"x_min":0,"x_max":0,"o":""},"ﾃ":{"ha":0,"x_min":0,"x_max":0,"o":""},"ﾄ":{"ha":0,"x_min":0,"x_max":0,"o":""},"ﾅ":{"ha":0,"x_min":0,"x_max":0,"o":""},"ﾆ":{"ha":0,"x_min":0,"x_max":0,"o":""},"ﾇ":{"ha":0,"x_min":0,"x_max":0,"o":""},"ﾈ":{"ha":0,"x_min":0,"x_max":0,"o":""},"ﾉ":{"ha":0,"x_min":0,"x_max":0,"o":""},"ﾊ":{"ha":0,"x_min":0,"x_max":0,"o":""},"ﾋ":{"ha":0,"x_min":0,"x_max":0,"o":""},"ﾌ":{"ha":0,"x_min":0,"x_max":0,"o":""},"ﾍ":{"ha":0,"x_min":0,"x_max":0,"o":""},"ﾎ":{"ha":0,"x_min":0,"x_max":0,"o":""},"ﾏ":{"ha":0,"x_min":0,"x_max":0,"o":""},"ﾐ":{"ha":0,"x_min":0,"x_max":0,"o":""},"ﾑ":{"ha":0,"x_min":0,"x_max":0,"o":""},"ﾒ":{"ha":0,"x_min":0,"x_max":0,"o":""},"ﾓ":{"ha":0,"x_min":0,"x_max":0,"o":""},"ﾔ":{"ha":0,"x_min":0,"x_max":0,"o":""},"ﾕ":{"ha":0,"x_min":0,"x_max":0,"o":""},"ﾖ":{"ha":0,"x_min":0,"x_max":0,"o":""},"ﾗ":{"ha":0,"x_min":0,"x_max":0,"o":""},"ﾘ":{"ha":0,"x_min":0,"x_max":0,"o":""},"ﾙ":{"ha":0,"x_min":0,"x_max":0,"o":""},"ﾚ":{"ha":0,"x_min":0,"x_max":0,"o":""},"ﾛ":{"ha":0,"x_min":0,"x_max":0,"o":""},"ﾜ":{"ha":0,"x_min":0,"x_max":0,"o":""},"ﾝ":{"ha":0,"x_min":0,"x_max":0,"o":""},"ﾞ":{"ha":0,"x_min":0,"x_max":0,"o":""},"ﾟ":{"ha":0,"x_min":0,"x_max":0,"o":""}," ":{"ha":0,"x_min":0,"x_max":0,"o":""},"、":{"ha":0,"x_min":0,"x_max":0,"o":"m 167 117 b 136 235 125 154 108 188 b 275 251 164 283 231 286 b 414 125 319 217 378 156 b 440 6 469 76 465 39 b 319 -19 415 -26 367 -57 b 167 117 274 17 199 89 "},"。":{"ha":0,"x_min":0,"x_max":0,"o":"m 258 -39 b 100 136 139 -31 107 58 b 286 311 93 213 175 332 b 447 129 399 290 447 213 b 258 -39 465 36 357 -47 m 325 143 b 278 199 325 167 310 194 b 213 144 244 204 213 174 b 264 86 215 93 231 90 b 325 143 301 82 325 119 "},"，":{"ha":0,"x_min":0,"x_max":0,"o":"m 268 -6 b 158 61 268 -6 175 -1 b 256 201 142 124 183 199 b 372 94 318 204 368 149 b 329 -65 376 40 357 -29 b 254 -106 301 -101 271 -114 b 243 -56 238 -97 225 -81 b 268 -6 275 -40 264 -35 "},"．":{"ha":0,"x_min":0,"x_max":0,"o":"m 269 -36 b 149 72 197 -29 153 19 b 274 196 143 125 188 201 b 381 71 361 192 381 119 b 269 -36 381 22 328 -40 "},"・":{"ha":0,"x_min":0,"x_max":0,"o":"m 694 428 b 550 574 594 435 557 510 b 718 721 544 639 624 739 b 840 568 813 703 840 639 b 694 428 840 499 776 422 "},"：":{"ha":0,"x_min":0,"x_max":0,"o":"m 694 681 b 574 797 615 686 578 746 b 713 913 568 847 638 926 b 815 792 786 899 815 847 b 694 681 824 725 758 676 m 689 169 b 579 286 624 178 579 231 b 717 393 594 326 651 403 b 810 282 782 383 810 328 b 689 169 810 235 764 161 "},"；":{"ha":0,"x_min":0,"x_max":0,"o":"m 700 676 b 579 785 628 683 583 732 b 704 908 575 838 618 914 b 811 783 792 904 811 831 b 700 676 811 735 758 672 m 692 185 b 583 251 692 185 600 189 b 679 392 567 314 608 389 b 796 285 742 394 792 339 b 753 125 800 231 781 161 b 678 83 725 88 694 75 b 667 133 661 92 650 108 b 692 185 696 144 688 154 "},"？":{"ha":0,"x_min":0,"x_max":0,"o":"m 713 233 b 807 174 757 224 789 203 b 819 72 824 146 828 111 b 697 -32 807 11 757 -32 b 567 99 617 -32 567 36 b 683 236 567 156 603 236 b 713 233 693 236 703 235 m 958 949 b 961 572 1057 811 1025 664 b 882 472 935 535 907 501 b 821 385 853 436 826 406 b 706 275 811 351 779 275 b 636 303 676 275 653 285 b 610 382 617 322 608 351 b 746 614 617 471 658 542 b 783 806 799 658 828 743 b 689 843 758 840 704 843 b 654 839 672 843 660 840 b 576 749 611 821 583 765 b 453 660 557 704 524 651 b 385 697 424 663 401 675 b 365 788 367 721 360 754 b 536 1022 379 867 413 964 b 707 1058 586 1046 647 1058 b 958 949 817 1058 907 1018 "},"！":{"ha":0,"x_min":0,"x_max":0,"o":"m 806 1008 b 842 876 832 978 844 929 b 792 346 835 800 800 390 b 708 269 783 299 753 272 l 704 269 b 622 347 664 269 633 299 b 576 885 613 386 579 821 b 611 1001 574 932 585 972 b 718 1047 636 1031 675 1047 b 806 1008 753 1047 783 1033 m 724 233 b 818 174 768 224 800 203 b 829 72 833 146 838 111 b 708 -32 817 11 767 -32 b 576 99 628 -32 576 36 b 694 236 576 156 614 236 b 724 233 704 236 714 235 "},"゛":{"ha":0,"x_min":0,"x_max":0,"o":"m 135 888 b 149 1000 114 928 108 981 b 261 935 188 1021 217 994 b 279 782 325 849 326 806 b 135 888 235 760 174 811 m 297 961 b 311 1075 274 1000 271 1056 b 431 1000 351 1096 392 1065 b 429 865 472 931 476 889 b 297 961 375 838 336 892 "},"゜":{"ha":0,"x_min":0,"x_max":0,"o":"m 272 719 b 113 896 153 729 119 818 b 300 1071 106 972 188 1092 b 461 889 413 1050 461 972 b 272 719 481 796 371 713 m 338 903 b 292 958 338 926 324 954 b 226 904 258 963 226 933 b 278 846 231 853 244 850 b 338 903 315 842 338 879 "},"´":{"ha":0,"x_min":0,"x_max":0,"o":"m 697 1043 b 811 1042 738 1072 769 1079 b 807 910 851 1004 844 942 b 651 829 768 876 694 847 b 589 931 611 813 550 868 b 697 1043 617 975 668 1021 "},"｀":{"ha":0,"x_min":0,"x_max":0,"o":"m 717 1043 b 826 931 747 1021 797 975 b 764 829 864 868 803 813 b 608 910 719 847 646 876 b 604 1042 571 942 564 1004 b 717 1043 644 1079 676 1072 "},"¨":{"ha":0,"x_min":0,"x_max":0,"o":"m 568 860 b 475 954 503 864 479 913 b 583 1049 471 996 522 1060 b 661 950 643 1038 661 996 b 568 860 661 906 621 856 m 821 860 b 728 954 756 864 732 913 b 835 1049 724 996 775 1060 b 914 950 911 1018 914 996 b 821 860 914 906 874 856 "},"＾":{"ha":0,"x_min":0,"x_max":0,"o":"m 918 904 b 899 810 940 865 933 831 b 863 799 888 801 875 799 b 796 836 833 799 810 819 b 703 929 779 853 728 904 b 592 832 672 903 604 844 b 525 803 576 818 551 803 b 490 814 513 803 500 807 b 475 908 472 828 446 857 b 556 989 481 917 500 936 b 607 1038 578 1010 597 1028 b 701 1082 633 1067 667 1082 b 800 1035 738 1082 772 1065 l 829 1006 b 918 904 878 954 908 921 "},"￣":{"ha":0,"x_min":0,"x_max":0,"o":"m 263 963 b 131 1038 203 958 131 964 b 243 1124 132 1111 194 1124 b 863 1125 293 1122 769 1122 b 1185 1118 954 1128 1129 1126 b 1254 1032 1243 1107 1254 1065 b 1149 960 1254 1000 1226 965 b 632 960 1071 953 733 968 b 263 963 531 951 318 965 "},"＿":{"ha":0,"x_min":0,"x_max":0,"o":"m 1126 -46 b 1258 -121 1186 -42 1258 -47 b 1146 -207 1257 -194 1194 -207 b 526 -208 1096 -206 619 -206 b 204 -201 435 -211 260 -210 b 135 -115 163 -207 135 -149 b 240 -43 135 -83 163 -49 b 757 -43 318 -36 656 -51 b 1126 -46 858 -35 1071 -49 "},"ヽ":{"ha":0,"x_min":0,"x_max":0,"o":""},"ヾ":{"ha":0,"x_min":0,"x_max":0,"o":""},"ゝ":{"ha":0,"x_min":0,"x_max":0,"o":""},"ゞ":{"ha":0,"x_min":0,"x_max":0,"o":""},"〃":{"ha":0,"x_min":0,"x_max":0,"o":"m 738 813 b 628 417 739 697 696 542 b 394 189 550 275 457 206 b 279 218 381 185 310 175 b 307 343 249 250 274 308 b 353 383 321 357 336 369 b 479 535 393 417 439 454 b 558 826 532 640 554 771 b 658 936 564 904 614 939 b 738 813 696 932 736 899 m 957 900 b 1049 772 976 899 1040 889 b 956 336 1057 647 1021 475 b 731 81 890 199 811 108 b 606 107 719 76 639 68 b 614 231 576 142 578 188 b 661 279 628 247 644 263 b 789 453 703 318 750 363 b 857 775 840 571 856 715 b 957 900 858 861 910 900 "},"仝":{"ha":0,"x_min":0,"x_max":0,"o":""},"々":{"ha":0,"x_min":0,"x_max":0,"o":""},"〆":{"ha":0,"x_min":0,"x_max":0,"o":""},"〇":{"ha":0,"x_min":0,"x_max":0,"o":"m 661 -60 b 165 485 290 -33 188 246 b 749 1031 143 725 394 1061 b 1247 464 1081 1003 1247 725 b 661 -60 1247 201 967 -82 m 1013 486 b 750 801 1013 617 933 775 b 383 500 567 826 383 657 b 672 172 383 342 486 196 b 1013 486 881 146 1013 356 "},"ー":{"ha":0,"x_min":0,"x_max":0,"o":"m 1019 640 b 1190 529 1104 640 1185 628 b 1168 460 1192 501 1183 478 b 1007 410 1133 422 1067 413 b 706 407 967 407 790 407 b 340 411 486 407 385 410 b 206 513 224 417 206 476 b 346 643 206 586 261 638 b 535 644 364 644 444 644 b 900 642 693 644 760 643 b 1019 640 963 642 1006 640 "},"―":{"ha":0,"x_min":0,"x_max":0,"o":"m 1019 640 b 1190 529 1104 640 1185 628 b 1168 460 1192 501 1183 478 b 1007 410 1133 422 1067 413 b 706 407 967 407 790 407 b 340 411 486 407 385 410 b 206 513 224 417 206 476 b 346 643 206 586 261 638 b 535 644 364 644 444 644 b 900 642 693 644 760 643 b 1019 640 963 642 1006 640 "},"‐":{"ha":0,"x_min":0,"x_max":0,"o":"m 546 474 b 415 546 474 474 431 488 b 535 657 414 600 463 654 b 836 657 629 651 775 657 b 964 581 899 657 960 625 b 869 475 968 538 946 478 b 546 474 808 458 601 474 "},"／":{"ha":0,"x_min":0,"x_max":0,"o":"m 1260 958 b 213 -42 1233 928 236 -19 b 126 -50 172 -78 143 -67 b 131 46 100 -25 103 17 b 178 96 136 51 154 71 b 1165 1036 264 188 1149 1022 b 1256 1058 1192 1061 1224 1082 b 1260 958 1288 1035 1289 993 "},"＼":{"ha":0,"x_min":0,"x_max":0,"o":"m 129 958 b 133 1058 100 993 101 1035 b 224 1036 165 1082 197 1061 b 1211 96 240 1022 1125 188 b 1258 46 1235 71 1253 51 b 1263 -50 1286 17 1289 -25 b 1176 -42 1246 -67 1217 -78 b 129 958 1153 -19 156 928 "},"∼":{"ha":0,"x_min":0,"x_max":0,"o":"m 1238 557 b 1122 415 1246 511 1214 447 b 969 390 1074 399 1022 390 b 779 425 908 390 844 403 b 694 457 750 435 719 447 b 496 514 626 485 556 513 b 347 492 429 517 365 504 b 167 500 268 436 200 440 b 253 679 114 593 197 644 b 472 732 296 706 381 732 b 588 717 514 732 553 726 b 729 663 632 703 682 682 b 943 597 808 628 890 593 b 1068 618 999 601 1036 610 b 1124 629 1086 622 1104 626 b 1238 557 1176 636 1229 603 "},"‖":{"ha":0,"x_min":0,"x_max":0,"o":"m 653 1008 b 649 -12 657 946 651 36 b 564 -111 643 -94 600 -111 b 469 -1 511 -111 469 -62 b 468 100 469 10 469 49 b 468 994 468 290 465 961 b 544 1111 472 1047 485 1104 b 653 1008 604 1119 649 1075 m 921 1008 b 917 -12 925 946 921 36 b 832 -111 911 -94 868 -111 b 738 -1 779 -111 738 -64 b 736 100 738 10 738 49 b 736 994 736 290 733 961 b 813 1111 740 1047 753 1104 b 921 1008 872 1119 917 1075 "},"｜":{"ha":0,"x_min":0,"x_max":0,"o":"m 790 996 b 786 -25 794 935 790 24 b 701 -124 782 -106 738 -124 b 607 -14 649 -124 607 -75 b 607 89 607 -1 607 36 b 606 982 606 278 603 949 b 682 1100 610 1036 624 1092 b 790 996 742 1108 786 1063 "},"…":{"ha":0,"x_min":0,"x_max":0,"o":"m 269 463 b 160 575 193 468 164 525 b 288 686 154 624 215 700 b 381 569 358 674 381 624 b 269 463 381 517 332 458 m 694 463 b 583 575 618 468 589 525 b 711 686 579 624 640 700 b 806 569 783 674 806 624 b 694 463 806 517 757 458 m 1118 463 b 1008 575 1043 468 1013 525 b 1136 686 1004 624 1065 700 b 1231 569 1208 674 1231 624 b 1118 463 1231 517 1181 458 "},"‥":{"ha":0,"x_min":0,"x_max":0,"o":"m 339 463 b 229 575 263 468 233 525 b 357 686 225 624 286 700 b 450 569 429 674 450 624 b 339 463 450 517 401 458 m 1021 463 b 911 575 944 468 915 525 b 1039 686 906 624 967 700 b 1132 569 1110 674 1132 624 b 1021 463 1132 517 1083 458 "},"‘":{"ha":0,"x_min":0,"x_max":0,"o":"m 1186 976 b 1299 907 1186 976 1282 972 b 1200 761 1317 843 1272 765 b 1078 874 1135 760 1082 817 b 1122 1039 1074 929 1093 1001 b 1200 1081 1151 1076 1183 1089 b 1213 1029 1218 1072 1229 1054 b 1186 976 1194 1003 1190 1007 "},"’":{"ha":0,"x_min":0,"x_max":0,"o":"m 210 868 b 97 938 210 868 115 872 b 197 1083 81 1003 124 1081 b 318 972 261 1086 314 1028 b 274 806 322 915 303 844 b 196 764 244 768 213 756 b 183 817 178 772 167 790 b 210 868 201 842 206 838 "},"“":{"ha":0,"x_min":0,"x_max":0,"o":"m 1183 976 b 1296 907 1183 976 1278 972 b 1196 761 1313 843 1269 765 b 1075 874 1132 760 1079 817 b 1119 1039 1071 929 1090 1001 b 1197 1081 1149 1076 1181 1089 b 1210 1029 1215 1072 1226 1054 b 1183 976 1192 1003 1188 1007 m 897 976 b 1010 907 897 976 993 972 b 911 761 1028 843 985 765 b 789 874 846 760 794 817 b 833 1039 785 929 804 1001 b 913 1081 863 1076 894 1089 b 924 1029 929 1072 940 1054 b 897 976 907 1003 901 1007 "},"”":{"ha":0,"x_min":0,"x_max":0,"o":"m 210 868 b 97 938 210 868 114 872 b 197 1083 79 1003 124 1081 b 318 972 261 1086 314 1028 b 274 806 322 915 303 844 b 196 764 244 768 213 756 b 183 817 178 774 167 790 b 210 868 210 822 206 838 m 496 868 b 383 938 496 868 400 872 b 482 1083 365 1003 408 1081 b 603 972 547 1086 599 1028 b 558 806 608 915 588 844 b 481 764 529 768 499 756 b 469 817 464 772 451 790 b 496 868 486 842 490 838 "},"（":{"ha":0,"x_min":0,"x_max":0,"o":"m 1242 940 b 1096 522 1201 896 1100 746 b 1275 88 1093 300 1228 157 b 1289 -51 1321 18 1315 -28 b 1144 -49 1263 -75 1208 -97 b 901 499 1081 1 910 175 b 1106 1064 893 803 1039 1000 b 1275 1088 1172 1128 1233 1129 b 1242 940 1306 1056 1294 1000 "},"）":{"ha":0,"x_min":0,"x_max":0,"o":"m 158 940 b 125 1088 106 1000 94 1056 b 294 1064 167 1129 228 1128 b 499 499 361 1000 506 803 b 256 -49 490 175 319 1 b 111 -51 192 -97 138 -75 b 125 88 85 -28 79 18 b 304 522 172 157 307 300 b 158 940 300 746 199 896 "},"〔":{"ha":0,"x_min":0,"x_max":0,"o":"m 858 931 b 964 1053 853 1013 908 1039 b 1219 1108 1028 1071 1164 1101 b 1296 1019 1256 1113 1300 1067 b 1208 931 1292 969 1268 949 b 1031 879 1144 911 1031 879 b 1022 475 1046 875 1018 597 b 1024 185 1029 338 1024 185 b 1244 103 1032 171 1203 119 b 1207 -60 1336 68 1290 -79 b 957 11 1143 -46 1007 -10 b 850 117 911 31 858 43 b 858 931 857 183 861 865 "},"〕":{"ha":0,"x_min":0,"x_max":0,"o":"m 536 931 b 544 117 533 865 554 183 b 438 11 536 43 483 31 b 188 -60 388 -10 251 -46 b 150 103 104 -79 58 68 b 371 185 192 119 381 171 b 372 475 371 185 382 338 b 364 879 376 597 365 875 b 186 931 364 879 250 911 b 99 1019 126 949 103 969 b 175 1108 94 1067 139 1113 b 431 1053 231 1101 367 1071 b 536 931 486 1039 542 1013 "},"［":{"ha":0,"x_min":0,"x_max":0,"o":"m 892 1003 b 999 1125 888 1085 942 1125 b 1226 1124 1056 1125 1189 1124 b 1289 1036 1286 1121 1293 1083 b 1201 961 1285 985 1250 961 b 1072 958 1163 940 1072 958 b 1064 401 1075 935 1060 524 b 1065 111 1083 263 1065 111 b 1226 103 1085 97 1182 107 b 1288 25 1272 99 1288 61 b 1210 -61 1311 -25 1275 -57 b 999 -62 1157 -75 1047 -67 b 892 36 953 -76 900 -37 b 892 1003 888 94 896 938 "},"］":{"ha":0,"x_min":0,"x_max":0,"o":"m 497 1003 b 497 36 493 938 515 94 b 392 -62 490 -37 450 -76 b 179 -61 343 -67 246 -75 b 101 25 114 -57 115 -25 b 163 103 101 61 118 99 b 325 111 208 107 342 97 b 326 401 325 111 343 263 b 318 958 331 524 326 935 b 189 961 318 958 239 940 b 101 1036 139 961 104 985 b 164 1124 97 1083 142 1121 b 392 1125 200 1124 335 1125 b 497 1003 449 1125 503 1085 "},"｛":{"ha":0,"x_min":0,"x_max":0,"o":"m 1264 981 b 1203 871 1242 963 1203 918 b 1207 793 1203 850 1206 822 b 1211 631 1213 740 1218 681 b 1140 497 1203 574 1164 522 b 1197 365 1161 472 1193 425 b 1196 265 1200 336 1197 303 b 1208 100 1190 204 1186 135 b 1254 42 1226 72 1242 56 b 1286 -12 1269 25 1283 10 b 1271 -69 1289 -36 1283 -56 b 1211 -93 1258 -85 1238 -93 b 1056 88 1149 -93 1076 4 b 1053 251 1043 138 1049 199 b 1056 342 1056 286 1060 321 b 1022 403 1051 364 1038 383 b 983 476 1006 424 988 446 b 1042 603 975 526 996 569 b 1069 739 1061 617 1082 683 b 1101 1044 1058 789 1026 960 b 1224 1107 1150 1099 1199 1107 b 1285 1085 1250 1107 1274 1099 b 1297 1040 1294 1074 1299 1058 b 1264 981 1294 1018 1283 996 "},"｝":{"ha":0,"x_min":0,"x_max":0,"o":"m 132 981 b 100 1040 114 996 101 1018 b 113 1085 99 1058 103 1074 b 172 1107 124 1099 147 1107 b 294 1044 197 1107 247 1099 b 328 739 371 960 339 789 b 356 603 315 683 336 617 b 414 476 401 569 421 526 b 375 403 408 446 392 424 b 342 342 360 383 346 364 b 344 251 338 321 340 286 b 342 88 349 199 354 138 b 186 -93 321 4 249 -93 b 125 -69 160 -93 139 -85 b 111 -12 113 -56 108 -36 b 143 42 114 10 126 25 b 189 100 156 56 171 72 b 201 265 211 135 206 204 b 199 365 199 303 197 336 b 256 497 204 425 236 472 b 186 631 233 522 194 574 b 189 793 179 681 185 740 b 194 871 192 822 194 850 b 132 981 194 918 156 963 "},"〈":{"ha":0,"x_min":0,"x_max":0,"o":"m 1053 68 b 1058 -37 1074 35 1076 -6 b 974 -87 1040 -68 1008 -87 b 892 -46 943 -87 914 -72 b 569 381 854 0 664 233 b 560 613 544 419 492 501 b 875 1038 599 676 686 804 l 882 1049 b 965 1094 903 1078 933 1094 b 1053 1039 1001 1094 1036 1072 b 1046 935 1071 1007 1068 967 b 925 771 1024 904 978 842 b 743 521 854 676 775 569 b 740 482 729 499 732 494 b 947 208 783 414 874 300 b 1053 68 1007 132 1042 88 "},"〉":{"ha":0,"x_min":0,"x_max":0,"o":"m 817 613 b 807 381 885 501 832 419 b 485 -46 713 233 522 0 b 403 -87 463 -72 433 -87 b 318 -37 368 -87 335 -68 b 322 68 300 -6 301 35 b 429 208 335 88 369 132 b 636 482 501 300 592 414 b 633 521 644 494 647 499 b 450 771 601 569 521 676 b 331 935 397 842 351 904 b 324 1040 308 967 306 1007 b 411 1094 340 1072 375 1094 b 493 1049 443 1094 474 1078 l 501 1039 b 817 613 690 804 778 676 "},"《":{"ha":0,"x_min":0,"x_max":0,"o":"m 1036 1003 b 706 551 982 924 768 646 b 704 450 681 511 682 483 b 1043 3 786 324 1013 51 b 954 -60 1082 -61 1004 -121 b 607 399 921 -19 710 239 b 597 593 575 449 544 508 b 946 1064 701 765 943 1060 b 1036 1003 992 1132 1078 1064 m 1269 1003 b 940 551 1215 924 1001 646 b 938 450 914 511 915 483 b 1276 3 1019 324 1246 51 b 1188 -60 1315 -61 1238 -121 b 840 399 1154 -19 943 239 b 831 593 808 449 778 508 b 1179 1064 935 765 1176 1060 b 1269 1003 1225 1132 1311 1064 "},"》":{"ha":0,"x_min":0,"x_max":0,"o":"m 364 1003 b 454 1064 322 1064 408 1132 b 803 593 457 1060 699 765 b 793 399 856 508 825 449 b 446 -60 690 239 479 -19 b 357 3 396 -121 318 -61 b 696 450 388 51 614 324 b 693 551 718 483 719 511 b 364 1003 632 646 418 924 m 131 1003 b 221 1064 89 1064 175 1132 b 569 593 224 1060 465 765 b 560 399 622 508 592 449 b 213 -60 457 239 246 -19 b 124 3 163 -121 85 -61 b 463 450 154 51 381 324 b 460 551 485 483 486 511 b 131 1003 399 646 185 924 "},"「":{"ha":0,"x_min":0,"x_max":0,"o":"m 918 911 b 911 17 918 911 911 79 b 821 -72 914 -65 863 -72 b 735 13 779 -72 742 -50 b 728 976 728 74 728 915 b 867 1101 728 1039 785 1101 b 1211 1094 950 1099 1129 1104 b 1292 997 1267 1088 1292 1039 b 1174 917 1292 964 1250 919 b 918 911 1081 915 918 911 "},"」":{"ha":0,"x_min":0,"x_max":0,"o":"m 476 118 b 483 1013 476 118 483 950 b 574 1101 497 1067 532 1101 b 660 1017 615 1101 653 1079 b 667 51 667 954 667 114 b 528 -72 667 -10 610 -72 b 183 -65 461 -97 265 -75 b 103 31 128 -58 103 -10 b 221 111 103 65 144 110 b 476 118 314 114 476 118 "},"『":{"ha":0,"x_min":0,"x_max":0,"o":"m 1203 1094 b 1283 997 1258 1088 1283 1039 b 1165 917 1283 964 1242 919 b 908 911 1072 915 911 889 b 901 17 908 911 922 57 b 813 -72 901 -44 865 -74 b 726 13 771 -72 733 -50 b 719 976 719 74 719 915 b 858 1101 719 1039 776 1101 b 988 1101 890 1101 938 1101 b 1203 1094 1067 1101 1153 1100 m 1164 978 b 1222 1000 1201 979 1218 994 b 1196 1033 1221 1008 1218 1031 b 988 1040 1139 1040 1025 1040 b 910 1040 960 1040 933 1040 b 858 1040 890 1040 874 1040 b 781 976 807 1040 781 1003 b 786 19 781 529 782 60 b 813 -11 790 -11 801 -11 b 840 17 824 -11 840 -8 b 847 911 840 78 847 878 b 907 972 847 944 874 971 b 1164 978 907 972 1071 976 "},"』":{"ha":0,"x_min":0,"x_max":0,"o":"m 663 1017 b 669 51 669 956 669 114 b 531 -72 669 -10 613 -72 b 401 -72 499 -72 451 -72 b 186 -65 322 -72 236 -71 b 106 31 131 -58 106 -10 b 224 111 106 65 147 110 b 481 118 317 114 494 113 b 488 1013 481 118 508 944 b 576 1101 488 1074 535 1101 b 663 1017 618 1101 656 1079 m 531 -11 b 608 51 582 -11 608 25 b 603 1010 608 500 607 969 b 576 1040 599 1040 588 1040 b 549 1013 565 1040 549 1036 b 542 118 549 950 542 151 b 482 57 542 85 515 57 b 225 50 482 57 318 53 b 167 28 188 50 171 35 b 193 -4 168 21 171 -1 b 401 -11 250 -11 364 -11 b 479 -11 429 -11 456 -11 b 531 -11 499 -11 515 -11 "},"【":{"ha":0,"x_min":0,"x_max":0,"o":"m 892 1003 b 999 1125 888 1085 942 1125 b 1226 1124 1056 1125 1189 1124 b 1289 1036 1286 1121 1308 1079 b 1064 532 1263 974 1064 928 b 1288 25 1083 131 1268 92 b 1210 -61 1299 -11 1275 -57 b 999 -62 1157 -75 1047 -67 b 892 36 953 -76 900 -37 b 892 1003 888 94 896 938 "},"】":{"ha":0,"x_min":0,"x_max":0,"o":"m 504 1003 b 504 36 500 938 517 94 b 399 -62 497 -37 451 -76 b 186 -61 350 -67 272 -75 b 108 25 121 -57 99 -11 b 333 532 128 92 344 131 b 108 1036 333 928 135 974 b 171 1124 89 1079 143 1121 b 399 1125 207 1124 342 1125 b 504 1003 456 1125 510 1085 "},"＋":{"ha":0,"x_min":0,"x_max":0,"o":"m 1008 628 b 1138 544 1074 628 1133 618 b 1121 492 1139 524 1133 506 b 1000 454 1094 463 1044 457 b 786 453 972 453 854 453 b 782 168 785 313 783 189 b 697 71 778 88 733 71 b 603 181 644 71 603 118 b 603 282 603 192 603 229 b 601 453 601 329 601 389 b 351 456 482 453 374 454 b 250 532 263 460 250 504 b 356 629 250 588 292 625 b 497 631 369 631 429 631 b 600 631 528 631 563 631 b 601 897 600 764 600 881 b 678 1015 606 951 619 1008 b 786 911 738 1024 782 979 b 788 631 788 886 788 767 b 919 629 838 629 883 629 b 1008 628 965 629 999 628 "},"−":{"ha":0,"x_min":0,"x_max":0,"o":"m 1008 628 b 1138 544 1074 628 1133 618 b 1121 492 1139 524 1133 506 b 1000 454 1094 463 1044 457 b 772 453 969 453 838 453 b 351 456 607 453 385 454 b 250 532 263 460 250 504 b 356 629 250 588 292 625 b 497 631 369 631 429 631 b 919 629 617 631 814 629 b 1008 628 965 629 999 628 "},"±":{"ha":0,"x_min":0,"x_max":0,"o":"m 351 574 b 250 650 263 578 250 622 b 356 749 250 706 290 743 b 497 749 369 749 429 749 b 600 749 528 749 563 749 b 601 918 600 835 600 901 b 678 1036 606 972 618 1029 b 786 932 738 1044 782 1000 b 788 749 788 910 788 835 b 919 747 838 747 883 747 b 1008 746 965 747 999 746 b 1138 663 1072 746 1133 736 b 1121 610 1139 642 1133 624 b 1000 572 1094 582 1044 575 b 786 571 971 571 854 571 b 782 385 785 479 783 403 b 697 286 776 303 733 286 b 603 396 644 286 603 333 b 601 497 603 407 603 444 b 601 571 601 522 601 546 b 351 574 482 571 374 572 m 1008 225 b 1138 142 1072 225 1133 215 b 1121 89 1139 119 1133 103 b 1000 51 1094 60 1044 53 b 772 49 969 49 836 49 b 351 51 607 49 385 50 b 250 128 263 56 250 101 b 356 226 250 183 292 222 b 497 228 369 228 429 228 b 919 225 617 228 814 226 b 1008 225 965 225 999 225 "},"×":{"ha":0,"x_min":0,"x_max":0,"o":"m 949 417 b 1011 353 981 383 1004 360 b 1043 203 1057 307 1092 258 b 994 178 1029 186 1013 178 b 882 236 956 175 915 206 b 696 413 861 254 749 361 b 485 208 592 311 500 222 b 354 199 424 156 381 174 b 365 343 317 236 322 300 b 444 424 374 351 407 386 b 565 544 478 457 519 499 b 361 758 471 643 378 740 b 343 883 301 824 325 865 b 488 878 383 922 439 921 b 617 744 499 869 569 792 b 692 669 638 724 664 697 b 893 865 792 768 879 854 b 1031 894 935 901 983 932 b 1033 746 1078 858 1078 796 b 826 539 1017 726 928 638 b 949 417 875 490 919 446 "},"÷":{"ha":0,"x_min":0,"x_max":0,"o":"m 693 764 b 583 876 617 769 588 826 b 711 988 579 925 639 1001 b 804 872 783 975 804 925 b 693 764 804 818 756 760 m 693 96 b 583 207 617 101 588 158 b 711 319 579 257 639 333 b 804 203 782 306 804 257 b 693 96 804 150 756 92 m 1008 628 b 1138 544 1074 628 1133 618 b 1121 492 1139 524 1133 506 b 1000 454 1094 463 1044 457 b 772 453 969 453 838 453 b 351 456 607 453 385 454 b 250 532 263 460 250 504 b 356 629 250 588 292 625 b 497 631 369 631 429 631 b 919 629 617 631 814 629 b 1008 628 965 629 999 628 "},"＝":{"ha":0,"x_min":0,"x_max":0,"o":"m 421 643 b 296 719 339 649 303 671 b 404 831 288 785 339 826 b 983 831 490 826 922 835 b 1086 744 1061 801 1086 801 b 971 647 1094 679 1033 647 b 421 643 914 633 469 639 m 953 433 b 1090 347 1029 433 1086 419 b 940 256 1094 274 1018 260 b 393 257 864 251 457 254 b 286 333 325 260 286 285 b 399 435 286 393 333 431 b 953 433 463 439 901 433 "},"≠":{"ha":0,"x_min":0,"x_max":0,"o":"m 953 433 b 1090 347 1029 433 1086 419 b 940 256 1094 274 1018 260 b 635 254 900 253 763 253 b 569 147 603 200 578 160 b 433 103 517 67 458 88 b 401 243 382 133 369 181 b 408 257 403 246 406 250 b 393 257 403 257 397 257 b 286 333 325 260 286 285 b 399 435 286 393 333 431 b 515 436 415 436 460 436 b 636 643 551 496 594 571 b 421 643 533 642 442 640 b 296 719 339 649 303 671 b 404 831 288 785 339 826 b 749 833 442 833 604 833 b 799 915 774 875 793 906 b 950 988 835 975 878 1025 b 989 943 969 978 983 963 b 968 831 1000 910 986 869 b 983 831 975 831 981 831 b 1086 744 1044 826 1094 778 b 971 647 1086 688 1033 647 b 868 646 957 647 918 647 b 803 533 842 601 818 557 b 744 435 785 501 764 468 b 953 433 843 433 931 433 "},"＜":{"ha":0,"x_min":0,"x_max":0,"o":"m 960 803 b 514 531 907 772 558 557 b 1004 269 560 506 932 307 b 1082 156 1082 228 1082 196 l 1082 154 b 1000 74 1082 111 1038 74 b 850 129 965 74 931 82 b 765 176 833 139 803 156 b 335 432 621 260 378 397 b 283 543 296 463 269 489 b 379 657 293 589 339 625 l 385 661 b 825 943 450 714 732 886 l 850 958 b 996 1010 903 990 957 1010 b 1025 1004 1007 1010 1017 1008 b 1088 911 1069 989 1094 943 b 969 808 1079 871 1024 840 "},"＞":{"ha":0,"x_min":0,"x_max":0,"o":"m 1111 543 b 1060 432 1124 489 1097 463 b 628 176 1017 397 774 260 b 544 129 590 156 561 139 b 393 74 463 82 429 74 b 311 154 357 74 311 111 l 311 156 b 390 269 311 196 311 228 b 879 531 463 307 833 506 b 435 803 836 557 488 772 l 424 808 b 306 911 369 840 314 871 b 368 1004 300 943 324 989 b 399 1010 376 1008 388 1010 b 543 958 438 1010 492 990 l 568 943 b 1008 661 661 886 943 714 l 1014 657 b 1111 543 1054 625 1100 589 "},"≦":{"ha":0,"x_min":0,"x_max":0,"o":"m 1040 181 b 1181 100 1083 181 1175 181 b 1160 47 1182 79 1175 61 b 1032 14 1132 22 1079 17 b 735 13 999 13 761 13 b 333 21 557 13 336 21 b 221 94 235 24 221 68 b 338 186 221 147 267 183 b 481 188 350 188 404 188 b 754 183 547 188 653 186 b 951 181 832 182 904 181 l 968 181 b 1040 181 1006 181 1032 181 m 1185 431 b 1150 369 1185 406 1171 383 b 1181 313 1167 357 1179 339 b 1160 260 1182 292 1175 274 b 1032 226 1132 233 1079 228 b 735 225 999 225 761 225 b 333 232 557 225 336 232 b 221 307 235 236 221 281 b 338 399 221 358 267 394 b 481 400 350 400 404 400 b 754 396 547 400 653 397 b 951 392 832 394 904 393 l 968 392 b 975 392 971 392 972 392 b 963 396 971 393 967 394 b 874 426 932 407 900 418 b 265 633 801 447 310 606 b 210 736 232 656 201 682 b 332 849 219 799 289 829 b 885 1024 381 869 807 1003 b 947 1042 906 1029 926 1035 b 1125 1072 1015 1061 1079 1079 b 1174 1044 1147 1069 1164 1060 b 1182 974 1190 1021 1186 990 b 1065 897 1176 943 1138 918 b 490 725 897 849 590 758 b 722 650 538 708 628 681 b 1086 529 875 601 1047 546 b 1185 431 1158 500 1185 474 "},"≧":{"ha":0,"x_min":0,"x_max":0,"o":"m 1064 399 b 1182 307 1136 394 1182 358 b 1068 232 1182 281 1167 236 b 667 225 1067 232 846 225 b 371 226 640 225 403 225 b 242 260 322 228 269 233 b 221 313 226 274 219 292 b 251 369 222 339 235 357 b 218 431 231 383 218 406 b 315 529 218 474 244 500 b 679 650 354 546 526 601 b 911 725 774 681 864 710 b 336 897 811 758 506 849 b 219 974 264 918 226 943 b 228 1044 215 990 211 1021 b 276 1072 239 1060 254 1069 b 454 1042 324 1079 386 1061 b 518 1024 475 1035 496 1029 b 1071 849 594 1003 1022 869 b 1192 736 1113 829 1182 799 b 1136 633 1200 682 1169 656 b 528 426 1092 606 600 449 b 439 396 501 418 469 407 b 426 392 435 394 431 393 b 433 392 429 392 432 392 l 451 393 b 647 396 497 393 569 394 b 921 400 749 397 854 400 b 1064 399 999 400 1051 400 m 1064 186 b 1182 94 1136 183 1182 147 b 1068 21 1182 68 1167 24 b 667 13 1067 21 846 13 b 371 14 640 13 403 13 b 242 47 322 17 269 22 b 221 100 226 61 219 79 b 361 181 226 181 318 181 b 433 181 371 181 397 181 l 451 181 b 647 183 497 181 569 182 b 921 188 749 186 854 188 b 1064 186 999 188 1051 188 "},"∞":{"ha":0,"x_min":0,"x_max":0,"o":"m 700 700 b 896 811 700 700 789 808 b 1189 650 1003 813 1118 789 b 1151 260 1253 524 1225 333 b 832 196 1063 169 924 157 b 694 303 753 228 694 303 b 500 188 703 285 611 210 b 196 339 369 163 243 225 b 228 704 156 438 142 594 b 510 819 311 810 400 833 b 700 700 626 806 700 700 m 557 418 b 575 547 586 449 589 507 b 451 618 567 572 535 625 b 347 496 368 611 349 529 b 433 381 346 463 371 390 b 557 418 482 372 524 381 m 1021 418 b 1039 547 1049 449 1053 507 b 914 618 1029 572 997 625 b 810 496 831 611 811 529 b 896 381 810 463 833 390 b 1021 418 944 372 986 381 "},"∴":{"ha":0,"x_min":0,"x_max":0,"o":"m 694 758 b 583 869 618 763 589 821 b 711 982 579 919 640 994 b 806 865 783 968 806 919 b 694 758 806 811 757 753 m 310 60 b 200 172 233 65 204 122 b 328 283 196 221 257 297 b 421 167 400 271 421 221 b 310 60 421 114 372 56 m 1078 60 b 968 172 1001 65 972 122 b 1096 283 964 221 1024 297 b 1189 167 1167 271 1189 221 b 1078 60 1189 114 1140 56 "},"♂":{"ha":0,"x_min":0,"x_max":0,"o":"m 1172 651 b 1113 546 1185 606 1158 558 b 1047 554 1089 539 1067 543 b 1007 606 1028 564 1013 582 l 971 732 b 935 674 960 714 947 694 b 835 501 896 603 861 544 b 874 100 933 400 947 263 b 679 -61 843 31 768 -32 b 404 -37 585 -92 486 -83 b 379 -22 396 -33 388 -28 b 279 447 199 100 200 307 b 683 593 350 574 535 635 b 758 722 710 640 742 693 b 811 808 789 776 800 793 l 701 779 b 596 839 656 767 608 793 b 657 944 583 885 611 932 l 978 1031 b 1082 971 1022 1043 1069 1017 l 1172 651 m 714 178 b 667 399 751 243 750 336 b 653 408 663 401 657 406 b 653 408 653 408 653 408 b 525 414 604 435 557 426 b 436 343 488 399 453 371 b 474 136 401 281 400 193 b 490 126 479 132 485 129 b 714 178 569 81 679 117 "},"♀":{"ha":0,"x_min":0,"x_max":0,"o":"m 958 324 b 1086 240 1022 324 1082 314 b 1069 188 1088 218 1082 201 b 949 150 1044 158 994 151 b 782 147 925 149 847 147 b 782 107 782 138 782 124 b 781 18 782 60 781 28 b 697 -111 781 -47 771 -107 b 644 -94 676 -112 658 -107 b 607 26 615 -69 610 -19 b 606 147 606 44 606 96 b 404 150 503 149 428 150 b 303 226 315 154 303 200 b 408 325 303 282 344 321 b 606 326 417 325 518 326 b 606 369 606 346 606 358 b 350 706 456 401 368 517 b 442 940 343 781 378 871 b 693 1056 510 1014 599 1056 b 721 1054 703 1056 713 1054 b 1039 694 940 1036 1039 854 b 783 375 1039 556 924 421 b 783 326 783 363 783 346 b 875 324 811 325 801 325 b 958 324 922 324 947 324 m 696 544 b 808 603 750 544 786 576 b 851 708 835 633 851 675 b 717 869 851 779 810 856 b 699 871 711 871 704 871 b 528 715 607 871 528 785 b 678 546 528 640 575 560 b 696 544 683 546 689 544 b 696 544 696 544 696 544 "},"°":{"ha":0,"x_min":0,"x_max":0,"o":"m 272 719 b 113 896 153 729 119 818 b 300 1071 106 972 188 1092 b 461 889 413 1050 461 972 b 272 719 481 796 371 713 m 338 903 b 292 958 338 926 324 954 b 226 904 258 963 226 933 b 278 846 231 853 244 850 b 338 903 315 842 338 879 "},"′":{"ha":0,"x_min":0,"x_max":0,"o":"m 249 1025 b 369 1064 288 1071 321 1089 b 386 921 419 1038 422 968 b 232 782 350 874 276 815 b 150 868 192 750 118 789 b 249 1025 172 925 221 992 "},"″":{"ha":0,"x_min":0,"x_max":0,"o":"m 238 1025 b 358 1064 276 1071 310 1089 b 375 921 408 1038 411 968 b 221 782 339 874 264 815 b 138 868 181 750 106 789 b 238 1025 161 925 208 992 m 488 1025 b 608 1064 526 1071 560 1089 b 625 921 658 1038 661 968 b 471 782 589 874 514 815 b 388 868 431 750 356 789 b 488 1025 411 925 458 992 "},"℃":{"ha":0,"x_min":0,"x_max":0,"o":"m 268 754 b 121 917 158 761 128 844 b 294 1079 114 989 190 1099 b 444 910 399 1060 444 989 b 268 754 444 832 360 747 m 329 924 b 286 975 329 944 317 971 b 225 925 256 979 225 951 b 274 871 231 894 243 875 b 329 924 308 867 329 901 m 1083 267 b 1168 224 1119 267 1146 253 b 1192 124 1193 192 1201 157 b 1093 29 1182 86 1147 51 b 903 3 1053 13 982 3 b 613 58 783 3 675 24 b 367 594 524 108 325 260 b 821 1049 408 918 661 1043 b 838 1049 826 1049 832 1049 b 1186 910 999 1049 1143 976 b 1183 764 1231 840 1210 797 b 1113 732 1168 743 1142 732 b 1025 760 1085 732 1054 742 b 878 799 985 785 933 799 b 800 789 851 799 825 794 b 613 558 726 771 619 681 b 713 299 604 443 636 361 b 914 242 761 260 851 242 b 946 243 925 242 936 243 b 1008 254 967 246 988 250 b 1083 267 1035 261 1060 267 "},"￥":{"ha":0,"x_min":0,"x_max":0,"o":"m 1139 982 b 1117 890 1144 951 1136 918 b 1038 796 1101 869 1069 832 b 983 732 1018 774 997 751 b 844 571 953 697 882 608 b 861 571 850 571 856 571 b 943 567 896 571 924 569 b 1014 482 989 560 1014 529 b 935 392 1014 443 993 396 b 882 390 921 390 903 390 b 808 392 853 390 824 392 l 808 346 b 928 346 835 347 897 349 b 1014 267 983 342 1014 303 b 918 181 1014 225 981 181 b 811 179 876 181 832 179 b 808 88 811 156 811 129 b 707 -12 804 31 785 -8 b 701 -12 706 -12 703 -12 b 604 83 649 -12 608 26 b 600 179 601 122 601 154 b 472 183 572 181 503 183 b 393 258 426 183 393 215 b 475 346 393 297 421 340 b 540 347 489 347 511 347 b 603 346 565 347 589 347 l 603 389 b 492 390 579 389 524 390 b 396 478 439 390 397 429 b 425 544 394 501 406 524 b 488 576 444 564 468 576 b 565 575 506 576 540 575 b 415 749 529 613 456 703 b 372 796 400 765 386 782 b 296 894 340 831 314 858 b 317 1040 268 949 276 1000 b 369 1058 328 1051 347 1058 b 478 1010 401 1058 449 1046 b 715 749 513 968 675 793 b 919 979 753 789 893 943 b 1043 1056 933 997 981 1056 b 1093 1042 1061 1056 1078 1050 b 1139 982 1117 1028 1133 1007 "},"＄":{"ha":0,"x_min":0,"x_max":0,"o":"m 790 554 b 1018 253 910 492 1042 389 b 772 33 996 129 911 54 b 767 8 771 22 768 13 b 690 -35 751 -24 717 -35 b 657 -28 678 -35 667 -33 b 608 35 632 -17 615 6 b 407 129 506 50 453 93 l 399 135 b 356 218 371 157 354 188 b 397 290 356 236 363 265 b 453 310 415 303 433 310 b 542 278 481 310 513 294 b 606 247 553 272 576 260 b 608 439 607 315 607 379 b 379 629 489 496 418 546 b 440 913 335 724 361 843 b 614 992 494 960 557 982 b 635 1043 614 1011 621 1028 b 708 1078 653 1064 683 1078 b 765 1051 729 1078 749 1068 b 793 988 782 1033 792 1011 b 851 972 814 985 833 979 b 1008 804 967 932 1008 858 b 889 735 1008 739 936 715 b 842 767 869 743 856 754 b 792 800 828 778 814 790 b 792 724 792 775 792 750 b 790 554 792 668 790 610 m 557 733 b 611 646 549 707 568 676 b 613 800 611 704 613 757 b 557 733 588 789 567 768 m 824 256 b 831 307 833 275 836 292 b 789 353 825 324 808 339 b 788 314 788 335 788 321 b 786 222 788 313 788 272 b 824 256 803 229 815 239 "},"￠":{"ha":0,"x_min":0,"x_max":0,"o":""},"￡":{"ha":0,"x_min":0,"x_max":0,"o":""},"％":{"ha":0,"x_min":0,"x_max":0,"o":"m 1093 982 b 1079 836 1139 926 1106 876 l 1078 833 b 768 457 1060 807 899 613 b 617 275 699 374 639 301 l 599 251 b 418 42 539 178 465 88 b 353 15 400 24 378 15 b 282 40 324 15 297 28 b 301 183 251 67 260 126 b 494 424 325 215 411 322 b 672 644 567 513 640 603 b 856 864 717 703 797 796 b 924 946 885 899 910 928 b 1035 1013 958 988 999 1013 b 1093 982 1057 1013 1078 1001 m 611 939 b 629 683 658 871 667 764 b 439 565 604 626 533 565 b 424 567 435 565 429 565 b 207 724 306 574 231 629 b 331 1010 183 817 218 949 b 424 1033 360 1025 390 1033 b 611 939 503 1033 578 986 m 486 772 b 471 850 496 800 489 835 b 438 860 463 857 450 860 b 367 818 406 860 371 840 b 382 753 363 800 367 772 b 425 733 393 740 408 733 b 486 772 467 733 482 758 m 1172 308 b 1093 60 1208 213 1146 103 b 956 14 1058 31 1006 14 b 865 33 922 14 892 21 b 735 246 793 69 735 165 b 906 463 735 353 797 431 b 963 471 925 468 944 471 b 1172 308 1054 471 1136 407 m 953 303 b 897 236 913 303 897 256 b 954 179 897 217 921 179 b 958 179 956 179 957 179 b 1017 250 1004 183 1018 221 b 953 303 1015 272 992 303 "},"＃":{"ha":0,"x_min":0,"x_max":0,"o":"m 1065 664 b 1040 664 1060 664 1051 664 b 1001 415 1028 586 1014 499 b 1057 413 1028 414 1047 414 b 1163 294 1126 408 1164 356 b 1025 190 1161 242 1119 190 b 964 190 1013 190 990 190 b 939 67 953 128 944 82 b 833 -17 919 -3 883 -17 b 740 103 783 -17 733 18 b 753 192 742 117 747 149 b 538 194 682 193 607 193 b 517 90 529 142 521 104 b 406 -14 497 26 461 -14 b 311 124 351 -14 301 35 b 322 197 313 138 317 164 b 304 199 314 199 308 199 b 176 311 215 206 181 254 b 325 421 176 367 236 421 b 358 421 333 421 344 421 b 401 669 372 503 388 590 b 357 671 381 671 365 671 b 224 779 263 678 228 719 b 363 901 218 839 278 901 b 444 901 376 901 406 901 b 450 926 446 913 449 921 b 582 1076 469 1017 492 1086 b 661 917 657 1068 676 986 b 658 900 661 913 660 907 b 869 897 729 899 803 899 b 878 943 874 919 876 936 b 1003 1058 893 1044 953 1068 b 1083 933 1053 1049 1093 999 b 1076 892 1082 926 1079 911 b 1083 890 1079 890 1081 890 b 1189 769 1157 882 1194 814 b 1065 664 1185 724 1139 664 m 790 418 b 831 665 803 499 818 586 b 618 667 763 665 688 667 b 578 419 606 589 592 501 b 790 418 646 419 721 418 "},"＆":{"ha":0,"x_min":0,"x_max":0,"o":"m 1154 143 b 1113 40 1171 100 1143 61 b 1007 42 1088 22 1042 24 b 958 78 990 50 971 65 b 715 -33 921 43 831 -29 b 699 -33 710 -33 704 -33 b 346 143 571 -33 406 22 b 353 426 303 235 306 335 b 465 554 381 481 435 529 b 385 669 443 578 407 622 b 385 910 347 753 347 829 b 665 1076 431 1008 543 1076 b 764 1060 700 1076 733 1071 b 957 765 913 1007 961 872 b 832 563 954 675 890 597 b 775 526 813 553 790 538 b 938 371 840 463 908 397 b 1014 404 956 385 983 404 l 1017 404 b 1124 314 1068 401 1117 360 b 1097 215 1129 279 1117 240 b 1154 143 1117 197 1144 169 m 640 676 b 735 811 713 715 747 764 b 650 875 726 849 690 875 b 626 872 642 875 633 875 b 579 832 611 868 590 854 b 575 771 569 814 568 793 b 640 676 589 726 622 692 m 597 415 b 521 292 571 396 517 347 b 661 164 526 221 578 174 b 799 225 725 156 776 201 l 597 415 "},"＊":{"ha":0,"x_min":0,"x_max":0,"o":"m 1053 411 b 1118 253 1129 356 1165 326 b 1113 244 1117 250 1114 247 b 939 250 1072 193 1011 206 b 793 353 919 263 864 301 b 790 192 792 260 790 192 b 696 47 789 100 786 54 b 686 46 693 46 689 46 b 588 182 619 46 593 101 b 586 347 586 204 585 267 b 458 254 511 293 458 254 b 281 235 382 199 343 172 b 274 243 278 238 275 240 b 324 400 232 292 261 346 b 519 549 346 419 424 478 b 336 678 433 611 361 663 b 247 782 297 703 254 742 b 274 858 240 817 251 832 b 460 843 332 932 396 883 b 588 751 474 833 522 799 b 586 899 588 822 588 878 b 621 1029 583 943 590 999 b 700 1056 646 1054 665 1056 b 799 903 797 1054 794 976 b 799 758 799 888 799 832 b 913 846 853 800 896 832 b 1040 901 947 876 997 906 b 1113 858 1078 899 1090 885 b 1047 690 1171 785 1106 738 b 863 551 1032 676 956 619 b 1053 411 968 474 1053 411 "},"＠":{"ha":0,"x_min":0,"x_max":0,"o":"m 1064 933 b 1197 522 1215 796 1213 617 b 1000 317 1181 413 1103 332 b 951 313 983 314 968 313 b 854 332 900 313 865 326 b 724 307 824 315 776 307 b 615 321 686 307 647 311 b 461 524 540 342 458 414 b 688 758 464 676 581 753 b 926 628 789 764 896 706 b 943 507 950 571 946 526 b 1008 543 975 503 996 515 b 958 767 1010 547 1057 667 b 711 863 897 828 807 863 b 631 853 682 863 656 860 b 390 624 535 828 415 753 b 497 290 365 490 408 357 b 799 217 576 231 742 217 b 879 231 819 217 849 224 b 993 246 919 240 964 250 b 1051 206 1018 242 1039 228 b 1056 124 1064 182 1067 150 b 872 31 1042 85 979 54 b 754 19 838 24 796 19 b 436 90 678 19 561 32 b 190 600 257 174 161 374 b 481 1006 214 775 322 926 b 704 1050 538 1035 617 1050 b 1064 933 849 1050 983 1006 m 776 515 b 778 575 783 529 788 554 b 747 606 772 589 763 599 b 708 614 733 611 721 614 b 624 546 669 614 636 588 b 628 497 617 528 618 511 b 690 461 639 479 664 464 b 776 515 719 457 758 474 "},"§":{"ha":0,"x_min":0,"x_max":0,"o":""},"☆":{"ha":0,"x_min":0,"x_max":0,"o":"m 1007 357 b 1090 96 1007 357 1067 181 b 1097 29 1100 65 1097 43 b 1001 -53 1097 -24 1054 -53 b 1000 -53 1001 -53 1001 -53 b 944 -35 981 -53 961 -47 l 694 131 l 474 -21 b 332 -35 439 -46 365 -60 b 296 72 299 -11 294 40 b 381 364 299 93 381 364 l 160 531 b 119 654 111 567 107 614 b 211 719 133 693 178 719 l 490 726 l 603 1014 b 694 1079 617 1053 653 1079 b 786 1014 751 1056 772 1053 l 892 726 l 1178 719 b 1269 654 1219 714 1256 693 b 1235 539 1282 614 1268 564 m 894 204 b 894 211 894 207 894 208 b 839 383 878 267 839 383 b 861 461 829 413 838 443 l 1011 581 l 825 586 b 761 632 796 586 771 604 l 693 814 l 621 631 b 557 586 611 604 586 586 l 374 581 b 375 579 374 581 375 581 l 525 467 b 549 389 549 449 558 418 b 494 208 526 317 499 229 b 494 206 494 207 494 207 b 504 210 499 207 503 208 l 654 311 b 693 324 665 319 679 324 b 732 313 707 324 721 321 l 894 204 "},"★":{"ha":0,"x_min":0,"x_max":0,"o":"m 1007 357 b 1090 96 1007 357 1067 181 b 1097 29 1100 65 1097 43 b 1001 -53 1097 -24 1054 -53 b 1000 -53 1001 -53 1001 -53 b 944 -35 981 -53 961 -47 l 694 131 l 474 -21 b 332 -35 439 -46 365 -60 b 296 72 299 -11 294 40 b 381 364 299 93 381 364 l 160 531 b 119 654 111 567 107 614 b 211 719 133 693 178 719 l 490 726 l 603 1014 b 694 1079 617 1053 653 1079 b 786 1014 751 1056 772 1053 l 892 726 l 1178 719 b 1269 654 1219 714 1256 693 b 1235 539 1282 614 1268 564 "},"○":{"ha":0,"x_min":0,"x_max":0,"o":"m 661 -60 b 165 485 290 -33 188 246 b 749 1031 143 725 394 1061 b 1247 464 1081 1003 1247 725 b 661 -60 1247 201 967 -82 m 1013 486 b 750 801 1013 617 933 775 b 383 500 567 826 383 657 b 672 172 383 342 486 196 b 1013 486 881 146 1013 356 "},"●":{"ha":0,"x_min":0,"x_max":0,"o":"m 661 -60 b 165 485 290 -33 188 246 b 749 1031 143 725 394 1061 b 1247 464 1081 1003 1247 725 b 661 -60 1247 201 967 -82 "},"◎":{"ha":0,"x_min":0,"x_max":0,"o":"m 661 -60 b 165 485 290 -33 188 246 b 749 1031 143 725 394 1061 b 1247 464 1081 1003 1247 725 b 661 -60 1247 201 967 -82 m 1013 486 b 750 801 1013 617 933 775 b 383 500 567 826 383 657 b 672 172 383 342 486 196 b 1013 486 881 146 1013 356 m 703 239 b 686 239 697 239 692 239 b 461 478 556 249 474 335 b 525 651 456 536 479 601 b 725 732 578 708 649 739 b 951 479 874 719 951 596 b 703 239 951 353 833 239 m 706 561 b 651 536 679 561 661 546 b 632 493 635 518 631 500 b 699 410 639 414 674 413 b 781 479 740 407 781 453 b 711 561 781 488 778 556 b 706 561 710 561 707 561 "},"◇":{"ha":0,"x_min":0,"x_max":0,"o":"m 169 396 b 175 640 94 482 108 571 b 571 1029 235 704 492 954 b 806 1028 642 1097 717 1108 b 1225 575 894 947 1161 643 b 1189 347 1290 507 1268 426 b 803 -39 1110 268 863 25 b 583 -33 742 -104 656 -99 b 169 396 511 31 221 336 m 650 164 b 726 160 686 135 701 135 b 1024 449 751 185 1006 432 b 1025 524 1040 465 1060 489 b 751 824 990 557 772 803 b 685 850 731 844 708 869 b 363 546 663 831 392 575 b 375 450 335 517 332 493 b 650 164 401 424 614 193 "},"◆":{"ha":0,"x_min":0,"x_max":0,"o":"m 169 396 b 175 640 94 482 108 571 b 571 1029 235 704 492 954 b 806 1028 642 1097 717 1108 b 1225 575 894 947 1161 643 b 1189 347 1290 507 1268 426 b 803 -39 1110 268 863 25 b 583 -33 742 -104 656 -99 b 169 396 511 31 221 336 "},"□":{"ha":0,"x_min":0,"x_max":0,"o":"m 189 849 b 390 1040 197 978 281 1038 b 1019 1035 490 1043 897 1038 b 1208 844 1132 1032 1203 981 b 1199 128 1214 708 1201 233 b 985 -26 1196 21 1113 -26 b 365 -26 858 -26 465 -24 b 193 154 264 -29 199 44 b 189 849 188 264 183 760 m 396 251 b 457 185 403 197 415 185 b 942 178 499 185 913 178 b 1004 239 969 178 1004 182 b 1010 732 1004 296 1010 697 b 976 808 1010 767 1011 804 b 464 817 942 811 511 817 b 394 729 417 817 394 799 b 396 251 394 685 390 306 "},"■":{"ha":0,"x_min":0,"x_max":0,"o":"m 189 849 b 390 1040 197 978 281 1038 b 1019 1035 490 1043 897 1038 b 1208 844 1132 1032 1203 981 b 1199 128 1214 708 1201 233 b 985 -26 1196 21 1113 -26 b 365 -26 858 -26 465 -24 b 193 154 264 -29 199 44 b 189 849 188 264 183 760 "},"△":{"ha":0,"x_min":0,"x_max":0,"o":"m 228 -11 b 119 210 115 -11 33 64 b 599 1013 165 288 518 936 b 840 985 663 1072 772 1072 b 1282 200 922 876 1224 301 b 1201 -11 1342 96 1313 -11 b 228 -11 1090 -11 342 -11 m 1056 165 b 1072 235 1096 165 1097 194 b 757 799 1046 276 778 776 b 682 810 735 819 706 831 b 331 236 658 790 353 271 b 357 168 293 182 322 168 b 1056 165 396 163 1017 165 "},"▲":{"ha":0,"x_min":0,"x_max":0,"o":"m 228 -11 b 119 210 115 -11 33 64 b 599 1013 165 288 518 936 b 840 985 663 1072 772 1072 b 1282 200 922 876 1224 301 b 1201 -11 1342 96 1313 -11 b 228 -11 1090 -11 342 -11 "},"▽":{"ha":0,"x_min":0,"x_max":0,"o":"m 1182 1047 b 1290 826 1294 1047 1376 972 b 811 24 1244 749 892 101 b 569 51 747 -36 638 -36 b 128 838 488 160 186 735 b 208 1047 68 940 97 1047 b 1182 1047 319 1047 1068 1047 m 354 871 b 338 801 314 871 313 842 b 653 239 364 760 632 260 b 728 226 675 217 704 207 b 1079 800 751 246 1057 765 b 1053 869 1117 856 1088 869 b 354 871 1026 854 393 871 "},"▼":{"ha":0,"x_min":0,"x_max":0,"o":"m 1182 1047 b 1290 826 1294 1047 1376 972 b 811 24 1244 749 892 101 b 569 51 747 -36 636 -36 b 128 838 488 160 186 735 b 208 1047 68 940 97 1047 b 1182 1047 319 1047 1068 1047 "},"※":{"ha":0,"x_min":0,"x_max":0,"o":"m 385 621 b 382 464 424 582 431 506 b 224 465 324 414 263 433 b 235 638 185 497 174 596 b 385 621 296 679 347 660 m 625 860 b 636 1032 586 892 588 985 b 786 1015 697 1074 749 1054 b 783 858 825 976 832 900 b 625 860 725 808 664 828 m 628 251 b 778 235 689 293 740 274 b 775 78 817 196 824 119 b 617 79 717 28 656 47 b 628 251 578 111 567 210 m 1165 622 b 1163 465 1204 583 1211 507 b 1004 467 1104 415 1053 418 b 1015 639 965 499 954 597 b 1165 622 1076 681 1128 661 m 824 551 b 1024 346 924 450 1011 361 b 1033 215 1079 283 1060 240 b 888 225 996 176 932 182 b 814 299 879 233 851 261 b 692 419 781 332 738 374 b 510 242 606 335 528 258 b 383 225 444 182 403 206 b 389 371 343 264 346 321 b 489 474 397 381 440 424 b 563 547 511 494 536 519 b 374 739 467 642 385 725 b 343 878 338 781 307 829 b 494 881 381 926 444 925 b 697 679 514 864 600 778 b 793 774 733 715 767 749 b 857 838 826 807 850 831 b 1010 869 903 883 953 918 b 1035 819 1025 854 1033 838 b 975 706 1038 781 1006 740 b 824 551 957 685 872 600 "},"〒":{"ha":0,"x_min":0,"x_max":0,"o":"m 368 776 b 219 872 300 782 229 797 b 243 958 215 904 224 935 b 350 1007 267 986 306 1004 b 699 1011 388 1010 535 1011 b 1046 1007 863 1011 1010 1010 b 1169 901 1147 1001 1169 946 b 1031 782 1169 835 1108 782 b 893 781 1011 782 979 781 b 444 775 738 778 560 775 b 368 776 403 775 378 775 m 1010 697 b 1174 592 1092 697 1168 685 b 1153 526 1175 565 1168 543 b 999 478 1121 489 1056 481 b 797 475 961 476 871 475 b 796 190 797 394 796 275 b 796 106 796 151 796 121 b 708 -35 796 42 763 -29 b 697 -35 704 -35 701 -35 b 589 72 650 -35 592 -7 b 586 476 585 133 586 354 b 338 479 465 476 367 478 b 210 575 226 485 210 542 b 343 700 210 646 263 694 b 492 701 361 701 410 701 b 932 699 632 701 807 700 b 1010 697 990 699 997 697 "},"→":{"ha":0,"x_min":0,"x_max":0,"o":"m 1199 499 b 1188 400 1224 472 1224 428 b 865 218 1143 367 907 243 b 778 251 822 194 778 206 b 778 375 778 268 778 317 b 535 376 690 378 593 381 b 304 378 433 367 360 382 b 172 454 244 375 172 379 b 285 539 174 528 236 539 b 654 540 335 539 561 538 b 779 542 688 542 732 542 b 779 651 779 594 779 636 b 869 696 779 697 810 732 b 1199 499 901 678 1168 532 "},"←":{"ha":0,"x_min":0,"x_max":0,"o":"m 1085 539 b 1217 464 1144 542 1232 533 b 1104 378 1215 389 1153 378 b 700 376 1054 378 793 379 b 611 375 674 375 642 375 b 611 265 611 322 611 281 b 519 221 611 219 579 185 b 190 418 488 239 221 385 b 201 517 165 444 165 489 b 524 699 246 550 482 674 b 611 665 567 722 611 711 b 611 542 611 649 611 600 b 875 540 707 539 815 536 b 1085 539 976 550 1029 535 "},"↑":{"ha":0,"x_min":0,"x_max":0,"o":"m 935 685 b 901 597 958 642 947 597 b 778 597 885 597 836 597 b 776 319 775 497 772 381 b 775 124 786 218 771 179 b 700 -8 778 64 774 -8 b 614 104 625 -7 614 56 b 613 474 614 154 615 381 b 611 597 611 507 611 551 b 501 597 558 597 517 597 b 457 689 456 597 421 629 b 654 1018 475 721 621 986 b 753 1007 681 1043 725 1043 b 935 685 786 963 910 726 "},"↓":{"ha":0,"x_min":0,"x_max":0,"o":"m 888 394 b 932 304 933 394 968 364 b 735 -25 914 272 768 6 b 636 -14 708 -50 664 -50 b 454 308 603 31 479 267 b 488 394 431 351 442 394 b 611 394 504 394 553 394 b 613 674 614 496 617 613 b 614 904 603 775 618 849 b 689 1036 611 964 619 1017 b 775 924 764 1035 775 972 b 776 519 775 874 774 613 b 778 394 778 486 778 442 b 888 394 831 394 872 394 "},"〓":{"ha":0,"x_min":0,"x_max":0,"o":"m 906 853 b 1081 703 1050 844 1081 767 b 886 536 1081 610 994 536 b 763 533 858 536 882 535 b 582 526 543 531 743 526 b 503 528 524 526 515 528 b 293 664 407 536 307 558 b 325 783 288 708 299 750 b 478 853 358 824 414 850 b 640 858 531 857 411 858 b 906 853 872 858 857 857 m 864 381 b 1093 232 978 381 1086 363 b 1064 139 1096 194 1086 164 b 846 72 1018 88 928 76 b 719 68 792 69 826 68 b 467 74 440 68 529 71 b 285 208 308 81 285 161 b 475 383 285 307 360 376 b 654 386 499 385 539 386 b 794 382 853 386 619 383 b 864 381 876 382 846 381 "},"∈":{"ha":0,"x_min":0,"x_max":0,"o":"m 1092 250 b 1199 158 1154 250 1199 217 b 1081 71 1199 104 1154 71 b 549 81 1014 71 617 74 b 218 469 424 92 240 178 b 593 889 218 744 399 876 b 1079 900 717 897 1018 900 b 1199 800 1154 900 1199 863 b 1199 797 1199 799 1199 799 b 1078 711 1197 736 1156 711 b 1013 714 1063 711 1040 713 b 596 700 915 717 656 724 b 422 567 549 682 460 653 b 692 568 486 568 638 568 b 1093 558 857 568 1060 560 b 1194 482 1181 554 1194 508 b 1089 383 1194 426 1153 388 b 946 382 1075 383 1015 382 b 476 392 828 382 582 390 b 417 392 453 392 432 392 b 604 258 450 300 536 267 b 1015 249 661 250 913 247 b 1092 250 1050 250 1076 250 "},"∋":{"ha":0,"x_min":0,"x_max":0,"o":"m 842 892 b 1172 501 967 881 1193 757 b 797 82 1172 228 992 94 b 311 71 674 74 372 71 b 192 171 236 71 192 108 b 192 175 192 172 192 174 b 313 260 193 236 235 260 b 376 258 328 260 349 258 b 794 271 474 254 733 249 b 968 404 842 289 931 319 b 697 403 904 403 751 403 b 297 413 533 403 331 411 b 196 489 208 417 196 463 b 301 588 196 544 238 583 b 444 589 315 589 375 589 b 914 579 563 589 808 581 b 972 579 938 579 957 579 b 786 714 940 671 854 706 b 374 722 729 721 476 725 b 299 721 340 722 314 721 b 192 813 235 721 192 756 b 310 900 192 868 236 900 b 842 892 376 900 774 897 "},"⊆":{"ha":0,"x_min":0,"x_max":0,"o":"m 513 276 b 213 604 408 285 213 364 b 551 958 213 850 394 949 b 1051 967 663 965 1008 967 b 1168 874 1124 967 1168 931 l 1168 871 b 1050 790 1165 799 1100 790 b 999 792 1039 790 1021 790 l 993 792 b 803 794 954 793 876 794 b 558 781 621 794 571 786 l 550 778 b 399 611 493 758 399 724 b 563 444 399 478 513 450 b 931 436 601 440 807 436 b 996 438 957 436 981 438 l 1001 438 b 1063 438 1029 438 1050 438 b 1168 351 1126 438 1168 404 b 1053 269 1168 301 1124 269 b 513 276 999 269 574 271 m 1040 192 b 1168 108 1104 192 1164 182 b 1151 56 1169 88 1164 69 b 1031 18 1126 26 1076 21 b 735 17 1001 17 799 17 b 333 26 569 17 367 25 b 232 103 246 31 232 75 b 339 200 232 158 274 196 b 481 201 351 201 413 201 b 951 193 600 201 846 193 b 1040 192 997 193 1031 192 "},"⊇":{"ha":0,"x_min":0,"x_max":0,"o":"m 833 444 b 997 611 883 450 997 478 b 846 778 997 724 903 758 l 838 781 b 593 794 824 786 775 794 b 403 792 518 794 442 793 l 397 792 b 346 790 375 790 357 790 b 228 871 296 790 231 799 l 228 874 b 344 967 228 931 272 967 b 844 958 386 967 733 965 b 1183 604 1001 949 1183 850 b 883 276 1183 364 988 285 b 343 269 822 271 397 269 b 228 351 272 269 228 301 b 333 438 228 404 269 438 b 394 438 346 438 367 438 l 400 438 b 465 436 415 438 439 436 b 833 444 589 436 794 440 m 1035 199 b 1163 115 1099 199 1158 189 b 1146 63 1164 94 1158 76 b 1025 25 1121 33 1071 28 b 750 17 996 24 814 17 b 328 19 585 17 363 18 b 226 96 240 24 226 68 b 333 186 226 151 268 182 b 475 188 346 188 407 188 b 946 200 594 188 840 200 b 1035 199 992 200 1025 199 "},"⊂":{"ha":0,"x_min":0,"x_max":0,"o":"m 1199 158 b 1081 71 1199 104 1154 71 b 549 81 1014 71 617 74 b 218 469 424 92 240 178 b 593 889 218 744 399 876 b 1079 900 717 897 1018 900 b 1199 800 1154 900 1199 863 b 1199 797 1199 799 1199 799 b 1078 711 1197 736 1156 711 b 1013 714 1063 711 1040 713 b 596 700 915 717 656 724 b 403 476 535 676 415 633 b 604 258 403 319 518 269 b 1015 249 661 250 913 247 b 1092 250 1050 250 1076 250 b 1199 158 1154 250 1199 217 "},"⊃":{"ha":0,"x_min":0,"x_max":0,"o":"m 190 158 b 297 250 190 217 235 250 b 372 249 313 250 339 250 b 785 258 476 247 728 250 b 986 476 871 269 986 319 b 793 700 992 633 854 676 b 376 714 733 724 474 717 b 311 711 349 713 326 711 b 190 797 233 711 192 736 b 190 800 190 799 190 799 b 310 900 190 863 235 900 b 796 889 371 900 672 897 b 1171 469 990 876 1171 744 b 840 81 1190 178 965 92 b 308 71 772 74 375 71 b 190 158 235 71 190 104 "},"∪":{"ha":0,"x_min":0,"x_max":0,"o":"m 1036 976 b 1122 858 1090 976 1124 932 b 1114 326 1122 792 1119 394 b 725 -4 1103 201 1008 -11 b 304 371 450 -4 318 176 b 293 857 296 494 293 796 b 393 976 293 932 331 976 b 397 976 394 976 396 976 b 482 854 458 974 482 933 b 481 790 482 840 482 818 b 493 374 476 693 471 433 b 718 181 518 313 578 164 b 936 381 875 181 925 296 b 946 793 943 438 947 690 b 944 869 944 828 944 854 b 1036 976 944 932 978 976 "},"∩":{"ha":0,"x_min":0,"x_max":0,"o":"m 1008 -4 b 917 101 950 -4 917 39 b 918 178 917 118 917 144 b 908 590 919 281 915 533 b 690 790 897 675 847 790 b 467 599 532 790 490 660 b 453 181 443 538 449 278 b 454 117 454 153 454 131 b 369 -4 454 38 431 -3 b 365 -4 368 -4 367 -4 b 265 115 303 -4 265 40 b 276 601 265 175 268 478 b 697 976 290 796 422 976 b 1086 644 971 976 1075 771 b 1096 114 1092 576 1096 179 b 1008 -4 1096 39 1063 -4 "},"∧":{"ha":0,"x_min":0,"x_max":0,"o":"m 1079 333 b 1135 97 1113 238 1146 158 b 1035 43 1125 43 1072 36 b 946 154 994 50 965 99 b 704 776 946 154 732 732 b 435 133 679 731 472 206 b 321 42 393 56 361 42 l 319 42 b 246 117 275 42 246 79 b 329 343 246 151 299 265 b 599 963 360 422 565 919 b 718 1014 629 1001 661 1021 b 851 897 788 1006 825 944 b 1079 333 879 850 1054 411 "},"∨":{"ha":0,"x_min":0,"x_max":0,"o":"m 456 903 b 697 279 456 903 669 324 b 967 922 722 326 929 850 b 1082 1015 1008 1001 1040 1015 l 1083 1015 b 1157 940 1126 1015 1157 976 b 1072 713 1157 906 1117 788 b 803 93 1042 635 838 136 b 683 42 772 56 740 35 b 550 158 614 50 585 96 b 322 724 524 207 349 646 b 267 958 289 819 256 899 b 367 1014 276 1013 329 1021 b 456 903 407 1007 436 957 "},"￢":{"ha":0,"x_min":0,"x_max":0,"o":"m 1028 597 b 181 597 1028 597 242 597 b 93 700 119 597 93 658 b 176 792 93 740 115 785 b 1093 785 238 799 1032 785 b 1215 647 1154 785 1215 728 b 1208 308 1215 565 1218 389 b 1114 229 1201 254 1154 229 b 1035 344 1079 229 1036 269 b 1028 597 1032 438 1028 597 "},"⇒":{"ha":0,"x_min":0,"x_max":0,"o":""},"⇔":{"ha":0,"x_min":0,"x_max":0,"o":""},"∀":{"ha":0,"x_min":0,"x_max":0,"o":"m 1156 1026 b 1217 885 1210 1015 1244 963 b 897 210 1188 807 928 288 b 774 -3 865 133 832 22 b 583 39 715 -26 614 -14 b 178 910 551 92 201 860 b 231 1028 153 961 189 1008 b 364 971 271 1047 328 1036 b 461 767 375 950 414 868 l 933 761 b 1035 967 993 889 1029 958 b 1156 1026 1075 1024 1100 1039 m 700 256 b 840 565 753 374 800 476 l 556 567 b 700 256 632 404 700 256 "},"∃":{"ha":0,"x_min":0,"x_max":0,"o":"m 1049 892 b 1047 256 1053 819 1049 414 b 1046 136 1046 197 1046 151 b 943 25 1046 63 1013 26 b 882 24 931 24 910 24 b 400 29 772 24 444 26 b 322 121 346 31 322 78 b 410 207 322 174 354 206 b 554 208 436 208 485 208 b 810 208 601 208 785 208 b 831 208 821 208 828 208 b 854 236 844 208 853 217 b 857 411 856 242 856 318 b 431 418 735 414 464 418 b 388 438 414 418 400 425 b 363 507 371 454 361 482 b 440 588 365 544 396 586 b 490 589 447 589 464 589 b 858 586 561 589 761 588 b 858 775 858 682 858 764 b 819 800 858 793 838 800 b 410 803 767 800 457 800 b 338 893 360 804 338 857 b 413 982 338 926 367 979 b 944 986 453 983 908 986 b 1049 892 990 986 1046 971 "},"∠":{"ha":0,"x_min":0,"x_max":0,"o":""},"⊥":{"ha":0,"x_min":0,"x_max":0,"o":""},"͡":{"ha":0,"x_min":0,"x_max":0,"o":"m 1119 782 b 706 928 1076 819 929 918 b 267 778 483 938 338 818 b 126 768 196 736 150 743 b 135 901 104 793 83 843 b 688 1108 186 960 363 1111 b 1247 903 992 1106 1185 965 b 1265 746 1310 840 1310 783 b 1119 782 1233 719 1178 731 "},"∂":{"ha":0,"x_min":0,"x_max":0,"o":""},"∇":{"ha":0,"x_min":0,"x_max":0,"o":"m 1017 1040 b 1125 854 1129 1040 1185 1013 b 757 24 1068 701 858 190 b 585 44 717 -42 628 -42 b 261 864 499 224 306 735 b 342 1040 222 978 231 1040 b 1017 1040 453 1040 903 1040 m 908 782 b 860 864 935 851 910 846 b 501 864 808 864 551 864 b 465 786 451 864 449 836 b 646 336 486 728 607 417 b 722 328 664 297 704 297 b 908 782 768 401 882 713 "},"≡":{"ha":0,"x_min":0,"x_max":0,"o":"m 1026 250 b 1167 167 1071 250 1161 250 b 1146 111 1168 144 1161 126 b 1018 76 1118 85 1065 79 b 721 75 985 75 747 75 b 319 83 543 75 322 83 b 207 161 221 88 207 133 b 324 257 207 215 253 253 b 467 257 336 257 390 257 b 740 253 533 257 639 256 b 938 250 818 251 892 250 l 954 250 b 1026 250 992 250 1018 250 m 1026 572 b 1167 489 1071 572 1161 572 b 1146 435 1168 468 1161 449 b 1018 400 1118 408 1065 401 b 721 399 985 399 747 399 b 319 407 543 399 322 407 b 207 483 221 410 207 457 b 324 579 207 538 253 575 b 467 581 336 581 390 581 b 740 576 533 581 639 578 b 938 574 818 575 892 574 l 954 572 b 1026 572 992 572 1018 572 m 1026 896 b 1167 813 1071 896 1161 896 b 1146 758 1168 792 1161 772 b 1018 722 1118 731 1065 725 b 721 721 985 721 747 721 b 319 729 543 721 322 729 b 207 807 221 733 207 779 b 324 903 207 861 253 899 b 467 904 336 903 390 904 b 740 900 533 904 639 901 b 938 896 818 897 892 896 l 954 896 b 1026 896 992 896 1018 896 "},"≒":{"ha":0,"x_min":0,"x_max":0,"o":"m 432 829 b 322 942 356 835 326 892 b 450 1053 317 990 378 1067 b 543 936 521 1040 543 990 b 432 829 543 883 494 825 m 954 -40 b 844 72 878 -35 849 22 b 972 183 840 121 900 197 b 1065 67 1044 169 1065 121 b 954 -40 1065 14 1017 -44 m 1008 739 b 1138 656 1074 739 1133 729 b 1121 603 1139 635 1133 617 b 1000 565 1094 574 1044 568 b 772 564 969 564 838 564 b 351 567 607 564 385 565 b 250 643 263 571 250 615 b 356 740 250 699 292 736 b 497 742 369 742 429 742 b 919 740 617 742 814 740 b 1008 739 965 740 999 739 m 1008 447 b 1138 364 1074 447 1133 438 b 1121 311 1139 343 1133 325 b 1000 274 1094 283 1044 276 b 772 272 969 272 838 272 b 351 275 607 272 385 274 b 250 351 263 279 250 325 b 356 450 250 407 292 444 b 497 450 369 450 429 450 b 919 449 617 450 814 450 b 1008 447 965 449 999 447 "},"≪":{"ha":0,"x_min":0,"x_max":0,"o":"m 863 990 b 328 588 654 839 471 706 b 281 503 292 557 256 532 b 885 33 367 408 854 83 b 796 -35 924 -29 857 -85 b 199 424 738 13 340 299 b 189 618 140 475 111 554 b 801 1082 401 796 793 1075 b 863 990 865 1133 944 1050 m 1149 990 b 615 588 940 839 757 706 b 567 503 578 557 542 532 b 1171 33 653 408 1140 83 b 1082 -35 1210 -29 1143 -85 b 485 424 1024 13 626 299 b 475 618 426 475 397 554 b 1088 1082 688 796 1079 1075 b 1149 990 1151 1133 1231 1050 "},"≫":{"ha":0,"x_min":0,"x_max":0,"o":"m 529 990 b 590 1082 449 1050 526 1133 b 1204 618 600 1075 990 796 b 1194 424 1281 554 1253 475 b 597 -35 1053 299 656 13 b 508 33 536 -85 469 -29 b 1111 503 538 83 1025 408 b 1064 588 1138 532 1100 557 b 529 990 922 706 739 839 m 243 990 b 304 1082 161 1050 240 1133 b 918 618 313 1075 704 796 b 908 424 994 554 967 475 b 311 -35 767 299 369 13 b 222 33 250 -85 183 -29 b 825 503 251 83 739 408 b 778 588 851 532 814 557 b 243 990 636 706 453 839 "},"√":{"ha":0,"x_min":0,"x_max":0,"o":""},"∽":{"ha":0,"x_min":0,"x_max":0,"o":""},"∝":{"ha":0,"x_min":0,"x_max":0,"o":""},"∵":{"ha":0,"x_min":0,"x_max":0,"o":"m 694 285 b 806 174 771 279 800 222 b 678 61 810 124 749 47 b 583 178 619 72 583 124 b 694 285 583 232 632 289 m 1079 983 b 1189 871 1154 978 1185 921 b 1061 758 1193 822 1132 746 b 968 875 989 772 968 822 b 1079 983 968 929 1017 988 m 311 983 b 421 871 388 978 417 921 b 293 758 425 822 365 746 b 200 875 222 772 200 822 b 311 983 200 929 249 988 "},"∫":{"ha":0,"x_min":0,"x_max":0,"o":""},"∬":{"ha":0,"x_min":0,"x_max":0,"o":""},"Å":{"ha":0,"x_min":0,"x_max":0,"o":""},"‰":{"ha":0,"x_min":0,"x_max":0,"o":""},"♯":{"ha":0,"x_min":0,"x_max":0,"o":"m 1040 460 b 1160 356 1110 463 1154 415 b 1036 235 1165 303 1131 246 b 969 226 1024 233 1000 231 b 939 67 956 144 944 85 b 833 -17 919 -3 883 -17 b 740 103 783 -17 735 19 b 754 201 742 117 747 153 b 535 176 682 193 604 185 b 517 90 526 133 521 103 b 406 -14 497 26 461 -14 b 311 124 351 -14 301 35 b 315 156 313 132 314 142 b 179 251 229 153 185 199 b 314 378 172 306 225 367 b 353 383 322 379 336 381 b 396 632 365 463 381 550 b 374 629 386 631 378 631 b 228 721 279 625 240 663 b 350 860 215 779 267 849 b 438 869 365 861 397 865 b 450 926 443 896 447 915 b 582 1076 469 1017 492 1086 b 661 917 657 1068 676 986 b 657 894 660 913 658 904 b 874 918 731 903 807 911 b 878 943 875 931 876 939 b 1003 1058 893 1044 954 1068 b 1083 935 1053 1049 1092 999 b 1188 828 1149 926 1188 869 b 1076 710 1188 783 1151 718 b 1047 706 1071 708 1060 707 b 1007 457 1035 629 1021 542 b 1040 460 1022 458 1033 458 m 575 408 b 792 433 646 417 722 426 b 833 681 806 515 821 601 b 617 656 763 672 688 663 b 575 408 604 576 589 490 "},"♭":{"ha":0,"x_min":0,"x_max":0,"o":"m 404 892 b 533 1011 400 976 472 1017 b 628 885 594 1004 628 939 b 632 660 628 831 632 660 b 975 561 651 657 861 700 b 967 115 1086 425 1072 231 b 625 -17 868 6 740 -19 b 411 125 510 -12 424 -21 b 404 892 397 271 407 796 m 611 238 b 764 208 614 178 704 176 b 833 389 826 242 865 329 b 682 458 796 458 733 458 b 607 383 629 458 607 436 b 611 238 607 343 607 290 "},"♪":{"ha":0,"x_min":0,"x_max":0,"o":"m 971 794 b 1104 369 1150 656 1140 453 b 1018 344 1085 325 1046 317 b 933 590 986 376 1015 500 b 803 703 882 647 838 678 b 806 585 804 656 804 611 b 799 213 807 501 814 251 b 719 44 794 158 761 90 b 417 -61 647 -35 511 -89 b 292 154 335 -37 268 54 b 494 358 314 256 393 317 b 656 371 546 381 604 383 b 657 722 658 493 657 660 b 660 929 658 813 663 878 b 726 1047 656 982 660 1047 b 800 985 775 1046 817 986 b 971 794 806 965 882 863 "},"†":{"ha":0,"x_min":0,"x_max":0,"o":"m 883 890 b 1013 807 947 890 1008 881 b 996 754 1014 785 1008 768 b 875 717 969 725 919 719 b 790 715 858 715 826 715 b 785 79 790 456 788 110 b 700 -19 781 -3 736 -19 b 606 90 647 -19 606 28 b 606 192 606 101 606 140 b 603 714 604 300 603 531 b 483 717 524 715 508 717 b 381 793 394 721 381 767 b 488 892 381 849 422 888 b 603 893 496 893 549 893 b 604 982 604 942 604 974 b 681 1099 608 1035 622 1092 b 789 996 740 1107 785 1063 b 790 892 790 983 790 946 b 801 892 794 892 797 892 b 883 890 847 890 874 890 "},"‡":{"ha":0,"x_min":0,"x_max":0,"o":"m 883 375 b 1013 290 947 375 1008 364 b 996 239 1014 269 1008 253 b 875 200 969 210 919 203 b 788 199 858 200 825 199 b 785 79 786 135 786 89 b 700 -19 781 -3 736 -19 b 606 90 647 -19 606 28 b 606 192 606 101 606 140 b 606 199 606 194 606 197 b 483 201 524 200 508 200 b 382 278 394 206 382 251 b 488 376 382 333 422 372 b 604 378 496 376 549 378 b 603 714 604 483 603 607 b 483 717 524 715 508 717 b 382 793 394 721 382 767 b 488 892 382 849 422 888 b 603 893 496 893 549 893 b 604 982 604 942 604 974 b 681 1099 610 1035 622 1092 b 789 996 740 1107 785 1063 b 790 892 790 983 790 946 b 801 892 794 892 797 892 b 883 890 847 890 874 890 b 1013 807 947 890 1008 881 b 996 754 1014 785 1008 768 b 875 717 969 725 919 719 b 790 715 858 715 826 715 b 789 375 790 607 790 485 b 801 375 793 375 797 375 b 883 375 847 375 874 375 "},"¶":{"ha":0,"x_min":0,"x_max":0,"o":""},"⃝":{"ha":0,"x_min":0,"x_max":0,"o":"m 661 -60 b 165 485 290 -33 188 246 b 749 1031 143 725 394 1061 b 1247 464 1081 1003 1247 725 b 661 -60 1247 201 967 -82 m 1013 486 b 750 801 1013 617 933 775 b 383 500 567 826 383 657 b 672 172 383 342 486 196 b 1013 486 881 146 1013 356 "},"０":{"ha":0,"x_min":0,"x_max":0,"o":"m 707 1056 b 1131 746 903 1053 1067 925 b 986 68 1204 539 1144 204 b 431 69 847 -50 600 -72 b 239 642 261 211 208 425 b 707 1056 271 860 467 1060 m 547 278 b 843 265 635 207 757 196 b 929 614 938 342 949 507 b 725 824 907 728 814 817 b 489 682 657 831 533 792 b 547 278 404 474 488 326 "},"１":{"ha":0,"x_min":0,"x_max":0,"o":"m 513 733 b 396 806 450 735 410 760 b 476 965 381 853 383 901 b 744 1063 568 1028 649 1085 b 844 854 839 1040 844 938 b 829 89 844 772 835 154 b 710 -12 825 24 754 -15 b 599 94 671 -10 607 21 b 606 760 592 158 606 760 b 513 733 622 758 533 733 "},"２":{"ha":0,"x_min":0,"x_max":0,"o":"m 535 774 b 394 726 508 729 451 704 b 353 907 336 747 303 819 b 764 1053 407 1004 569 1101 b 1025 665 957 1004 1044 807 b 865 336 1004 506 950 429 b 736 215 803 269 736 215 b 969 210 739 208 896 210 b 1083 101 1056 199 1083 161 b 946 -3 1090 29 1042 -3 b 458 -3 849 -3 513 -3 b 343 96 426 -8 346 36 b 488 294 340 157 378 193 b 793 649 597 397 761 539 b 721 825 819 736 790 800 b 599 829 667 844 626 842 b 535 774 564 814 547 796 "},"３":{"ha":0,"x_min":0,"x_max":0,"o":"m 876 539 b 1008 290 876 539 1007 429 b 769 -12 1010 143 917 10 b 696 -18 744 -15 719 -18 b 407 94 556 -18 461 40 b 357 285 336 167 329 242 b 533 300 393 339 482 349 b 665 217 572 260 617 222 b 686 217 672 217 679 217 b 785 275 728 217 779 232 b 706 404 796 343 733 392 l 685 414 b 572 500 636 435 590 454 b 633 633 551 554 588 608 b 751 717 672 654 736 686 b 732 826 768 750 778 788 b 675 844 719 838 700 844 b 576 824 639 844 590 831 b 426 833 519 794 467 799 b 397 906 407 850 396 878 b 457 1006 399 943 419 978 b 683 1064 508 1042 603 1064 b 885 1008 738 1064 817 1054 b 994 731 982 943 1008 853 b 876 539 983 633 876 539 "},"４":{"ha":0,"x_min":0,"x_max":0,"o":"m 678 1001 b 815 1049 722 1051 772 1054 b 926 942 858 1044 926 1008 b 924 489 925 803 924 511 b 1036 483 924 489 999 486 b 1117 379 1074 482 1117 433 b 1018 263 1117 324 1086 263 b 918 261 950 263 918 261 b 914 71 931 250 917 122 b 818 -18 911 18 861 -18 b 706 65 775 -18 713 13 b 703 263 697 118 703 263 b 393 267 719 256 469 264 b 256 350 318 269 281 304 b 286 515 231 396 246 463 b 678 1001 328 569 625 943 m 700 500 l 706 711 l 533 499 "},"５":{"ha":0,"x_min":0,"x_max":0,"o":"m 471 1029 b 864 1035 592 1032 811 1035 b 992 917 933 1035 994 994 b 858 804 990 853 944 804 b 596 801 771 804 596 801 l 597 649 b 906 594 597 649 799 672 b 1026 233 1017 515 1054 385 b 682 -22 999 92 868 -28 b 379 115 500 -17 414 51 b 419 261 346 175 376 239 b 585 225 471 289 529 264 b 803 246 646 182 761 190 b 750 436 849 307 828 397 b 549 443 685 468 594 453 b 390 535 464 426 390 467 b 390 944 390 588 390 818 b 471 1029 392 994 424 1029 "},"６":{"ha":0,"x_min":0,"x_max":0,"o":"m 825 611 b 1017 213 960 576 1068 417 b 704 -10 979 60 828 -10 b 581 14 660 -10 619 -1 b 336 568 396 89 318 265 b 639 1036 356 857 504 999 b 724 1047 665 1043 694 1047 b 926 976 800 1047 874 1021 b 947 849 976 935 969 882 b 871 810 939 833 915 810 b 817 819 854 810 836 813 b 735 832 790 828 763 832 b 626 793 686 832 647 818 b 554 585 576 732 554 669 b 711 626 579 601 631 626 b 825 611 747 626 785 621 m 832 328 b 736 442 829 379 789 426 b 706 446 726 444 717 446 b 589 376 661 446 606 424 b 593 261 576 343 572 292 b 703 206 619 225 656 206 b 738 210 714 206 725 207 b 832 328 799 219 833 279 "},"７":{"ha":0,"x_min":0,"x_max":0,"o":"m 849 822 b 592 138 849 822 608 204 b 661 6 575 71 607 18 b 792 65 728 -11 751 11 b 1085 861 825 110 1068 788 b 967 1026 1108 965 1033 1024 b 482 1039 899 1029 594 1036 b 317 892 369 1040 319 969 b 319 649 315 840 314 694 b 415 575 324 603 369 575 b 518 642 460 575 514 601 b 524 825 524 682 524 825 "},"８":{"ha":0,"x_min":0,"x_max":0,"o":"m 474 563 b 385 753 474 563 386 638 b 528 1029 382 868 424 974 b 918 979 632 1085 821 1076 b 988 674 1015 883 1006 733 b 903 556 969 614 903 556 b 1025 347 922 547 1001 467 b 864 19 1053 206 986 69 b 469 53 756 -24 588 -39 b 344 357 354 143 331 239 b 474 563 360 483 474 563 m 778 724 b 797 825 804 747 810 792 b 686 885 790 844 763 888 b 589 790 610 881 590 817 b 664 697 586 764 607 707 b 778 724 707 689 746 694 m 776 408 b 639 428 744 439 682 443 b 563 294 611 418 554 383 b 693 182 569 204 657 183 b 818 275 729 181 807 207 b 776 408 828 326 817 372 "},"９":{"ha":0,"x_min":0,"x_max":0,"o":"m 856 1011 b 999 700 949 944 993 831 b 944 464 1001 608 969 525 b 931 425 939 450 935 438 b 767 47 910 368 796 94 b 679 -15 743 7 721 -15 b 640 -8 667 -15 654 -12 b 586 39 617 -1 597 14 b 581 138 571 69 568 108 b 689 381 596 179 668 332 b 681 381 686 381 683 381 b 463 432 625 381 522 388 b 322 729 372 500 321 611 b 489 1018 325 850 394 971 b 681 1057 540 1042 613 1057 b 856 1011 731 1057 801 1049 m 746 625 b 786 757 769 639 797 699 b 657 857 771 831 700 857 l 651 857 b 535 753 604 856 544 813 b 607 610 524 694 556 632 b 651 601 619 604 633 601 b 746 625 688 601 728 613 "},"Ａ":{"ha":0,"x_min":0,"x_max":0,"o":"m 1217 136 b 1172 0 1244 78 1219 22 b 1004 67 1126 -21 1046 -8 b 911 283 983 104 947 193 l 515 282 b 500 249 508 267 503 254 b 396 49 472 190 410 68 b 258 -19 350 -15 322 -33 b 189 143 194 -6 156 54 b 497 794 222 232 461 707 b 638 1038 533 883 572 1010 b 856 990 704 1065 819 1051 b 1217 136 892 931 1189 194 m 722 742 b 617 508 722 742 671 628 l 817 510 b 722 742 782 586 722 742 "},"Ｂ":{"ha":0,"x_min":0,"x_max":0,"o":"m 1006 518 b 1088 264 1033 476 1101 379 b 840 -3 1067 100 983 11 b 658 -11 778 -8 718 -11 b 525 -7 603 -11 558 -8 b 478 -6 506 -6 490 -6 b 358 106 426 -6 365 38 b 353 879 353 146 351 406 b 353 918 353 899 353 913 b 486 1051 353 993 406 1046 b 643 1056 528 1054 586 1056 b 849 1046 703 1056 786 1054 b 1056 846 956 1032 1038 933 b 1001 550 1086 690 1025 589 b 993 536 997 544 994 538 b 1006 518 994 535 1000 526 m 835 796 b 690 832 818 819 768 832 b 651 831 675 832 661 831 b 640 831 647 831 643 831 b 585 800 628 831 588 828 b 583 735 583 785 583 760 b 582 669 583 710 583 685 b 593 629 581 654 585 640 b 621 615 600 622 610 617 l 628 615 b 703 611 644 614 672 611 b 703 611 703 611 703 611 b 821 636 761 611 800 619 b 835 796 858 667 874 744 m 582 263 b 593 224 581 247 585 233 b 621 210 600 215 610 210 l 625 210 b 711 206 642 208 675 206 b 838 229 775 206 818 214 b 853 381 876 260 892 329 b 696 415 836 404 782 415 b 653 415 678 415 663 415 b 640 415 647 415 643 415 b 585 383 628 415 588 413 b 583 324 583 369 583 346 b 582 263 583 301 583 278 "},"Ｃ":{"ha":0,"x_min":0,"x_max":0,"o":"m 972 258 b 1057 217 1010 258 1036 246 b 1082 117 1082 183 1090 149 b 983 22 1071 78 1036 44 b 792 -6 942 4 872 -6 b 501 51 672 -6 564 15 b 257 588 414 101 214 253 b 710 1040 297 911 550 1036 b 726 1042 715 1040 721 1042 b 1075 903 888 1042 1033 969 b 1074 756 1121 833 1100 789 b 1001 724 1057 736 1032 724 b 914 753 974 724 943 733 b 767 790 875 778 822 790 b 689 782 740 790 715 788 b 501 551 615 764 510 674 b 603 292 494 436 526 354 b 804 235 650 253 740 235 b 835 236 815 235 825 235 b 897 247 856 239 878 243 b 972 258 924 253 949 258 "},"Ｄ":{"ha":0,"x_min":0,"x_max":0,"o":"m 1051 875 b 1114 244 1176 713 1176 428 b 728 -6 1051 65 868 -3 l 713 -6 b 517 -8 640 -7 571 -8 b 415 -6 469 -8 436 -7 b 290 149 329 4 288 54 b 290 404 290 186 290 288 b 293 883 290 596 289 836 b 494 1039 300 990 403 1039 b 500 1039 497 1039 499 1039 b 550 1039 514 1038 529 1039 b 621 1040 571 1040 594 1040 b 1051 875 826 1040 968 986 m 942 489 b 871 711 943 586 919 661 b 635 789 796 789 675 789 b 613 789 626 789 619 789 b 599 789 607 789 603 789 b 599 789 599 789 599 789 b 590 789 596 789 593 789 b 579 789 588 789 583 789 b 519 733 536 789 519 775 b 519 663 519 724 519 697 b 519 293 519 549 518 338 b 586 239 522 239 563 239 b 608 238 592 239 599 238 b 671 235 624 236 646 235 b 942 489 846 235 936 319 "},"Ｅ":{"ha":0,"x_min":0,"x_max":0,"o":"m 953 225 b 1043 113 1015 222 1043 157 b 950 1 1043 69 1006 4 b 457 -6 899 -1 503 -6 b 328 114 400 -6 332 15 b 331 735 324 204 328 536 b 332 883 332 807 332 864 b 460 1024 332 976 372 1021 b 536 1024 476 1024 501 1024 b 964 1018 674 1024 910 1021 b 1063 903 1032 1017 1063 957 b 951 794 1063 838 1021 797 b 772 793 921 793 860 793 b 625 793 714 793 657 793 b 600 793 613 793 604 793 b 571 758 583 793 574 782 b 568 626 569 753 568 697 b 926 618 682 624 888 618 b 981 594 947 618 965 610 b 1011 507 1000 572 1013 539 b 915 407 1008 461 969 408 b 853 406 906 406 885 406 b 567 408 774 406 644 407 b 565 260 565 333 565 272 b 615 228 565 236 592 228 b 953 225 679 228 894 228 "},"Ｆ":{"ha":0,"x_min":0,"x_max":0,"o":"m 574 760 b 574 686 574 756 574 728 b 942 685 679 685 901 683 b 942 685 942 685 942 685 b 1000 660 964 685 983 676 b 1032 572 1021 638 1033 604 b 935 465 1031 524 992 469 b 576 461 894 463 675 461 b 581 213 578 371 579 278 b 582 90 581 144 582 96 b 471 -19 582 28 524 -17 b 463 -19 468 -19 465 -19 b 338 101 435 -19 343 -11 b 331 874 332 219 331 792 b 460 1015 331 967 372 1014 b 963 1011 550 1018 900 1013 b 1064 900 1033 1008 1064 954 b 951 789 1064 832 1022 790 b 772 788 921 788 860 788 b 622 788 713 788 654 788 l 597 788 b 574 760 586 788 578 785 "},"Ｇ":{"ha":0,"x_min":0,"x_max":0,"o":"m 1050 563 b 1161 435 1104 557 1160 507 b 1015 103 1161 433 1161 224 b 703 3 933 35 831 3 b 603 8 671 3 638 4 b 225 365 388 33 250 236 b 382 907 179 606 229 782 b 721 1028 479 988 593 1028 b 871 1013 781 1028 832 1019 b 1085 846 999 988 1074 899 b 1068 754 1092 808 1086 776 b 986 713 1047 728 1017 713 b 908 744 956 713 931 729 b 883 760 900 750 892 756 b 832 783 867 769 849 778 b 742 794 807 790 775 794 b 507 692 717 794 588 789 b 528 290 422 589 413 388 b 719 225 579 247 644 225 b 824 239 753 225 789 229 b 943 368 904 261 933 331 b 804 367 904 367 836 367 b 675 457 743 367 676 397 b 701 528 674 490 683 510 b 804 564 724 551 758 564 l 847 565 b 963 567 885 565 926 567 b 1050 563 1004 567 1032 565 "},"Ｈ":{"ha":0,"x_min":0,"x_max":0,"o":"m 249 875 b 351 1008 249 875 240 1008 b 483 856 461 1008 483 921 b 483 607 483 815 483 607 l 899 604 b 901 847 899 604 901 789 b 1038 1008 903 986 964 1015 b 1129 868 1110 1000 1125 942 b 1139 119 1138 738 1139 218 b 1013 -6 1139 26 1086 -14 b 910 117 939 1 926 43 b 903 396 900 163 903 396 l 493 401 b 492 122 493 401 497 182 b 367 -7 485 32 440 -7 b 257 138 293 -7 254 60 b 249 875 260 219 249 778 "},"Ｉ":{"ha":0,"x_min":0,"x_max":0,"o":"m 825 504 b 829 143 828 335 831 175 b 714 6 826 63 806 11 b 707 4 711 4 710 4 b 590 158 625 4 593 85 b 582 899 586 253 572 825 b 706 1010 590 971 650 1010 b 789 972 735 1010 767 996 b 821 885 804 956 822 928 b 825 504 819 847 822 672 "},"Ｊ":{"ha":0,"x_min":0,"x_max":0,"o":"m 899 1019 b 1013 874 974 1018 1013 968 b 993 311 1013 785 1000 410 b 747 13 985 154 897 49 b 643 0 714 4 679 0 b 368 111 531 0 428 42 b 318 332 294 196 279 267 b 403 374 332 357 367 374 b 493 329 440 374 472 358 l 501 318 b 635 238 533 275 561 238 b 635 238 635 238 635 238 b 643 238 638 238 640 238 b 781 393 729 240 778 296 b 782 876 783 486 785 815 b 818 990 781 924 793 964 b 894 1019 838 1010 864 1019 l 899 1019 "},"Ｋ":{"ha":0,"x_min":0,"x_max":0,"o":"m 1082 204 b 1113 58 1121 164 1135 97 b 1007 4 1094 26 1053 4 b 939 22 983 4 960 10 b 688 217 875 58 742 171 b 543 326 653 247 592 292 b 524 342 538 332 531 336 b 525 133 525 235 525 153 b 413 -4 522 51 503 1 b 403 -4 408 -4 406 -4 b 288 146 324 -4 290 74 b 283 936 283 224 275 861 b 406 1047 292 1008 350 1047 b 488 1011 435 1047 467 1033 b 521 925 503 994 522 967 b 521 690 519 900 519 804 b 735 854 614 758 688 815 b 769 882 747 864 758 872 l 783 893 b 990 1018 872 965 936 1018 b 1097 914 1046 1017 1097 967 b 992 761 1099 869 1060 814 b 721 515 917 704 750 543 b 1082 204 765 476 1051 238 "},"Ｌ":{"ha":0,"x_min":0,"x_max":0,"o":"m 981 265 b 1111 140 1067 265 1108 203 b 1079 56 1113 108 1101 79 b 979 13 1054 28 1018 14 b 479 10 903 11 542 10 b 292 185 415 10 294 47 b 289 910 289 308 286 844 b 415 1053 292 999 339 1053 b 510 1014 453 1053 486 1039 b 546 911 535 989 547 953 b 550 433 544 854 549 590 l 550 421 b 551 311 550 364 551 322 b 590 267 551 282 565 267 b 725 267 603 267 658 267 b 981 265 821 267 939 265 "},"Ｍ":{"ha":0,"x_min":0,"x_max":0,"o":"m 1194 690 b 1197 111 1197 489 1200 151 b 1094 7 1193 51 1151 10 b 976 111 1040 4 979 40 b 963 489 975 150 968 349 l 960 593 b 813 383 917 529 835 406 b 718 339 785 354 753 339 b 615 390 682 339 647 357 b 460 576 569 440 497 529 b 458 118 460 474 460 158 b 344 3 456 56 407 6 b 338 3 343 3 340 3 b 228 114 301 3 239 17 b 229 733 221 179 226 540 l 229 739 b 231 860 229 800 231 843 b 321 1019 231 947 260 999 b 353 1024 332 1022 343 1024 b 503 918 408 1024 453 976 b 711 622 565 844 678 674 b 963 999 761 704 924 968 b 1065 1036 992 1022 1031 1036 b 1135 1013 1092 1036 1115 1028 b 1193 846 1189 968 1193 915 b 1194 694 1193 828 1194 769 l 1194 690 "},"Ｎ":{"ha":0,"x_min":0,"x_max":0,"o":"m 1057 1040 b 1167 929 1110 1039 1167 993 b 1158 117 1167 874 1163 181 b 1031 10 1154 65 1103 10 b 960 28 1007 10 983 15 b 475 614 888 65 557 504 b 476 117 476 510 478 168 b 364 15 474 56 417 18 b 250 132 313 13 257 49 b 242 904 243 215 240 858 b 356 1032 246 975 288 1022 b 375 1033 361 1032 368 1033 b 525 960 413 1033 468 1021 b 942 396 571 910 864 503 b 942 925 942 504 942 867 b 1054 1040 942 997 1000 1040 l 1057 1040 "},"Ｏ":{"ha":0,"x_min":0,"x_max":0,"o":"m 1188 660 b 981 71 1251 436 1157 167 b 714 8 906 31 814 8 b 401 97 592 8 475 42 b 214 657 271 197 165 421 b 675 1031 251 838 435 1026 l 686 1031 b 1188 660 919 1031 1125 878 m 946 410 b 888 706 971 492 979 610 b 701 778 844 751 776 778 b 533 722 636 778 575 758 b 460 439 460 661 432 558 b 700 258 482 340 583 264 b 946 410 796 254 917 307 "},"Ｐ":{"ha":0,"x_min":0,"x_max":0,"o":"m 882 1036 b 1133 728 1025 1029 1138 890 b 890 407 1129 583 1051 421 b 681 400 829 401 758 400 b 564 401 626 400 583 400 b 561 85 565 350 565 129 b 442 -22 553 15 494 -22 b 322 78 392 -22 332 10 b 319 813 314 126 318 590 b 319 910 319 861 319 897 b 439 1046 319 989 363 1038 b 524 1049 456 1047 485 1049 b 882 1036 607 1049 738 1044 m 572 647 b 603 625 574 625 581 625 l 624 624 b 699 624 642 624 669 624 b 819 626 753 624 794 625 b 906 736 874 631 901 665 b 842 828 908 779 888 824 b 604 835 790 832 631 835 b 575 796 586 835 575 828 b 574 754 575 789 575 772 b 572 647 572 718 571 668 "},"Ｑ":{"ha":0,"x_min":0,"x_max":0,"o":"m 1114 229 b 1158 178 1135 207 1150 189 b 1143 64 1186 139 1185 78 b 1004 68 1117 33 1051 28 b 979 90 997 75 989 82 b 969 85 976 89 974 86 b 401 110 790 -14 528 15 b 218 660 276 206 169 425 b 669 1025 256 838 432 1021 b 1172 663 907 1029 1113 874 b 1114 229 1214 519 1189 353 m 694 254 b 794 267 728 251 763 257 b 785 278 790 271 788 275 b 775 414 746 329 750 374 b 929 415 800 453 875 465 b 946 400 935 411 940 406 b 950 411 947 404 949 408 b 889 718 976 501 982 621 b 521 735 797 814 617 814 b 444 442 438 665 419 553 b 694 254 467 340 571 260 "},"Ｒ":{"ha":0,"x_min":0,"x_max":0,"o":"m 938 424 b 1065 151 992 317 1051 193 b 1006 8 1088 82 1047 29 b 861 67 964 -11 890 -1 b 711 394 842 113 767 275 b 521 393 607 392 526 393 b 519 90 521 393 525 142 b 410 -8 513 29 461 -8 b 299 85 360 -8 308 25 b 297 913 289 144 297 840 b 407 1039 297 994 343 1032 b 856 1029 472 1046 679 1039 b 1114 728 994 1022 1118 886 b 938 424 1110 614 1049 475 m 532 633 b 574 600 533 600 550 600 b 792 603 596 600 731 599 b 901 722 854 607 896 649 b 815 839 904 769 868 833 b 574 844 763 843 610 831 b 535 797 544 844 535 826 b 532 633 535 774 529 665 "},"Ｓ":{"ha":0,"x_min":0,"x_max":0,"o":"m 1036 881 b 1026 808 1043 856 1040 831 b 974 768 1014 788 996 774 b 932 763 958 765 946 763 b 846 792 904 763 878 772 b 711 828 815 811 756 828 b 688 825 703 828 694 826 b 619 731 644 815 614 775 b 754 600 625 675 690 633 b 972 394 833 558 931 478 b 885 51 1031 276 992 126 b 643 -10 826 11 744 -10 b 571 -7 619 -10 596 -8 b 382 68 511 -1 408 39 b 361 221 338 117 329 176 b 458 274 388 256 421 274 b 524 258 479 274 501 269 b 667 229 564 242 619 229 b 721 239 690 229 710 233 b 757 293 740 250 754 271 b 736 356 761 315 753 338 b 635 425 717 376 679 399 b 454 558 572 463 501 506 b 407 882 368 657 374 790 b 704 1068 457 1019 593 1068 b 799 1057 738 1068 769 1064 b 1036 881 949 1017 1021 938 "},"Ｔ":{"ha":0,"x_min":0,"x_max":0,"o":"m 1051 1061 b 1147 956 1118 1054 1147 999 b 1042 858 1147 914 1110 856 b 808 857 1015 860 921 858 b 806 113 806 747 808 172 b 701 -14 803 39 788 -10 b 589 128 622 -19 592 57 b 590 854 586 206 583 719 b 353 851 474 851 375 850 b 225 949 283 854 236 869 b 358 1067 215 1028 292 1064 b 1051 1061 436 1069 986 1069 "},"Ｕ":{"ha":0,"x_min":0,"x_max":0,"o":"m 1017 1029 b 1126 881 1085 1029 1126 974 b 1115 335 1126 797 1122 421 b 719 7 1101 178 958 8 l 714 7 b 274 390 450 7 289 147 b 260 879 263 546 260 803 b 385 1029 260 972 307 1029 b 390 1029 386 1029 388 1029 b 506 876 467 1026 506 975 b 503 796 506 858 504 831 b 519 394 499 674 490 469 b 704 249 549 317 586 249 b 710 249 706 249 708 249 b 892 404 824 250 878 297 b 894 800 901 475 897 671 b 893 894 893 842 893 876 b 1017 1029 893 974 944 1029 "},"Ｖ":{"ha":0,"x_min":0,"x_max":0,"o":"m 1133 1000 b 1181 839 1199 960 1200 889 b 800 88 1167 800 849 164 b 676 21 774 46 728 21 b 546 94 624 21 575 49 b 211 840 454 243 229 792 b 260 1010 182 919 197 975 b 306 1022 274 1018 290 1022 b 433 926 353 1022 400 986 b 686 358 469 861 661 418 b 965 938 717 419 943 892 b 1081 1015 985 975 1031 1015 b 1133 1000 1099 1015 1117 1010 "},"Ｗ":{"ha":0,"x_min":0,"x_max":0,"o":"m 138 867 b 213 1013 126 947 163 996 b 365 904 292 1039 346 964 b 503 438 393 821 503 438 b 597 740 515 433 574 697 b 796 735 638 815 750 826 b 901 411 842 644 901 411 b 1050 924 919 404 1011 810 b 1203 992 1076 1004 1147 1017 b 1251 861 1247 972 1267 907 b 1004 67 1236 814 1056 156 b 800 60 953 -21 831 6 b 697 343 763 124 697 343 b 594 56 708 343 626 93 b 401 88 540 -6 444 3 b 138 867 356 176 146 807 "},"Ｘ":{"ha":0,"x_min":0,"x_max":0,"o":"m 851 521 b 1096 211 972 369 1079 235 b 1093 36 1142 147 1160 97 b 904 79 1031 -21 954 22 b 696 338 882 106 796 211 b 467 74 582 204 486 92 b 292 46 411 17 364 -11 b 303 243 224 100 254 183 b 543 529 326 272 428 392 b 303 843 425 679 319 815 b 329 1003 263 908 292 974 b 492 979 367 1033 444 1042 b 700 713 508 954 597 843 b 954 1001 822 856 931 981 b 1119 1003 1013 1053 1083 1035 b 1122 835 1157 969 1178 893 b 851 521 1099 810 981 672 "},"Ｙ":{"ha":0,"x_min":0,"x_max":0,"o":"m 233 856 b 247 1014 200 914 193 975 b 422 982 303 1054 375 1036 b 696 678 468 931 696 678 b 978 1007 707 668 936 975 b 1124 1007 1018 1039 1081 1051 b 1121 835 1167 964 1153 883 b 808 435 1056 735 808 435 b 807 108 832 428 808 172 b 692 -6 804 44 753 -6 b 569 129 618 -4 574 51 b 568 450 565 207 568 450 b 233 856 574 435 251 824 "},"Ｚ":{"ha":0,"x_min":0,"x_max":0,"o":"m 456 788 b 311 893 382 788 313 826 b 456 1018 308 961 356 1017 b 893 1017 557 1021 822 1018 b 1029 926 965 1014 1013 976 b 983 747 1047 875 1018 818 b 621 225 954 690 621 225 b 997 221 629 204 951 219 b 1108 119 1068 224 1104 174 b 1006 10 1113 65 1085 17 b 449 7 926 4 511 6 b 315 138 375 10 315 57 b 442 369 315 217 400 303 b 744 792 500 465 744 792 b 456 788 753 774 500 788 "},"ａ":{"ha":0,"x_min":0,"x_max":0,"o":"m 843 63 b 615 6 843 63 751 -6 b 336 279 478 17 343 103 b 535 638 331 404 357 551 b 986 525 700 718 915 638 b 1044 96 1089 364 1046 164 b 931 -12 1043 22 993 -12 b 843 63 868 -12 843 63 m 817 286 b 722 467 846 344 831 438 b 546 349 613 496 563 421 b 675 199 531 278 581 199 b 817 286 738 199 792 235 "},"ｂ":{"ha":0,"x_min":0,"x_max":0,"o":"m 369 907 b 499 1026 367 993 438 1033 b 607 900 560 1019 607 956 b 611 683 607 846 611 683 b 982 571 633 678 868 708 b 1008 131 1094 435 1094 251 b 604 0 924 10 719 -4 b 376 140 489 3 389 -6 b 369 907 363 288 372 813 m 590 254 b 771 225 593 194 711 192 b 819 399 833 258 851 339 b 661 468 783 468 713 468 b 586 393 608 468 586 446 b 590 254 586 351 586 307 "},"ｃ":{"ha":0,"x_min":0,"x_max":0,"o":"m 865 10 b 593 17 803 -8 726 -17 b 343 336 461 47 354 171 b 600 708 333 503 419 660 b 918 674 744 749 864 708 b 971 531 953 651 997 607 b 839 463 950 468 897 442 b 600 385 749 494 625 500 b 735 240 586 314 619 254 b 910 244 796 233 869 254 b 986 133 936 239 986 213 b 865 10 986 60 924 26 "},"ｄ":{"ha":0,"x_min":0,"x_max":0,"o":"m 1007 144 b 781 1 994 -3 896 6 b 375 128 665 -4 461 8 b 397 568 288 247 286 431 b 767 683 510 707 767 683 b 767 901 774 681 768 847 b 875 1029 767 956 814 1021 b 1006 911 936 1036 1007 996 b 1007 144 1003 815 1019 290 m 794 394 b 719 468 794 447 771 468 b 560 397 667 468 597 467 b 611 224 529 338 549 257 b 792 256 671 192 789 196 b 794 394 794 308 794 353 "},"ｅ":{"ha":0,"x_min":0,"x_max":0,"o":"m 396 385 b 642 706 396 517 479 689 b 961 563 804 724 904 667 b 901 299 1017 460 990 356 b 650 265 829 253 650 265 b 846 215 664 258 676 176 b 947 78 913 231 990 154 b 664 7 922 32 839 -24 b 396 385 521 32 396 121 m 794 479 b 674 528 783 525 726 549 b 642 432 635 492 615 453 b 794 479 681 404 810 425 "},"ｆ":{"ha":0,"x_min":0,"x_max":0,"o":"m 986 982 b 1051 808 1067 928 1078 863 b 931 753 1024 754 961 736 b 821 740 900 769 847 779 b 793 686 808 725 800 707 b 897 682 840 685 878 683 b 1003 546 965 675 1000 600 b 874 432 1007 481 949 433 b 778 428 847 431 814 429 b 771 108 775 304 771 149 b 669 -1 771 50 717 1 b 560 99 622 -6 567 33 b 557 424 554 143 556 288 b 532 425 547 424 539 424 b 325 517 431 431 340 439 b 447 685 307 601 344 678 b 561 689 475 688 515 688 b 681 951 561 824 613 894 b 986 982 749 1010 904 1036 "},"ｇ":{"ha":0,"x_min":0,"x_max":0,"o":"m 813 154 b 464 214 743 150 569 122 b 390 576 374 292 344 472 b 774 751 456 724 613 794 b 1024 417 913 715 997 603 b 940 -96 1046 256 1035 26 b 642 -221 875 -181 768 -228 b 417 -87 521 -214 435 -154 b 514 39 403 -32 443 46 b 675 14 585 31 622 4 b 813 154 765 29 821 68 m 799 410 b 763 532 817 458 793 499 b 596 521 733 564 633 579 b 654 367 557 464 599 375 b 799 410 718 357 779 358 "},"ｈ":{"ha":0,"x_min":0,"x_max":0,"o":"m 357 893 b 457 1036 363 965 364 1036 b 581 893 550 1036 581 954 b 592 636 582 807 592 636 b 865 613 594 635 704 685 b 1029 324 967 567 1018 464 b 1028 86 1038 215 1033 118 b 928 0 1022 50 997 0 b 817 96 853 0 821 53 b 811 313 813 139 814 271 b 585 308 801 460 592 457 b 582 126 583 265 588 165 b 469 0 567 36 533 6 b 364 121 397 -6 371 36 b 357 893 357 190 353 851 "},"ｉ":{"ha":0,"x_min":0,"x_max":0,"o":"m 707 663 b 565 811 619 657 556 729 b 750 921 579 921 701 947 b 832 786 807 892 832 844 b 707 663 832 728 794 669 m 572 143 b 571 463 565 217 563 351 b 703 611 578 572 646 608 b 819 438 771 611 819 556 b 813 101 819 315 826 175 b 685 -12 797 28 758 -18 b 572 143 589 -4 581 69 "},"ｊ":{"ha":0,"x_min":0,"x_max":0,"o":"m 717 658 b 594 783 654 664 594 724 b 736 929 594 842 642 938 b 871 785 831 921 874 836 b 717 658 867 733 807 650 m 608 439 b 739 604 606 532 654 604 b 843 443 824 604 839 536 b 828 67 847 350 838 185 b 579 -190 815 -83 683 -172 b 272 -111 458 -210 342 -181 b 265 69 236 -74 217 17 b 414 79 303 111 367 108 b 558 64 460 50 524 49 b 608 439 644 103 613 293 "},"ｋ":{"ha":0,"x_min":0,"x_max":0,"o":"m 801 383 b 990 185 801 383 957 225 b 990 38 1024 144 1014 65 b 819 35 968 13 888 -25 b 650 201 786 64 711 140 b 649 104 650 151 650 115 b 536 -8 646 51 608 -1 b 436 111 464 -14 432 42 b 429 894 439 179 429 838 b 521 1022 429 957 443 1022 b 649 900 599 1022 649 964 b 650 569 649 874 650 729 b 843 718 717 622 811 696 b 1004 692 897 756 978 742 b 971 533 1031 642 1021 574 b 801 383 921 494 801 383 "},"ｌ":{"ha":0,"x_min":0,"x_max":0,"o":"m 807 147 b 703 0 803 61 801 6 b 579 164 611 -7 582 82 b 586 888 575 263 576 806 b 710 1006 596 969 657 1006 b 814 875 761 1006 817 960 b 807 147 811 789 810 218 "},"ｍ":{"ha":0,"x_min":0,"x_max":0,"o":"m 243 582 b 343 710 243 658 285 710 b 460 636 400 710 435 697 b 617 694 460 636 526 697 b 768 618 719 689 768 618 b 963 682 778 599 868 692 b 1167 463 1057 674 1150 597 b 1163 69 1185 328 1167 119 b 1067 -11 1158 21 1121 -11 b 976 76 1014 -11 985 22 b 972 382 967 131 981 332 b 896 444 963 431 932 444 b 828 382 860 444 842 431 b 815 79 815 332 819 128 b 713 -3 811 29 767 -3 b 624 74 658 -3 636 29 b 608 381 610 118 614 336 b 546 461 604 425 590 457 b 465 394 501 465 475 439 b 451 53 457 350 461 93 b 358 -15 443 13 403 -15 b 249 79 314 -15 253 11 b 243 582 243 188 243 518 "},"ｎ":{"ha":0,"x_min":0,"x_max":0,"o":"m 339 593 b 442 711 346 671 390 707 b 556 632 492 714 551 668 b 775 671 556 632 621 706 b 1018 392 919 640 994 547 b 1026 79 1035 282 1031 126 b 940 -14 1022 32 992 -10 b 833 79 890 -17 840 4 b 824 358 826 165 831 282 b 697 467 815 443 771 467 b 556 328 622 467 553 439 b 554 78 557 238 556 133 b 456 -14 551 15 510 -11 b 349 86 400 -18 361 11 b 339 593 338 160 331 507 "},"ｏ":{"ha":0,"x_min":0,"x_max":0,"o":"m 693 -7 b 356 264 556 -7 399 74 b 688 690 319 425 396 693 b 1044 308 978 688 1051 457 b 693 -7 1035 144 914 -7 m 832 307 b 758 472 844 347 846 429 b 560 386 658 522 574 438 b 665 218 544 325 569 236 b 832 307 758 199 818 251 "},"ｐ":{"ha":0,"x_min":0,"x_max":0,"o":"m 385 576 b 597 718 399 724 481 714 b 983 586 713 721 897 707 b 956 139 1068 465 1068 275 b 604 28 842 1 604 28 b 606 -107 619 4 606 -51 b 507 -232 606 -161 568 -225 b 393 -114 446 -239 390 -199 b 385 576 397 -18 372 431 m 579 325 b 653 250 579 272 601 250 b 813 319 706 250 775 250 b 764 493 844 379 825 460 b 582 463 704 525 586 522 b 579 325 579 411 579 365 "},"ｑ":{"ha":0,"x_min":0,"x_max":0,"o":"m 975 -114 b 863 -232 979 -199 924 -239 b 763 -107 801 -225 763 -161 b 765 28 763 -53 765 28 b 414 139 772 4 528 1 b 386 586 301 275 301 465 b 772 718 472 707 657 721 b 983 576 889 714 971 724 b 975 -114 997 431 972 -18 m 788 463 b 606 493 783 522 665 525 b 557 319 543 460 525 379 b 715 250 593 250 664 250 b 790 325 768 250 790 272 b 788 463 790 365 790 411 "},"ｒ":{"ha":0,"x_min":0,"x_max":0,"o":"m 422 579 b 518 735 417 678 444 735 b 632 622 592 735 632 690 b 632 551 632 556 632 551 b 811 663 651 538 714 631 b 1024 599 910 693 1006 679 b 892 453 1043 519 1001 483 b 667 242 774 419 697 349 b 579 10 642 156 661 31 b 440 119 446 -26 451 53 b 422 579 428 188 429 481 "},"ｓ":{"ha":0,"x_min":0,"x_max":0,"o":"m 475 604 b 715 774 517 744 618 769 b 956 679 838 778 931 736 b 869 540 979 625 953 542 b 693 540 797 540 736 592 b 789 429 651 490 743 467 b 922 128 857 372 963 275 b 667 -42 888 3 811 -44 b 428 49 515 -40 458 8 b 542 204 397 88 426 229 b 721 199 619 188 706 158 b 568 340 744 258 625 288 b 475 604 494 407 443 496 "},"ｔ":{"ha":0,"x_min":0,"x_max":0,"o":"m 897 707 b 1010 576 985 696 1011 619 b 867 474 1008 517 953 474 b 794 474 857 474 806 474 b 794 132 794 339 794 178 b 696 -4 794 51 769 -4 b 589 136 621 -4 599 43 b 585 474 583 204 583 350 b 369 572 504 471 369 479 b 597 713 369 672 490 710 b 707 886 600 832 617 886 b 797 711 797 886 797 790 b 897 707 815 710 882 708 "},"ｕ":{"ha":0,"x_min":0,"x_max":0,"o":"m 349 550 b 454 711 342 667 376 707 b 571 575 533 717 567 638 b 611 233 574 513 565 257 b 790 269 656 208 760 204 b 813 615 822 335 807 551 b 931 704 817 679 860 710 b 1026 519 1001 700 1021 646 b 806 10 1031 414 1058 61 b 367 235 554 -42 406 39 b 349 550 328 432 353 486 "},"ｖ":{"ha":0,"x_min":0,"x_max":0,"o":"m 268 526 b 308 699 238 607 243 660 b 481 617 376 738 439 694 b 679 265 522 540 679 265 b 919 629 697 258 886 581 b 1085 688 953 678 1013 733 b 1125 525 1157 643 1142 568 b 844 86 1110 482 893 165 b 517 93 774 -26 600 -43 b 268 526 415 257 290 463 "},"ｗ":{"ha":0,"x_min":0,"x_max":0,"o":"m 1151 650 b 1154 571 1163 624 1164 596 b 1133 508 1151 564 1144 542 b 958 49 1061 296 989 93 b 869 -6 935 14 917 -6 b 789 43 824 -6 808 14 b 701 240 772 68 717 235 b 608 36 701 240 626 53 b 546 -1 583 13 581 -1 b 451 64 497 -1 476 24 b 242 582 415 125 250 531 b 303 718 231 647 242 700 b 339 724 315 721 326 724 b 468 624 406 724 450 669 b 547 399 482 589 522 471 b 606 549 565 450 594 531 b 700 606 628 583 654 606 b 794 544 746 606 772 582 b 861 382 814 511 844 431 b 951 638 888 460 932 589 b 1064 713 969 685 1011 713 b 1103 703 1082 713 1085 710 b 1151 650 1126 694 1139 675 "},"ｘ":{"ha":0,"x_min":0,"x_max":0,"o":"m 1010 208 b 1015 36 1033 174 1100 110 b 943 7 994 17 969 7 b 822 75 903 7 858 32 b 699 210 808 92 760 147 b 553 57 626 133 567 71 b 457 6 526 31 497 6 b 390 28 433 6 417 8 b 350 97 368 46 354 71 b 394 215 346 147 375 193 b 539 372 410 235 469 299 b 389 538 457 457 401 515 b 404 697 350 601 360 663 b 478 721 424 713 450 721 b 576 669 518 721 553 703 b 699 539 588 654 638 601 b 835 676 765 607 819 663 b 996 676 882 717 953 715 b 1025 601 1018 656 1025 633 b 993 517 1026 569 1015 540 b 858 376 978 501 924 444 b 1010 208 946 283 997 226 "},"ｙ":{"ha":0,"x_min":0,"x_max":0,"o":"m 351 506 b 372 690 311 593 310 647 b 561 621 435 733 508 699 b 706 401 610 550 706 401 b 901 647 725 386 854 597 b 1068 657 933 681 1006 724 b 1043 449 1132 589 1101 526 b 615 -104 986 371 678 -51 b 438 -128 563 -149 518 -192 b 468 81 378 -82 419 8 b 561 188 517 153 561 188 b 351 506 582 178 381 443 "},"ｚ":{"ha":0,"x_min":0,"x_max":0,"o":"m 488 497 b 372 581 426 501 375 522 b 500 701 369 639 411 699 b 885 704 596 704 826 704 b 969 539 943 704 1024 615 b 694 207 946 504 694 207 b 950 197 701 192 910 200 b 1036 92 990 194 1040 156 b 915 -8 1031 28 982 -8 b 492 -8 851 -19 543 -8 b 385 78 442 -8 396 43 b 454 235 369 131 410 183 b 693 501 500 285 693 501 b 488 497 699 488 544 496 "},"ぁ":{"ha":0,"x_min":0,"x_max":0,"o":"m 964 375 b 1021 69 1053 282 1054 138 b 924 -11 996 18 960 -11 b 896 -6 914 -11 904 -10 b 864 25 879 1 868 11 b 879 101 856 50 867 81 b 878 250 921 176 892 231 b 779 97 853 208 792 115 b 753 -6 790 47 782 11 b 722 -14 744 -11 735 -14 b 656 17 697 -14 671 -1 b 483 10 599 -7 539 -10 b 378 249 407 35 357 147 b 556 449 392 319 460 413 b 556 460 556 451 556 456 b 556 503 556 472 554 489 l 515 504 b 422 571 476 504 431 511 b 439 626 419 590 425 611 b 522 658 458 649 490 660 b 572 657 536 658 550 657 b 578 690 575 672 576 682 b 649 760 586 735 614 760 b 672 757 657 760 664 760 b 719 683 719 743 719 713 b 718 656 719 678 718 669 b 775 654 743 654 764 654 b 831 631 796 654 815 646 b 847 581 843 617 850 597 b 776 506 843 535 818 508 b 707 503 764 504 740 503 b 704 485 706 493 704 488 b 703 469 703 481 703 476 l 708 469 b 964 375 810 469 889 454 m 764 313 b 724 318 760 314 749 318 b 706 317 718 318 713 318 b 719 225 710 283 714 253 b 763 310 743 260 757 296 l 764 313 m 603 140 b 574 281 592 181 582 229 b 531 182 535 257 522 225 b 588 139 539 144 569 139 b 603 140 593 139 599 139 "},"あ":{"ha":0,"x_min":0,"x_max":0,"o":"m 1085 539 b 1169 85 1222 394 1214 178 b 992 -24 1125 -7 1057 -51 b 972 125 926 3 942 69 b 961 372 1056 274 968 350 b 800 124 961 372 807 132 b 767 -25 815 60 810 1 b 628 14 724 -50 654 -25 b 365 -1 553 -19 463 -33 b 211 351 251 38 182 203 b 483 650 233 463 343 600 b 482 750 483 668 481 715 b 411 751 442 750 428 751 b 279 843 335 751 289 772 b 421 965 269 915 340 971 b 507 963 443 965 467 964 b 517 1022 510 988 513 1007 b 646 1115 531 1099 583 1135 b 710 1014 710 1097 710 1058 b 707 960 710 1004 708 985 b 806 960 751 960 788 960 b 906 858 863 960 910 910 b 807 753 901 806 874 758 b 692 750 785 751 742 750 b 685 679 688 704 685 717 b 1085 539 846 681 968 661 m 424 250 b 557 179 438 183 497 165 b 506 418 536 254 519 338 b 424 250 435 379 408 325 m 799 449 b 689 467 806 465 754 472 b 714 292 696 407 704 346 b 799 449 767 360 792 432 "},"ぃ":{"ha":0,"x_min":0,"x_max":0,"o":"m 639 257 b 692 229 660 253 678 249 b 672 106 714 194 713 136 b 608 82 653 90 633 82 b 531 97 583 82 556 90 b 328 388 456 119 342 215 b 393 533 322 467 331 514 b 415 538 401 536 408 538 b 503 439 458 538 493 497 b 593 271 513 381 536 304 b 639 257 608 263 624 260 m 1000 517 b 1056 344 1036 469 1072 396 b 1004 296 1049 321 1031 304 b 976 292 994 293 985 292 b 889 372 936 292 915 328 b 838 451 875 397 858 424 b 804 540 819 475 799 508 b 832 583 806 557 815 572 b 875 597 846 593 860 597 b 1000 517 933 597 985 535 "},"い":{"ha":0,"x_min":0,"x_max":0,"o":"m 185 557 b 274 758 176 665 188 731 b 421 629 340 781 404 726 b 557 376 435 542 471 426 b 697 318 614 343 668 361 b 672 150 726 275 728 194 b 474 140 618 107 561 115 b 185 557 379 169 204 297 m 926 656 b 918 833 890 703 846 782 b 1149 738 993 886 1090 814 b 1160 431 1226 636 1292 472 b 926 656 1044 394 1031 522 "},"ぅ":{"ha":0,"x_min":0,"x_max":0,"o":"m 592 588 b 518 688 528 610 506 640 b 601 743 526 721 558 743 b 626 740 610 743 618 742 b 792 683 671 732 760 703 b 833 606 824 663 840 633 b 758 550 825 572 796 550 b 738 553 751 550 744 551 b 592 588 689 563 629 575 m 917 397 b 865 107 953 303 935 197 b 675 -18 818 46 747 0 b 656 -19 668 -19 661 -19 b 588 15 628 -19 603 -7 b 579 86 574 36 571 63 b 658 161 592 118 625 139 b 743 229 689 181 719 200 b 756 321 764 254 769 292 b 653 365 739 357 700 374 b 581 343 633 363 608 353 b 478 318 542 328 501 314 b 411 357 447 322 424 336 b 410 419 401 375 400 396 b 632 531 431 476 526 525 b 664 531 642 531 653 531 b 917 397 754 531 874 508 "},"う":{"ha":0,"x_min":0,"x_max":0,"o":"m 549 872 b 443 1010 447 907 429 953 b 594 1082 458 1067 524 1096 b 839 997 664 1067 793 1025 b 897 893 883 968 906 928 b 764 819 883 840 833 806 b 549 872 693 835 604 854 m 1021 574 b 944 151 1072 440 1051 289 b 667 -32 872 57 765 -8 b 536 110 582 -53 504 26 b 779 319 568 192 699 222 b 633 542 851 408 799 568 b 375 469 563 529 433 460 b 281 608 297 482 254 535 b 606 767 311 689 449 758 b 1021 574 763 775 954 744 "},"ぇ":{"ha":0,"x_min":0,"x_max":0,"o":"m 640 607 b 596 710 599 625 581 671 b 669 757 613 751 649 757 b 697 753 678 757 689 756 b 835 683 731 744 806 703 b 861 594 867 661 872 621 b 790 553 850 568 824 553 b 774 554 785 553 779 553 b 660 597 738 558 689 583 b 640 607 651 601 644 606 m 953 143 b 1024 57 1024 132 1028 99 b 926 -14 1021 14 985 -12 b 918 -15 924 -15 921 -15 b 736 44 857 -15 772 13 b 663 133 710 68 678 103 b 556 28 640 111 590 61 b 474 -12 536 10 507 -12 b 432 0 458 -12 444 -8 b 394 50 411 14 399 31 b 424 129 390 74 400 100 b 671 382 458 175 608 322 b 485 379 624 381 517 378 b 392 449 435 382 400 408 b 406 511 388 472 392 494 b 493 546 418 526 443 544 b 546 547 507 547 525 547 b 822 540 642 547 781 544 b 886 508 854 539 875 522 b 906 444 900 489 908 464 b 822 322 901 408 836 335 b 810 224 813 314 785 265 b 953 143 835 182 883 154 "},"え":{"ha":0,"x_min":0,"x_max":0,"o":"m 621 901 b 561 1042 563 928 540 990 b 700 1101 588 1107 653 1115 b 903 997 749 1088 858 1028 b 939 878 946 967 953 911 b 818 822 924 843 885 814 b 621 901 751 831 651 889 m 1083 189 b 1181 71 1181 174 1185 132 b 1044 -28 1176 13 1126 -24 b 1033 -28 1042 -28 1038 -28 b 768 58 943 -28 819 13 b 654 201 726 94 674 153 b 483 33 628 175 542 88 b 367 -24 456 7 414 -24 b 311 -7 347 -24 329 -18 b 261 61 282 13 265 35 b 300 171 256 93 268 131 b 689 567 360 247 626 506 b 385 563 629 565 438 560 b 256 658 317 565 268 601 b 275 743 250 689 256 719 b 397 792 292 764 326 789 b 476 792 418 792 444 792 b 889 782 618 792 828 788 b 976 738 933 779 961 756 b 1004 650 997 711 1008 678 b 882 474 999 603 908 499 b 863 313 867 458 822 381 b 1083 189 900 249 976 206 "},"ぉ":{"ha":0,"x_min":0,"x_max":0,"o":"m 706 436 b 925 343 756 435 869 425 b 949 56 1006 225 978 107 b 864 -7 931 25 907 -7 b 832 -1 854 -7 843 -6 b 804 22 819 1 810 10 b 811 119 789 50 803 96 b 778 261 819 142 842 215 b 719 278 763 272 743 278 b 707 278 715 278 711 278 b 706 222 707 257 707 238 b 526 6 699 85 633 6 b 515 6 524 6 519 6 b 389 69 464 8 418 31 b 360 236 356 113 346 172 b 533 414 390 372 488 400 b 553 421 542 417 550 419 b 551 496 554 435 553 464 b 539 496 547 496 543 496 b 499 496 521 496 507 496 b 399 567 454 496 407 504 b 414 621 396 588 401 606 b 506 653 433 643 468 656 b 549 651 517 653 531 651 b 614 754 549 693 554 754 b 700 649 669 754 699 718 b 776 649 736 649 765 649 b 838 624 800 649 824 639 b 853 578 850 611 856 594 b 778 497 849 529 821 500 b 704 496 764 496 740 496 b 706 436 706 476 706 456 m 546 185 b 551 256 556 197 558 224 b 533 267 550 263 543 267 b 506 251 524 267 514 261 b 492 197 493 238 488 214 b 506 181 493 192 497 183 b 526 176 514 178 521 176 b 546 185 535 176 542 179 m 1003 611 b 1044 471 1035 578 1079 510 b 1000 449 1032 456 1017 449 b 943 478 981 449 960 460 b 907 522 929 494 918 510 b 893 540 903 529 899 535 b 875 606 878 561 871 585 b 901 644 878 622 888 638 b 933 654 913 651 924 654 b 1003 611 961 654 982 635 "},"お":{"ha":0,"x_min":0,"x_max":0,"o":"m 706 625 b 1035 490 768 626 949 617 b 1069 72 1149 322 1115 153 b 907 -8 1032 7 990 -32 b 883 160 843 10 860 97 b 829 383 907 221 915 321 b 707 408 792 410 743 413 b 706 317 707 374 707 342 b 432 3 694 107 593 -6 b 207 336 269 10 167 149 b 497 611 265 597 496 585 b 496 735 499 633 497 681 b 404 736 456 735 422 736 b 265 833 324 736 275 758 b 415 950 256 908 329 956 b 489 947 433 949 460 949 b 489 947 489 947 489 947 b 578 1101 492 1021 497 1103 b 697 949 658 1101 696 1049 b 697 944 697 947 697 946 b 821 944 753 944 799 944 b 926 849 881 944 931 904 b 822 738 921 793 892 743 b 703 735 799 736 754 736 b 706 625 704 700 704 663 m 411 244 b 494 368 503 210 510 299 b 408 368 489 397 440 406 b 411 244 375 331 372 260 m 1151 892 b 1215 696 1190 850 1263 749 b 1079 706 1168 642 1110 668 b 1004 799 1047 742 1028 768 b 1013 940 961 853 972 917 b 1151 892 1071 974 1113 935 "},"か":{"ha":0,"x_min":0,"x_max":0,"o":"m 792 817 b 943 431 910 744 954 610 b 799 46 932 250 838 96 b 651 6 760 -4 689 -14 b 603 165 596 32 581 115 b 719 474 651 278 731 363 b 608 607 710 567 668 593 b 421 183 528 413 435 200 b 249 138 367 114 299 104 b 213 304 201 169 178 232 b 347 610 240 361 304 494 b 271 606 314 607 286 606 b 154 696 197 606 160 649 b 256 856 147 754 172 833 b 456 871 283 864 364 871 b 497 964 469 897 483 926 b 665 1065 524 1039 592 1088 b 729 919 718 1049 742 992 b 706 849 726 908 718 883 b 792 817 740 840 769 831 m 1306 582 b 1235 467 1318 529 1272 479 b 1093 544 1179 446 1140 486 b 967 724 1050 599 1003 679 b 968 882 915 785 917 835 b 1125 865 1018 929 1074 921 b 1306 582 1176 810 1285 661 "},"が":{"ha":0,"x_min":0,"x_max":0,"o":"m 792 817 b 943 431 910 744 954 610 b 799 46 932 250 838 96 b 651 6 760 -4 689 -14 b 603 165 596 32 581 115 b 719 474 651 278 731 363 b 608 607 710 567 668 593 b 421 183 528 413 435 200 b 249 138 367 114 299 104 b 213 304 201 169 178 232 b 347 610 240 361 304 494 b 271 606 314 607 286 606 b 154 696 197 606 160 649 b 256 856 147 754 172 833 b 456 871 283 864 364 871 b 497 964 469 897 483 926 b 665 1065 524 1039 592 1088 b 729 919 718 1049 742 992 b 706 849 726 908 718 883 b 792 817 740 840 769 831 m 1158 826 b 1306 582 1213 758 1289 647 b 1235 467 1318 529 1272 479 b 1093 544 1179 446 1140 486 b 967 724 1050 599 1003 679 b 968 882 915 785 917 835 b 1036 911 989 903 1013 911 b 1021 936 1031 919 1026 928 b 1036 1049 1001 975 996 1029 b 1149 982 1075 1068 1104 1042 b 1167 831 1213 897 1214 853 b 1158 826 1164 828 1161 828 m 1303 1042 b 1303 906 1344 972 1350 929 b 1169 1003 1249 879 1210 933 b 1185 1117 1147 1042 1144 1096 b 1303 1042 1225 1136 1264 1106 "},"き":{"ha":0,"x_min":0,"x_max":0,"o":"m 1118 613 b 993 507 1122 557 1078 519 b 946 501 982 506 965 504 b 951 322 988 440 1035 365 b 751 393 865 278 804 335 b 688 482 732 415 710 444 b 488 468 599 476 518 471 b 304 542 399 461 322 465 b 449 690 285 618 347 682 b 583 700 476 692 525 696 b 563 767 576 722 569 744 b 493 763 532 765 507 764 b 331 828 414 756 347 760 b 458 958 314 894 368 950 b 521 963 474 960 496 961 b 613 1096 514 1043 539 1082 b 739 978 692 1110 717 1061 b 915 986 819 983 892 986 b 1008 886 968 986 1006 935 b 900 793 1013 838 974 804 b 794 782 878 790 839 786 b 821 717 803 760 813 738 b 1011 726 911 722 988 726 b 1118 613 1072 725 1113 668 m 799 136 b 724 -39 882 94 842 -39 b 367 133 572 -37 446 10 b 388 354 301 235 313 326 b 575 239 476 388 504 310 b 799 136 636 176 729 172 "},"ぎ":{"ha":0,"x_min":0,"x_max":0,"o":"m 799 136 b 724 -39 882 94 842 -39 b 367 133 572 -37 446 10 b 388 354 301 235 313 326 b 575 239 476 388 504 310 b 799 136 636 176 729 172 m 976 1049 b 1089 982 1015 1068 1044 1042 b 1107 829 1153 897 1154 853 b 1008 868 1078 815 1042 833 b 900 793 1003 829 964 803 b 794 782 878 790 839 786 b 821 717 803 760 813 738 b 1011 726 911 722 988 726 b 1118 613 1072 725 1113 668 b 993 507 1122 557 1078 519 b 946 501 982 506 965 503 b 951 322 988 440 1035 365 b 751 393 865 278 804 335 b 688 482 732 415 710 444 b 488 468 599 476 518 471 b 304 542 399 461 322 465 b 449 690 285 618 347 682 b 583 700 476 692 525 696 b 563 767 576 722 569 744 b 493 763 532 765 507 764 b 331 828 414 756 347 760 b 458 958 314 894 368 950 b 521 963 474 960 496 961 b 613 1096 514 1043 539 1082 b 739 978 692 1110 717 1061 b 915 986 819 982 892 986 b 947 979 926 986 938 983 b 976 1049 943 1008 950 1036 m 1244 1042 b 1243 906 1285 972 1290 929 b 1111 1003 1189 879 1150 933 b 1125 1117 1088 1042 1085 1096 b 1244 1042 1165 1136 1206 1106 "},"く":{"ha":0,"x_min":0,"x_max":0,"o":"m 363 371 b 342 635 293 433 254 542 b 724 1006 429 728 669 957 b 929 1018 779 1056 878 1078 b 928 842 972 968 994 908 b 575 531 878 792 575 531 b 926 214 588 521 882 264 b 938 38 971 165 979 81 b 749 19 883 -17 832 -31 b 363 371 667 68 429 311 "},"ぐ":{"ha":0,"x_min":0,"x_max":0,"o":"m 363 371 b 342 635 293 433 254 542 b 724 1006 429 728 669 957 b 929 1018 779 1056 878 1078 b 928 842 972 968 994 908 b 575 531 878 792 575 531 b 926 214 588 521 882 264 b 938 38 971 165 979 81 b 749 19 883 -17 832 -31 b 363 371 667 68 429 311 m 1024 885 b 1038 997 1003 924 997 978 b 1150 931 1076 1017 1106 990 b 1168 779 1214 846 1215 801 b 1024 885 1124 757 1063 808 m 1171 951 b 1186 1065 1149 990 1146 1044 b 1306 990 1226 1085 1267 1056 b 1304 854 1346 921 1351 878 b 1171 951 1250 828 1211 882 "},"け":{"ha":0,"x_min":0,"x_max":0,"o":"m 442 825 b 471 332 433 738 456 406 b 382 167 485 258 461 179 b 233 293 301 154 263 204 b 199 872 204 381 154 693 b 353 996 226 983 301 1010 b 442 825 404 981 449 914 m 1164 818 b 1233 683 1224 782 1242 735 b 1082 581 1226 632 1147 581 b 1036 581 1072 581 1051 581 b 967 213 1029 460 1010 325 b 742 -10 917 78 829 -49 b 682 163 658 28 653 89 b 808 581 711 235 785 315 b 693 581 765 581 713 581 b 531 699 611 581 531 624 b 683 843 531 772 571 826 b 800 850 706 846 749 849 b 793 890 799 863 796 875 b 911 1047 779 978 838 1047 b 1035 892 986 1047 1025 972 b 1039 843 1036 881 1038 864 b 1164 818 1094 838 1146 829 "},"げ":{"ha":0,"x_min":0,"x_max":0,"o":"m 442 825 b 471 332 433 738 456 406 b 382 167 485 258 461 179 b 233 293 301 154 263 204 b 199 872 204 381 154 693 b 353 996 226 983 301 1010 b 442 825 404 981 449 914 m 1167 817 b 1233 683 1224 781 1242 735 b 1082 581 1226 632 1147 581 b 1036 581 1072 581 1051 581 b 967 213 1029 460 1010 325 b 742 -10 917 78 829 -49 b 682 163 658 28 653 89 b 808 581 711 235 785 315 b 693 581 765 581 713 581 b 531 699 611 581 531 625 b 683 843 531 772 571 826 b 800 850 706 846 749 849 b 793 890 799 863 796 875 b 911 1047 779 978 838 1047 b 1035 892 986 1047 1025 972 b 1039 843 1036 881 1038 864 b 1111 833 1064 840 1090 838 b 1035 928 1083 853 1056 886 b 1049 1040 1014 967 1008 1021 b 1163 974 1089 1060 1117 1033 b 1181 821 1225 889 1226 844 b 1167 817 1175 819 1171 818 m 1317 1033 b 1315 897 1358 964 1363 921 b 1183 993 1263 871 1222 925 b 1197 1108 1161 1033 1157 1088 b 1317 1033 1238 1128 1278 1097 "},"こ":{"ha":0,"x_min":0,"x_max":0,"o":"m 565 778 b 421 911 468 794 408 836 b 603 1018 436 1003 526 1018 b 1007 797 756 1018 954 881 b 983 643 1044 736 1029 674 b 824 658 938 613 875 610 b 565 778 778 701 657 763 m 324 264 b 360 483 261 378 289 449 b 543 413 431 519 485 488 b 874 272 614 321 739 278 b 968 114 946 271 982 176 b 704 31 953 50 863 11 b 324 264 556 50 394 136 "},"ご":{"ha":0,"x_min":0,"x_max":0,"o":"m 565 778 b 421 911 468 794 408 836 b 603 1018 436 1003 526 1018 b 1007 797 756 1018 954 881 b 983 643 1044 736 1029 674 b 824 658 938 613 875 610 b 565 778 778 701 657 763 m 324 264 b 360 483 261 378 289 449 b 543 413 431 519 485 488 b 874 272 614 321 739 278 b 968 114 946 271 982 176 b 704 31 953 50 863 11 b 324 264 556 50 394 136 m 963 915 b 976 1028 942 954 936 1007 b 1089 961 1015 1047 1044 1021 b 1107 808 1153 876 1154 832 b 963 915 1063 786 1001 839 m 1111 981 b 1125 1096 1088 1019 1085 1075 b 1244 1021 1172 1111 1206 1085 b 1243 885 1285 951 1290 908 b 1111 981 1189 858 1150 911 "},"さ":{"ha":0,"x_min":0,"x_max":0,"o":"m 931 683 b 960 639 940 667 950 651 b 1040 407 1051 521 1093 467 b 824 447 989 349 904 358 b 689 625 775 501 729 557 b 494 597 615 611 546 601 b 318 683 406 590 333 601 b 453 846 301 767 360 831 b 585 869 481 850 529 858 b 568 935 579 890 574 911 b 644 1104 547 1028 579 1085 b 789 1018 710 1124 756 1104 b 826 919 799 993 811 958 b 947 944 882 931 926 940 b 1083 864 1013 958 1069 925 b 999 708 1103 782 1071 739 b 931 683 979 700 957 692 m 792 171 b 865 26 850 146 893 81 b 675 -43 828 -49 772 -56 b 319 235 533 -24 394 83 b 375 483 261 349 283 468 b 579 299 481 500 507 374 b 792 171 644 232 719 201 "},"ざ":{"ha":0,"x_min":0,"x_max":0,"o":"m 792 171 b 865 26 850 146 893 81 b 675 -43 828 -49 772 -56 b 319 235 533 -24 394 83 b 375 483 261 349 283 468 b 579 299 481 500 507 374 b 792 171 644 232 719 201 m 983 1054 b 1096 988 1022 1074 1051 1047 b 1114 835 1160 903 1161 858 b 1089 829 1107 831 1097 829 b 999 708 1092 769 1060 735 b 931 683 979 700 957 692 b 960 639 940 667 950 651 b 1042 407 1051 521 1093 467 b 824 447 989 349 904 358 b 689 625 775 501 729 557 b 494 597 615 611 546 601 b 318 683 406 590 333 601 b 453 846 301 767 360 831 b 585 869 481 850 529 858 b 568 935 579 890 574 911 b 644 1104 547 1028 579 1085 b 789 1018 710 1124 756 1104 b 826 919 799 993 811 958 b 947 944 882 931 926 940 b 967 947 954 946 960 946 b 983 1054 949 985 946 1035 m 1251 1046 b 1250 911 1293 976 1297 935 b 1118 1007 1196 885 1157 938 b 1132 1121 1094 1046 1092 1101 b 1251 1046 1172 1142 1213 1111 "},"し":{"ha":0,"x_min":0,"x_max":0,"o":"m 367 879 b 513 1017 375 960 439 1029 b 621 856 586 1003 621 949 b 639 333 621 763 579 419 b 885 293 699 247 813 260 b 1051 193 958 326 1044 274 b 885 24 1057 114 997 61 b 454 115 744 -22 567 -12 b 367 879 342 242 340 619 "},"じ":{"ha":0,"x_min":0,"x_max":0,"o":"m 367 879 b 513 1017 375 960 439 1029 b 621 856 586 1003 621 949 b 639 333 621 763 579 419 b 885 293 699 247 813 260 b 1051 193 958 326 1044 274 b 885 24 1057 114 997 61 b 454 115 744 -22 567 -12 b 367 879 342 242 340 619 m 882 904 b 896 1017 861 943 856 996 b 1008 950 936 1036 964 1010 b 1028 797 1072 865 1074 821 b 882 904 983 775 921 828 m 1031 969 b 1044 1085 1008 1008 1004 1064 b 1164 1010 1085 1104 1125 1074 b 1163 874 1206 940 1210 897 b 1031 969 1108 847 1069 900 "},"す":{"ha":0,"x_min":0,"x_max":0,"o":"m 1210 822 b 1104 700 1218 744 1186 710 b 901 690 1076 697 997 693 b 894 447 900 607 899 521 b 789 50 888 260 865 144 b 567 -53 721 -33 632 -57 b 453 49 503 -49 461 -14 b 557 163 444 104 515 140 b 606 217 626 200 622 213 b 378 294 606 217 461 182 b 404 589 290 414 335 531 b 653 639 475 646 608 665 b 654 683 653 639 653 657 b 394 683 544 682 444 681 b 226 788 300 688 242 703 b 396 936 211 872 296 939 b 647 933 435 936 535 935 b 644 988 646 951 644 969 b 768 1103 642 1064 708 1107 b 893 992 849 1096 883 1050 b 899 931 894 976 897 956 b 1082 932 986 931 1058 931 b 1210 822 1151 935 1203 885 m 585 390 b 636 483 654 392 667 450 b 529 467 607 517 543 494 b 585 390 517 438 544 389 "},"ず":{"ha":0,"x_min":0,"x_max":0,"o":"m 1188 881 b 1210 822 1199 864 1207 843 b 1104 700 1218 744 1186 710 b 901 690 1076 697 997 693 b 894 447 900 607 899 521 b 789 50 888 260 865 144 b 567 -53 721 -33 632 -57 b 453 49 503 -49 461 -14 b 557 163 444 104 515 140 b 606 217 626 200 622 213 b 378 294 606 217 461 182 b 404 589 290 414 335 531 b 653 639 475 646 608 665 b 654 683 653 639 653 657 b 394 683 544 682 444 681 b 226 788 300 688 242 703 b 396 936 211 872 296 939 b 647 933 435 936 535 935 b 644 988 646 951 644 969 b 768 1103 642 1064 708 1107 b 893 992 849 1096 883 1050 b 899 931 894 976 897 956 b 1007 931 939 931 976 931 b 1026 1031 992 968 992 1013 b 1140 964 1067 1050 1096 1024 b 1188 881 1165 931 1181 903 m 585 390 b 636 483 654 392 667 450 b 529 467 607 517 543 494 b 585 390 517 438 544 389 m 1294 1024 b 1294 888 1336 954 1340 911 b 1161 983 1240 861 1201 915 b 1175 1099 1139 1024 1135 1078 b 1294 1024 1215 1118 1256 1088 "},"せ":{"ha":0,"x_min":0,"x_max":0,"o":"m 1132 854 b 1244 736 1192 846 1244 826 b 1124 622 1244 669 1182 628 b 1060 619 1104 621 1088 619 b 1019 621 1043 619 1028 621 b 1000 478 1021 597 1021 521 b 910 422 985 446 946 422 l 907 422 b 817 500 863 424 833 449 b 804 613 811 517 804 585 l 583 613 b 696 254 578 569 550 300 b 846 233 739 240 786 233 b 913 236 869 233 892 235 b 1003 236 946 236 979 238 b 1083 175 1036 233 1068 210 b 1071 63 1100 138 1096 96 b 835 -3 1029 8 950 -3 b 747 -1 807 -3 778 -3 b 401 217 592 1 464 88 b 351 625 340 344 349 581 b 208 638 325 626 233 629 b 139 744 189 644 142 668 b 236 858 136 797 175 843 b 329 869 271 867 307 869 b 361 868 343 869 354 868 b 381 957 363 885 369 932 b 494 1018 401 1001 436 1019 b 575 944 533 1017 560 992 b 583 858 586 914 585 874 l 810 858 b 819 946 810 874 811 915 b 925 1014 833 989 878 1018 b 1021 929 988 1010 1015 967 b 1029 860 1025 896 1028 871 b 1132 854 1047 860 1094 860 "},"ぜ":{"ha":0,"x_min":0,"x_max":0,"o":"m 1199 835 b 1244 736 1226 818 1244 789 b 1124 622 1244 669 1182 628 b 1060 619 1104 621 1088 619 b 1019 621 1043 619 1028 621 b 1000 478 1021 597 1021 521 b 910 422 985 446 946 422 l 907 422 b 817 500 863 424 833 449 b 804 613 811 517 804 585 l 583 613 b 696 254 578 569 550 300 b 846 233 739 240 786 233 b 913 236 869 233 890 235 b 1003 236 946 236 979 238 b 1083 175 1036 233 1068 210 b 1071 63 1100 138 1096 96 b 835 -3 1029 8 950 -3 b 747 -1 807 -3 778 -3 b 401 217 592 1 464 88 b 351 625 340 344 349 581 b 208 638 325 626 233 629 b 139 744 189 644 142 668 b 236 858 136 797 175 843 b 329 869 271 867 307 869 b 361 868 343 869 354 868 b 381 957 363 885 369 932 b 494 1018 401 1001 436 1019 b 575 944 533 1017 560 992 b 583 858 586 914 585 874 l 810 858 b 819 946 810 874 811 915 b 925 1014 833 989 878 1018 b 1021 929 988 1010 1015 967 b 1029 860 1025 896 1028 871 b 1078 860 1039 860 1057 860 b 1032 925 1061 878 1046 900 b 1046 1038 1013 965 1007 1018 b 1160 972 1086 1058 1115 1032 b 1199 835 1211 903 1222 860 m 1314 1031 b 1314 896 1356 961 1361 919 b 1181 992 1260 868 1221 922 b 1196 1106 1158 1031 1156 1086 b 1314 1031 1236 1126 1275 1096 "},"そ":{"ha":0,"x_min":0,"x_max":0,"o":"m 1038 140 b 1056 3 1085 108 1078 39 b 960 -51 1035 -33 1003 -51 b 896 -40 940 -51 919 -47 b 699 183 822 -19 732 51 b 728 418 667 307 714 396 l 408 418 b 253 514 317 418 265 451 b 328 654 242 576 272 604 b 356 679 336 661 346 669 b 578 829 417 735 539 807 b 500 826 560 828 529 826 b 447 829 478 826 461 828 b 350 936 401 835 350 871 b 493 1054 350 994 399 1054 b 626 1057 522 1054 569 1056 b 829 1060 694 1058 772 1060 b 901 1058 864 1060 886 1060 b 974 1017 938 1056 961 1035 b 999 933 993 992 1003 958 b 656 649 978 817 718 681 l 949 649 b 1051 549 1011 649 1049 590 b 963 393 1056 506 1026 457 b 922 247 931 361 915 310 b 1001 161 926 201 963 182 b 1038 140 1013 154 1025 147 "},"ぞ":{"ha":0,"x_min":0,"x_max":0,"o":"m 990 1044 b 1103 979 1031 1065 1058 1039 b 1122 826 1167 893 1168 850 b 990 908 1082 807 1029 846 b 656 649 940 797 714 678 l 949 649 b 1051 549 1011 649 1049 590 b 963 393 1056 506 1026 457 b 922 247 931 361 915 310 b 1001 161 926 201 963 182 b 1038 140 1013 154 1025 147 b 1056 1 1085 108 1078 39 b 960 -51 1035 -33 1003 -51 b 896 -40 940 -51 919 -47 b 699 183 822 -19 732 51 b 728 418 668 307 714 396 l 408 418 b 253 514 317 418 265 451 b 328 654 242 576 272 604 b 356 679 336 661 346 669 b 578 829 417 735 539 807 b 500 826 561 828 529 826 b 447 829 478 826 461 828 b 350 936 401 835 350 871 b 493 1054 350 994 399 1054 b 626 1057 522 1054 569 1056 b 829 1060 694 1058 772 1060 b 901 1058 864 1060 886 1060 b 968 1024 932 1056 954 1039 b 990 1044 972 1032 981 1040 m 1258 1038 b 1257 903 1300 968 1304 926 b 1125 999 1203 875 1164 929 b 1139 1113 1103 1038 1099 1093 b 1258 1038 1179 1133 1219 1103 "},"た":{"ha":0,"x_min":0,"x_max":0,"o":"m 813 656 b 654 661 778 656 719 657 b 496 96 604 457 517 160 b 335 -29 471 18 422 -47 b 264 167 246 -10 244 83 b 401 676 276 222 347 481 b 393 678 399 678 394 678 b 214 785 299 682 222 697 b 382 929 206 872 276 933 b 467 925 403 928 433 926 b 638 1092 504 1054 558 1118 b 710 910 721 1065 725 999 b 860 897 778 904 836 900 b 954 756 921 888 956 818 b 813 656 951 693 900 658 m 897 583 b 1176 503 1015 590 1133 578 b 1097 353 1225 419 1163 350 b 900 369 1033 356 942 368 b 757 446 831 372 778 386 b 897 583 736 506 796 576 m 1110 210 b 1196 65 1157 208 1221 163 b 883 -12 1171 -32 996 -43 b 713 174 771 18 685 83 b 874 246 735 244 792 265 b 1110 210 946 229 1064 213 "},"だ":{"ha":0,"x_min":0,"x_max":0,"o":"m 813 656 b 654 661 778 656 719 657 b 496 96 604 457 517 160 b 335 -29 471 18 422 -47 b 264 167 246 -10 244 83 b 401 676 276 222 347 481 b 393 678 399 678 394 678 b 214 785 299 682 222 697 b 382 929 206 872 276 933 b 467 925 403 928 433 926 b 638 1092 504 1054 558 1118 b 710 910 721 1065 725 999 b 860 897 778 904 836 900 b 954 756 921 888 956 818 b 813 656 951 693 900 658 m 897 583 b 1176 503 1015 590 1133 578 b 1097 353 1225 419 1163 350 b 900 369 1033 356 942 368 b 757 446 831 372 778 386 b 897 583 736 506 796 576 m 1110 210 b 1196 65 1157 208 1221 163 b 883 -12 1171 -32 996 -43 b 713 174 771 18 685 83 b 874 246 735 244 792 265 b 1110 210 946 229 1064 213 m 1114 808 b 969 914 1069 786 1008 838 b 983 1028 949 954 943 1007 b 1096 961 1022 1047 1051 1021 b 1114 808 1160 876 1161 832 m 1251 1019 b 1250 885 1293 951 1297 908 b 1118 981 1196 858 1157 911 b 1132 1094 1094 1019 1113 1061 b 1251 1019 1172 1115 1213 1085 "},"ち":{"ha":0,"x_min":0,"x_max":0,"o":"m 946 556 b 1081 244 1068 464 1096 354 b 896 -21 1065 135 983 22 b 694 -58 808 -65 765 -71 b 597 56 628 -49 590 6 b 700 163 606 113 642 150 b 842 274 760 175 828 201 b 756 401 861 372 790 390 b 553 378 706 418 626 411 b 390 414 486 349 411 371 b 418 611 368 458 400 549 b 447 714 425 635 435 671 b 382 717 418 714 394 715 b 256 818 304 725 260 760 b 386 932 251 878 299 933 b 507 931 415 932 458 931 b 529 1014 517 968 525 999 b 685 1118 550 1093 618 1133 b 763 971 756 1101 778 1043 b 751 931 760 961 757 947 b 878 929 807 929 854 929 b 990 825 953 929 993 878 b 851 711 986 772 946 718 b 686 708 822 710 758 708 b 656 611 669 653 674 608 b 946 556 656 611 825 646 "},"ぢ":{"ha":0,"x_min":0,"x_max":0,"o":"m 932 1035 b 1046 968 972 1054 1001 1028 b 1064 817 1108 883 1110 839 b 989 832 1042 806 1015 813 b 990 825 989 829 990 828 b 851 711 986 772 946 718 b 686 708 822 710 758 708 b 656 611 669 653 674 608 b 946 556 656 611 825 646 b 1081 244 1068 464 1096 354 b 896 -21 1065 135 983 22 b 694 -58 808 -65 765 -71 b 597 56 628 -49 590 6 b 700 163 606 113 642 150 b 842 274 760 175 828 201 b 756 401 861 372 790 390 b 553 378 706 418 626 411 b 390 414 486 349 411 371 b 418 611 368 458 400 549 b 447 714 425 635 435 671 b 382 717 418 714 394 715 b 256 818 304 725 260 760 b 386 932 251 878 299 933 b 507 931 415 932 458 931 b 529 1014 517 968 525 999 b 685 1118 550 1093 618 1133 b 763 971 756 1101 778 1043 b 751 931 760 961 757 947 b 878 929 807 929 854 929 b 918 924 892 929 906 928 b 932 1035 897 963 893 1015 m 1200 1028 b 1199 893 1242 958 1246 915 b 1067 989 1146 865 1106 919 b 1081 1103 1044 1028 1040 1082 b 1200 1028 1121 1122 1161 1093 "},"っ":{"ha":0,"x_min":0,"x_max":0,"o":"m 935 575 b 981 199 1050 469 1040 310 b 751 29 932 108 854 51 b 722 25 742 26 732 25 b 624 110 668 25 628 60 b 729 231 619 171 671 201 l 738 235 b 829 397 793 263 857 293 b 729 451 819 435 789 451 b 667 447 708 451 688 449 b 619 444 650 446 633 444 b 519 435 575 443 546 439 b 464 429 500 432 483 431 b 376 457 425 429 396 439 b 354 517 361 472 354 493 b 488 629 354 575 407 619 l 501 631 b 683 644 546 636 614 644 b 935 575 800 644 885 621 "},"つ":{"ha":0,"x_min":0,"x_max":0,"o":"m 356 632 b 206 749 264 629 206 671 b 390 903 206 829 278 890 b 1029 826 535 919 876 968 b 1093 293 1182 686 1185 463 b 768 53 1001 124 860 74 b 594 163 676 33 601 82 b 743 329 588 246 661 289 b 892 579 825 369 933 415 b 579 653 860 697 693 656 b 356 632 465 649 421 633 "},"づ":{"ha":0,"x_min":0,"x_max":0,"o":"m 356 632 b 206 749 264 629 206 671 b 390 903 206 829 278 890 b 1029 826 535 919 876 968 b 1093 293 1182 686 1185 463 b 768 53 1001 124 860 74 b 594 163 676 33 601 82 b 743 329 588 246 661 289 b 892 579 825 369 933 415 b 579 653 860 697 693 656 b 356 632 465 649 421 633 m 1033 914 b 1047 1028 1013 954 1008 1007 b 1161 961 1088 1047 1117 1021 b 1179 808 1224 876 1225 832 b 1033 914 1135 786 1074 838 m 1182 981 b 1196 1094 1160 1019 1156 1075 b 1315 1019 1238 1115 1276 1085 b 1315 885 1357 951 1361 908 b 1182 981 1261 858 1222 911 "},"て":{"ha":0,"x_min":0,"x_max":0,"o":"m 746 719 b 357 721 746 719 483 711 b 218 850 297 726 219 742 b 433 975 218 960 325 974 b 928 969 540 975 838 981 b 1051 769 1024 958 1093 890 b 940 428 1011 647 954 636 b 1076 197 928 253 1046 242 b 1011 -7 1129 119 1106 21 b 699 235 922 -32 778 53 b 746 719 624 404 686 633 "},"で":{"ha":0,"x_min":0,"x_max":0,"o":"m 746 719 b 357 721 746 719 483 711 b 218 850 297 726 219 742 b 433 975 218 960 325 974 b 928 969 540 975 838 981 b 1051 769 1024 958 1093 890 b 940 428 1011 647 954 636 b 1076 197 928 253 1046 242 b 1011 -7 1129 119 1106 21 b 699 235 922 -32 778 53 b 746 719 624 404 686 633 m 1050 922 b 1064 1035 1029 961 1025 1015 b 1178 968 1104 1054 1133 1028 b 1196 817 1240 883 1242 839 b 1050 922 1151 794 1090 846 m 1199 989 b 1213 1103 1176 1028 1172 1082 b 1332 1028 1253 1122 1293 1093 b 1332 892 1374 958 1378 915 b 1199 989 1278 865 1239 919 "},"と":{"ha":0,"x_min":0,"x_max":0,"o":"m 336 469 b 436 610 354 514 436 610 b 296 906 456 606 299 839 b 418 1032 293 971 339 1035 b 561 900 472 1029 533 972 b 638 738 599 808 638 738 b 947 881 638 713 786 860 b 1089 769 1031 892 1086 817 b 940 629 1090 722 1054 671 b 551 340 825 588 568 432 b 956 231 524 172 888 239 b 1072 99 1022 221 1096 186 b 821 -12 1047 7 971 -8 b 389 108 664 -15 507 -11 b 336 469 297 201 272 303 "},"ど":{"ha":0,"x_min":0,"x_max":0,"o":"m 940 629 b 551 340 825 588 568 432 b 956 231 524 172 888 239 b 1072 99 1022 221 1096 186 b 821 -12 1047 7 971 -8 b 389 108 664 -15 507 -11 b 336 469 297 201 272 303 b 436 610 354 514 456 604 b 296 906 436 610 299 839 b 418 1032 293 971 339 1035 b 561 900 472 1029 533 972 b 638 738 599 808 638 713 b 922 876 638 738 771 847 b 888 931 910 892 897 910 b 901 1043 867 969 863 1022 b 1015 976 942 1063 971 1036 b 1054 840 1065 908 1076 867 b 1089 769 1075 818 1088 790 b 940 629 1090 722 1054 671 m 1169 1036 b 1169 900 1211 967 1215 924 b 1036 996 1115 874 1076 928 b 1050 1111 1014 1035 1010 1090 b 1169 1036 1090 1131 1131 1100 "},"な":{"ha":0,"x_min":0,"x_max":0,"o":"m 568 683 b 436 400 513 558 450 426 b 288 342 401 333 342 328 b 221 486 233 354 203 414 b 308 694 229 522 267 606 b 186 793 233 704 189 733 b 338 918 182 857 243 919 b 413 915 361 918 388 917 b 439 981 425 944 435 968 b 614 1092 465 1071 525 1119 b 663 910 688 1068 679 974 b 661 904 663 908 661 907 b 671 904 664 904 668 904 b 792 800 751 904 796 857 b 644 686 789 743 744 693 b 568 683 624 685 597 683 m 1263 632 b 1239 518 1285 590 1265 536 b 1117 525 1214 500 1167 489 b 994 653 1067 561 1014 629 b 993 797 958 697 949 756 b 1150 764 1038 840 1096 826 b 1263 632 1189 719 1240 674 m 993 344 b 1114 261 993 344 1081 311 b 1124 136 1149 210 1140 168 b 1010 93 1103 100 1054 86 b 943 106 975 99 956 89 b 785 -50 943 106 922 -10 b 456 36 661 -87 519 -49 b 489 338 392 119 415 257 b 797 401 564 419 722 422 b 796 482 797 401 792 429 b 903 607 800 550 825 617 b 1004 476 981 597 1004 536 b 993 344 1004 415 993 344 m 744 164 b 711 211 749 181 738 207 b 633 186 685 214 640 214 b 668 136 628 160 640 143 b 744 164 697 129 742 147 "},"に":{"ha":0,"x_min":0,"x_max":0,"o":"m 508 185 b 489 24 525 133 546 63 b 435 7 474 13 454 7 b 282 129 375 7 317 54 b 206 532 231 236 210 349 b 246 851 201 668 226 779 b 394 1004 272 950 328 1008 b 506 861 460 1000 503 944 b 488 736 507 828 499 785 b 460 560 476 683 463 624 b 492 257 453 432 478 322 b 499 224 494 243 497 232 b 508 185 500 213 504 199 m 1149 853 b 1163 739 1185 808 1174 767 b 1079 692 1157 725 1136 692 b 1044 694 1068 692 1057 692 b 979 711 1018 700 997 706 b 890 726 950 719 928 726 b 765 711 836 726 796 722 b 642 740 707 692 674 699 b 625 807 628 757 622 781 b 683 903 631 844 651 879 b 875 950 724 932 796 950 b 936 946 897 950 917 949 b 1149 853 1029 933 1113 896 m 1178 181 b 1068 54 1182 135 1167 76 b 969 43 1033 46 1001 43 b 849 54 931 43 894 47 b 674 125 774 65 711 90 b 644 292 621 175 610 239 b 750 342 665 324 704 342 b 824 324 776 342 803 335 b 1011 290 856 304 947 290 b 1043 292 1024 290 1033 292 b 1178 181 1099 299 1171 251 "},"ぬ":{"ha":0,"x_min":0,"x_max":0,"o":"m 1294 246 b 1294 144 1328 197 1308 168 l 1290 139 b 1204 113 1272 110 1242 100 b 1143 131 1175 121 1153 128 b 1021 26 1133 110 1096 40 b 971 22 1006 24 989 22 b 776 111 904 22 814 44 b 810 336 732 188 760 282 b 956 390 847 375 910 390 b 986 388 967 390 978 389 b 978 499 989 404 997 451 b 893 585 958 549 910 578 b 718 226 881 546 815 340 b 713 219 717 224 715 222 b 725 188 717 208 721 199 l 736 157 b 689 40 758 97 726 57 b 654 33 679 36 667 33 b 554 94 629 33 592 44 b 410 58 506 71 457 58 b 288 90 367 58 325 69 b 158 267 222 128 178 189 b 207 583 129 385 163 514 b 333 721 239 633 283 681 b 307 853 321 768 311 811 b 401 983 294 958 369 979 b 514 861 453 990 490 951 b 524 822 515 856 518 842 b 578 836 542 828 560 833 b 728 851 638 846 689 851 b 764 849 746 851 757 850 b 801 951 768 865 782 913 b 940 992 828 1003 875 1018 b 994 864 993 972 1003 911 b 975 778 990 835 979 793 b 1150 582 999 764 1106 692 b 1179 329 1190 486 1182 357 b 1294 246 1197 321 1265 289 m 667 647 b 576 629 636 647 606 640 b 628 463 593 574 610 517 b 700 644 665 539 693 621 b 667 647 689 646 678 647 m 361 329 b 438 290 375 304 403 290 b 463 293 446 290 454 292 b 399 489 439 360 417 431 b 361 329 356 428 339 367 m 976 193 b 996 253 992 210 994 238 b 967 254 985 254 975 254 b 901 215 922 254 903 235 b 939 181 901 200 913 183 b 976 193 954 179 967 183 "},"ね":{"ha":0,"x_min":0,"x_max":0,"o":"m 1250 300 b 1256 176 1278 261 1281 208 b 1119 150 1232 146 1167 128 b 976 6 1119 150 1097 36 b 669 96 856 -24 724 15 b 682 393 604 193 611 313 b 924 467 746 467 892 481 b 922 581 924 467 944 510 b 783 640 899 651 861 664 b 558 494 689 611 617 553 b 551 81 556 306 551 118 b 431 -17 551 4 467 -17 b 331 86 394 -17 335 10 b 331 238 329 104 329 163 b 179 208 292 182 217 174 b 193 403 132 251 135 318 b 338 569 215 436 271 501 b 340 675 339 606 339 640 b 282 672 317 674 296 672 b 150 778 207 671 151 708 b 283 896 149 849 204 899 b 344 896 301 896 322 896 b 346 915 346 904 346 911 b 451 1053 346 997 376 1049 b 567 921 528 1058 567 988 b 567 908 567 918 567 914 b 578 908 571 908 575 908 b 678 819 632 910 672 868 b 1061 746 833 881 974 869 b 1124 396 1156 613 1144 374 b 1250 300 1124 396 1224 340 m 917 215 b 900 275 925 236 931 256 b 815 253 868 293 829 278 b 857 182 801 226 806 190 b 917 215 883 178 907 194 "},"の":{"ha":0,"x_min":0,"x_max":0,"o":"m 786 656 b 597 199 785 668 836 307 b 188 329 378 100 224 244 b 426 886 118 492 154 799 b 1135 636 686 971 1024 915 b 1043 67 1256 331 1100 128 b 864 142 964 -17 858 76 b 953 503 874 253 1010 310 b 786 656 907 664 786 656 m 392 565 b 449 422 357 490 392 428 b 575 647 588 408 604 599 b 392 565 551 686 433 654 "},"は":{"ha":0,"x_min":0,"x_max":0,"o":"m 357 1003 b 428 754 454 979 450 875 b 424 229 386 518 399 378 b 365 28 449 83 432 53 b 175 224 297 3 211 65 b 189 815 139 382 158 700 b 357 1003 219 932 260 1028 m 1240 719 b 1138 653 1235 690 1186 653 b 1074 653 1126 653 1103 653 b 1076 540 1075 611 1076 572 b 1064 358 1076 450 1075 347 b 1217 260 1064 358 1181 321 b 1058 144 1254 199 1186 108 b 844 4 1058 144 1003 4 b 564 175 686 4 594 35 b 869 419 533 315 674 461 b 861 649 869 419 869 519 b 758 647 814 647 775 647 b 619 739 685 647 619 678 b 763 861 619 800 649 854 b 846 864 789 863 817 863 b 851 953 844 903 846 925 b 1046 917 872 1058 1024 1076 b 1054 858 1049 897 1051 878 b 1174 844 1107 856 1151 851 b 1240 719 1235 825 1247 750 m 871 208 b 779 267 878 246 840 289 b 774 165 718 246 733 179 b 871 208 822 150 865 176 "},"ば":{"ha":0,"x_min":0,"x_max":0,"o":"m 357 1003 b 428 754 454 979 450 875 b 424 229 386 518 399 378 b 365 28 449 83 432 53 b 175 224 297 3 211 65 b 189 815 139 382 158 700 b 357 1003 219 932 260 1028 m 1208 824 b 1240 719 1239 793 1246 743 b 1138 653 1235 690 1186 653 b 1074 653 1126 653 1103 653 b 1076 540 1075 611 1076 572 b 1064 358 1076 450 1075 347 b 1217 260 1064 358 1181 321 b 1058 144 1254 199 1186 108 b 844 4 1058 144 1003 4 b 564 175 686 4 594 35 b 869 419 533 315 674 461 b 861 649 869 419 869 519 b 758 647 815 647 775 647 b 619 739 685 647 619 678 b 763 861 619 800 649 854 b 846 864 789 863 817 863 b 851 953 844 903 846 925 b 1046 917 872 1058 1024 1076 b 1054 858 1049 897 1051 878 b 1103 856 1072 858 1088 857 b 1054 925 1085 874 1068 899 b 1068 1038 1033 964 1028 1018 b 1182 972 1108 1058 1138 1032 b 1208 824 1240 892 1246 849 m 871 208 b 779 267 878 246 840 289 b 774 165 718 246 733 179 b 871 208 822 150 865 176 m 1336 1031 b 1335 896 1378 961 1382 919 b 1203 992 1282 868 1242 922 b 1217 1106 1181 1031 1185 1083 b 1336 1031 1257 1126 1297 1096 "},"ぱ":{"ha":0,"x_min":0,"x_max":0,"o":"m 357 1003 b 428 754 454 979 450 875 b 424 229 386 518 399 378 b 365 28 449 83 432 53 b 175 224 297 3 211 65 b 189 815 139 382 158 700 b 357 1003 219 932 260 1028 m 1278 1113 b 1367 919 1372 1046 1372 969 b 1222 807 1361 876 1303 813 b 1240 719 1240 778 1244 740 b 1138 653 1235 690 1186 653 b 1074 653 1126 653 1103 653 b 1076 540 1075 611 1076 572 b 1064 358 1076 450 1075 347 b 1217 260 1064 358 1181 321 b 1058 144 1254 199 1186 108 b 844 4 1058 144 1003 4 b 564 175 686 4 594 35 b 869 419 533 315 674 461 b 861 649 869 419 869 519 b 758 647 814 647 775 647 b 619 739 685 647 619 678 b 763 861 619 800 649 854 b 846 864 789 863 817 863 b 851 953 844 903 846 925 b 1046 917 872 1058 1024 1076 b 1054 858 1049 897 1051 878 b 1092 856 1067 858 1079 857 b 1046 996 1058 892 1042 940 b 1278 1113 1051 1090 1183 1179 m 871 208 b 779 267 878 246 840 289 b 774 165 718 246 733 179 b 871 208 822 150 865 176 m 1193 933 b 1246 974 1225 926 1253 940 b 1186 1000 1239 1007 1213 1013 b 1193 933 1160 986 1157 940 "},"ひ":{"ha":0,"x_min":0,"x_max":0,"o":"m 1269 829 b 1288 700 1297 796 1300 739 b 1243 649 1278 672 1263 654 b 1192 643 1228 644 1211 643 b 1081 663 1144 643 1100 656 b 900 171 1075 606 1040 318 b 613 33 813 79 718 33 b 447 67 560 33 504 44 b 211 432 300 124 211 260 b 303 735 211 589 278 699 b 228 742 286 735 257 736 b 140 863 181 751 133 793 b 294 975 147 932 207 975 b 524 968 383 975 468 975 b 603 858 576 963 606 921 b 546 735 600 824 574 781 b 504 665 532 713 517 689 b 496 325 447 554 414 407 b 599 293 513 308 550 293 b 732 349 629 293 688 300 b 871 761 800 422 846 557 b 964 893 883 854 932 878 l 969 894 b 1029 907 986 903 1006 907 b 1269 829 1125 907 1251 850 "},"び":{"ha":0,"x_min":0,"x_max":0,"o":"m 1199 868 b 1269 829 1235 853 1263 838 b 1288 700 1297 796 1300 739 b 1243 649 1278 672 1263 654 b 1192 643 1228 644 1211 643 b 1081 663 1144 643 1100 656 b 900 171 1075 606 1040 318 b 613 33 813 79 718 33 b 447 67 560 33 504 44 b 211 432 300 124 211 260 b 303 735 211 589 278 699 b 228 742 286 735 257 736 b 140 863 181 751 133 793 b 294 975 147 932 207 975 b 524 968 383 975 468 975 b 603 858 576 963 606 921 b 546 735 600 824 574 781 b 506 665 532 713 517 689 b 496 325 447 554 414 407 b 599 293 513 308 550 293 b 732 349 629 293 688 300 b 871 761 800 422 846 557 b 964 893 883 854 932 878 l 969 894 b 1029 906 986 903 1006 906 b 1039 906 1033 906 1036 906 b 1022 936 1033 915 1028 925 b 1036 1049 1001 975 996 1029 b 1149 982 1076 1068 1104 1042 b 1199 868 1188 931 1203 893 m 1304 1042 b 1303 906 1346 972 1350 929 b 1171 1003 1249 879 1210 933 b 1185 1117 1149 1042 1144 1096 b 1304 1042 1225 1136 1265 1106 "},"ぴ":{"ha":0,"x_min":0,"x_max":0,"o":"m 1278 1113 b 1367 919 1372 1046 1372 969 b 1276 819 1363 886 1328 842 b 1288 700 1297 786 1299 736 b 1243 649 1278 672 1263 654 b 1192 643 1228 644 1211 643 b 1081 663 1144 643 1100 656 b 900 171 1075 606 1040 318 b 613 33 813 79 718 33 b 447 67 560 33 504 44 b 211 432 300 124 211 260 b 303 735 211 589 278 700 b 228 742 286 735 257 736 b 140 863 181 751 133 793 b 294 975 147 932 207 975 b 524 968 383 975 468 975 b 603 858 576 963 606 921 b 546 735 600 824 574 781 b 504 665 532 713 517 689 b 496 325 447 554 414 407 b 599 293 513 308 550 293 b 732 349 629 293 688 300 b 871 761 800 422 846 557 b 964 893 883 854 932 878 l 969 894 b 1029 907 986 903 1006 907 b 1060 904 1039 907 1050 906 b 1046 996 1049 932 1043 963 b 1278 1113 1051 1090 1183 1179 m 1186 1000 b 1193 933 1160 986 1157 940 b 1246 974 1225 926 1253 940 b 1186 1000 1239 1007 1213 1013 "},"ふ":{"ha":0,"x_min":0,"x_max":0,"o":"m 899 883 b 882 767 922 842 915 799 b 804 738 863 747 835 738 b 714 765 774 738 742 747 l 694 778 b 578 861 656 804 614 831 b 551 1018 524 910 515 961 b 639 1061 569 1046 600 1061 b 744 1026 672 1061 711 1049 b 899 883 818 979 876 925 m 1199 442 b 1282 249 1222 404 1279 307 b 1221 157 1285 204 1263 171 b 1182 150 1210 153 1196 150 b 1068 213 1135 150 1092 174 b 992 368 1040 256 1011 322 b 1031 511 965 431 978 479 b 1076 524 1044 519 1060 524 b 1199 442 1119 524 1168 492 m 800 597 b 903 217 835 551 943 389 b 597 -19 867 69 753 -19 b 556 -17 585 -19 569 -18 b 372 135 411 -4 372 88 b 458 232 372 174 404 232 b 539 222 486 232 513 226 b 600 213 561 217 582 213 b 669 242 619 213 650 221 b 690 313 686 260 693 283 b 614 464 685 382 642 431 b 600 481 608 469 604 475 b 561 583 569 518 557 551 b 606 656 564 610 579 633 b 665 675 624 668 643 675 b 800 597 718 675 771 636 m 338 531 b 390 390 392 503 403 440 b 331 225 381 350 350 263 b 226 164 308 186 271 164 b 183 171 213 164 197 165 b 118 310 131 186 106 239 b 149 411 125 349 133 369 b 165 457 153 424 158 439 b 282 546 185 511 231 546 b 338 531 301 546 321 540 "},"ぶ":{"ha":0,"x_min":0,"x_max":0,"o":"m 899 883 b 882 767 922 842 915 799 b 804 738 863 747 835 738 b 714 765 774 738 742 747 l 694 778 b 578 861 656 804 614 831 b 551 1018 524 910 515 961 b 639 1061 569 1046 600 1061 b 744 1026 672 1061 711 1049 b 899 883 818 979 876 925 m 1199 442 b 1282 249 1222 404 1279 307 b 1221 157 1285 204 1263 171 b 1182 150 1210 153 1196 150 b 1068 213 1135 150 1092 174 b 992 368 1040 256 1011 322 b 1031 511 965 431 978 479 b 1076 524 1044 519 1060 524 b 1199 442 1119 524 1168 492 m 800 597 b 903 217 835 551 943 389 b 597 -19 867 69 753 -19 b 556 -17 585 -19 569 -18 b 372 135 411 -4 372 88 b 458 232 372 174 404 232 b 539 222 486 232 513 226 b 600 213 561 217 582 213 b 669 242 619 213 650 221 b 690 313 686 260 693 283 b 614 464 685 382 642 431 b 600 481 608 469 604 475 b 561 583 569 518 557 551 b 606 656 564 610 579 633 b 665 675 624 668 643 675 b 800 597 718 675 771 636 m 338 531 b 390 390 392 503 403 440 b 331 225 381 350 350 263 b 226 164 308 186 271 164 b 183 171 213 164 197 165 b 118 310 131 186 106 239 b 149 411 125 349 133 369 b 165 457 153 424 158 439 b 282 546 185 511 231 546 b 338 531 301 546 321 540 m 979 893 b 993 1006 958 932 954 985 b 1107 939 1033 1025 1063 999 b 1125 786 1169 854 1171 810 b 979 893 1081 764 1019 817 m 1128 958 b 1142 1074 1106 997 1101 1053 b 1261 999 1182 1093 1222 1063 b 1261 863 1303 929 1307 886 b 1128 958 1207 836 1168 889 "},"ぷ":{"ha":0,"x_min":0,"x_max":0,"o":"m 899 883 b 882 767 922 842 915 799 b 804 738 863 747 835 738 b 714 765 774 738 742 747 l 694 778 b 578 861 656 804 614 831 b 551 1018 524 910 515 961 b 639 1061 569 1046 600 1061 b 744 1026 672 1061 711 1049 b 899 883 818 979 876 925 m 1199 442 b 1282 249 1222 404 1279 307 b 1221 157 1285 204 1263 171 b 1182 150 1210 153 1196 150 b 1068 213 1135 150 1092 174 b 992 368 1040 256 1011 322 b 1031 511 965 431 978 479 b 1076 524 1044 519 1060 524 b 1199 442 1119 524 1168 492 m 800 597 b 903 217 835 551 943 389 b 597 -19 867 69 753 -19 b 556 -17 585 -19 569 -18 b 372 135 411 -4 372 88 b 458 232 372 174 404 232 b 539 222 486 232 513 226 b 600 213 561 217 582 213 b 669 242 619 213 650 221 b 690 313 686 260 693 283 b 614 464 685 382 642 431 b 600 481 608 469 604 475 b 561 583 569 518 557 551 b 606 656 564 610 579 633 b 665 675 624 668 643 675 b 800 597 718 675 771 636 m 338 531 b 390 390 392 503 403 440 b 331 225 381 350 350 263 b 226 164 308 186 271 164 b 183 171 213 164 197 165 b 118 310 131 186 106 239 b 149 411 125 349 133 369 b 165 457 153 424 158 439 b 282 546 185 511 231 546 b 338 531 301 546 321 540 m 1231 1076 b 1318 883 1324 1010 1324 933 b 1136 772 1313 833 1236 756 b 997 961 1042 789 992 867 b 1231 1076 1003 1054 1136 1143 m 1144 897 b 1197 938 1178 892 1204 904 b 1138 964 1192 971 1165 978 b 1144 897 1111 950 1110 904 "},"へ":{"ha":0,"x_min":0,"x_max":0,"o":"m 385 517 b 203 513 322 469 249 467 b 213 715 157 558 150 640 b 488 940 278 794 413 908 b 711 881 563 974 651 944 b 1207 267 772 817 1172 342 b 1175 104 1243 193 1221 140 b 979 158 1129 69 1042 90 b 554 656 899 246 554 656 b 385 517 568 647 414 538 "},"べ":{"ha":0,"x_min":0,"x_max":0,"o":"m 385 517 b 203 513 322 469 249 467 b 213 715 157 558 150 640 b 488 940 278 794 413 908 b 711 881 563 974 651 944 b 1207 267 772 817 1172 342 b 1175 104 1243 193 1221 140 b 979 158 1129 69 1042 90 b 554 656 899 246 554 656 b 385 517 568 647 414 538 m 918 872 b 932 985 897 913 892 965 b 1046 919 972 1006 1001 979 b 1064 767 1108 833 1110 789 b 918 872 1019 744 958 796 m 1067 939 b 1081 1053 1044 978 1040 1033 b 1200 978 1121 1074 1161 1043 b 1199 843 1242 908 1246 867 b 1067 939 1146 815 1106 869 "},"ぺ":{"ha":0,"x_min":0,"x_max":0,"o":"m 385 517 b 203 513 322 469 249 467 b 213 715 157 558 150 640 b 488 940 278 794 413 908 b 711 881 563 974 651 944 b 1207 267 772 817 1172 342 b 1175 104 1243 193 1221 140 b 979 158 1129 69 1042 90 b 554 656 899 246 554 656 b 385 517 568 647 414 538 m 1129 1061 b 1218 868 1224 994 1224 918 b 1035 757 1213 818 1135 740 b 897 946 942 774 892 851 b 1129 1061 903 1039 1035 1128 m 1044 882 b 1097 922 1078 875 1104 889 b 1038 949 1090 956 1064 961 b 1044 882 1011 935 1010 889 "},"ほ":{"ha":0,"x_min":0,"x_max":0,"o":"m 357 1003 b 428 754 454 979 450 875 b 424 229 386 518 399 378 b 365 28 449 83 432 53 b 175 224 297 3 211 65 b 189 815 139 382 158 700 b 357 1003 219 932 260 1028 m 1217 260 b 1058 144 1254 199 1186 108 b 844 4 1058 144 1003 4 b 564 175 686 4 594 35 b 869 419 533 315 674 461 b 867 544 869 419 869 469 b 735 542 808 543 757 542 b 589 633 661 542 589 572 b 739 756 589 694 625 750 b 853 757 775 758 814 758 b 847 819 851 782 849 801 b 735 818 797 818 754 818 b 589 908 661 818 589 847 b 739 1031 589 969 625 1025 b 1119 1007 875 1038 1058 1025 b 1186 890 1181 988 1193 921 b 1083 824 1181 860 1132 824 b 1064 824 1078 824 1071 824 b 1074 742 1068 796 1071 768 b 1119 732 1092 738 1108 735 b 1186 615 1181 713 1193 646 b 1083 549 1181 585 1132 549 b 1076 549 1081 549 1079 549 b 1076 540 1076 546 1076 543 b 1064 358 1076 450 1075 347 b 1217 260 1064 358 1181 321 m 871 208 b 779 267 878 246 840 289 b 774 165 718 246 733 179 b 871 208 822 150 865 176 "},"ぼ":{"ha":0,"x_min":0,"x_max":0,"o":"m 357 1003 b 428 754 454 979 450 875 b 424 229 386 518 399 378 b 365 28 449 83 432 53 b 175 224 297 3 211 65 b 189 815 139 382 158 700 b 357 1003 219 932 260 1028 m 1083 824 b 1064 824 1078 824 1071 824 b 1074 742 1068 796 1071 768 b 1119 732 1092 738 1108 735 b 1186 615 1181 713 1193 646 b 1083 549 1181 585 1132 549 b 1076 549 1082 549 1079 549 b 1076 540 1076 546 1076 543 b 1064 358 1076 450 1075 347 b 1217 260 1064 358 1181 321 b 1058 144 1254 199 1186 108 b 844 4 1058 144 1004 4 b 564 175 686 4 594 35 b 869 419 533 315 674 461 b 867 544 869 419 869 469 b 735 542 808 543 757 542 b 589 633 661 542 589 572 b 739 756 589 694 625 750 b 854 757 775 758 814 758 b 847 819 851 782 850 801 b 735 818 797 818 754 818 b 589 908 661 818 589 847 b 739 1031 589 969 625 1025 b 1042 1021 836 1036 957 1031 b 1064 1044 1046 1031 1053 1039 b 1178 979 1104 1065 1133 1039 b 1196 826 1242 893 1243 850 b 1132 835 1176 817 1154 821 b 1083 824 1117 828 1100 824 m 871 208 b 779 267 878 246 840 289 b 774 165 718 246 733 179 b 871 208 822 150 865 176 m 1332 1038 b 1332 903 1374 968 1379 926 b 1199 999 1278 875 1239 929 b 1214 1113 1176 1038 1174 1093 b 1332 1038 1254 1133 1293 1103 "},"ぽ":{"ha":0,"x_min":0,"x_max":0,"o":"m 357 1003 b 428 754 454 979 450 875 b 424 229 386 518 399 378 b 365 28 449 83 432 53 b 175 224 297 3 211 65 b 189 815 139 382 158 700 b 357 1003 219 932 260 1028 m 1286 1113 b 1375 919 1381 1046 1381 969 b 1193 808 1369 869 1292 792 b 1128 833 1168 813 1146 821 b 1083 824 1114 828 1099 824 b 1064 824 1078 824 1071 824 b 1074 742 1068 796 1071 768 b 1119 732 1092 738 1108 735 b 1186 615 1181 713 1193 646 b 1083 549 1181 585 1132 549 b 1076 549 1081 549 1079 549 b 1076 540 1076 546 1076 543 b 1064 358 1076 450 1075 347 b 1217 260 1064 358 1181 321 b 1058 144 1254 199 1186 108 b 844 4 1058 144 1004 4 b 564 175 686 4 594 35 b 869 419 533 315 674 461 b 867 544 869 419 869 469 b 735 542 808 543 757 542 b 589 633 661 542 589 572 b 739 756 589 694 625 750 b 853 757 775 758 814 758 b 847 819 851 782 850 801 b 735 818 797 818 754 818 b 589 908 661 818 589 847 b 739 1031 589 969 625 1025 b 1058 1018 843 1036 975 1031 b 1286 1113 1081 1103 1200 1174 m 871 208 b 779 267 878 246 840 289 b 774 165 718 246 733 179 b 871 208 822 150 865 176 m 1201 933 b 1254 974 1235 926 1261 940 b 1194 1000 1247 1007 1221 1013 b 1176 957 1179 992 1172 972 b 1181 949 1178 954 1179 951 b 1201 933 1185 942 1190 936 "},"ま":{"ha":0,"x_min":0,"x_max":0,"o":"m 1058 311 b 1083 169 1106 268 1107 200 b 975 126 1058 138 1021 121 b 839 156 929 131 846 139 b 688 -8 839 156 819 33 b 313 126 531 -57 364 -6 b 381 379 269 242 311 322 b 643 443 450 436 572 444 b 642 482 643 443 643 458 b 494 483 575 482 518 482 b 338 593 407 490 335 519 b 492 703 340 667 410 701 b 636 708 519 703 574 706 b 636 757 636 724 636 740 b 514 754 581 756 535 756 b 376 853 436 753 378 783 b 517 963 375 922 433 965 b 626 961 539 963 579 961 b 642 1061 625 994 628 1033 b 839 1040 671 1122 815 1150 b 849 963 843 1018 846 992 b 954 964 897 964 936 964 b 1058 878 1013 965 1056 929 b 963 764 1063 808 1031 771 b 847 760 942 763 899 761 b 844 714 846 744 846 729 b 981 711 907 715 960 715 b 1097 601 1046 701 1100 658 b 965 493 1093 546 1042 500 b 843 486 943 490 897 489 b 849 396 846 436 865 375 b 1058 311 849 396 1011 353 m 557 163 b 618 232 614 171 626 207 b 528 231 611 257 553 256 b 557 163 503 206 519 158 "},"み":{"ha":0,"x_min":0,"x_max":0,"o":"m 471 714 b 478 799 488 746 478 799 b 294 872 490 788 310 786 b 438 1021 275 968 353 1021 b 692 935 578 1022 653 997 b 706 735 740 856 706 735 l 915 707 b 1022 913 915 707 910 915 b 1118 661 1157 910 1118 661 b 1251 511 1133 660 1263 621 b 1089 421 1240 401 1089 421 b 1067 282 1099 400 1085 354 b 900 25 1035 156 997 85 b 771 138 832 -17 744 44 b 856 286 782 175 843 240 b 900 474 883 385 900 474 l 714 497 b 625 239 714 497 697 340 b 347 151 560 150 467 124 b 168 508 229 179 115 322 b 471 714 222 694 435 704 m 486 460 b 394 481 486 503 417 514 b 421 388 374 449 383 393 b 486 460 469 382 486 415 "},"む":{"ha":0,"x_min":0,"x_max":0,"o":"m 1058 333 b 1122 311 1083 333 1106 325 b 1142 164 1164 276 1167 206 b 878 11 1096 90 996 32 b 756 -1 835 3 794 -1 b 531 65 664 -1 589 21 b 406 271 458 119 425 161 b 261 294 382 269 317 267 b 144 496 199 325 131 397 b 281 665 157 590 224 650 b 339 674 299 671 318 674 b 381 669 357 674 371 672 b 381 701 381 678 381 689 b 307 706 344 703 319 704 b 190 811 226 717 192 749 b 300 913 189 876 246 906 b 382 915 317 914 346 915 b 382 963 382 935 382 951 b 496 1076 386 1032 436 1083 b 606 965 554 1069 601 1021 b 606 910 606 957 606 936 b 688 896 642 907 674 903 b 747 796 738 871 754 828 b 631 706 740 756 704 707 b 603 704 624 704 614 704 b 604 499 601 621 601 538 l 604 479 b 768 217 610 382 618 233 b 976 299 890 203 964 283 b 1058 333 994 319 1025 333 m 313 482 b 364 442 313 456 338 436 b 381 492 389 446 381 471 b 361 519 381 513 379 519 b 313 482 343 519 313 507 m 1285 619 b 1253 521 1299 581 1286 546 b 1201 506 1239 511 1221 506 b 1110 544 1168 506 1136 519 b 1031 635 1082 568 1054 604 b 1007 664 1022 646 1014 656 b 1006 801 967 713 967 758 b 1163 783 1043 842 1107 833 b 1285 619 1208 742 1268 667 "},"め":{"ha":0,"x_min":0,"x_max":0,"o":"m 1200 524 b 1143 82 1244 308 1207 175 b 957 151 1097 14 943 8 b 1014 408 964 219 1035 275 b 938 571 1003 486 971 536 b 935 561 936 567 936 564 b 722 179 911 454 842 289 b 688 65 729 126 722 86 b 561 83 629 32 589 49 b 500 69 542 78 521 72 b 154 383 239 33 175 231 b 344 763 132 536 247 719 b 375 776 354 767 364 771 b 368 811 372 790 369 803 b 457 997 347 928 390 990 b 585 851 538 1007 568 947 b 604 856 592 853 599 854 b 732 861 685 867 754 839 b 757 964 732 861 736 921 b 947 951 794 1038 911 1039 b 972 815 964 908 972 864 b 1200 524 1042 772 1167 678 m 704 617 b 625 624 701 639 667 635 b 660 456 635 569 647 511 b 704 617 692 517 708 592 m 406 297 b 482 300 425 285 453 288 b 424 546 463 376 442 464 b 365 453 394 524 372 493 b 406 297 357 407 357 328 "},"も":{"ha":0,"x_min":0,"x_max":0,"o":"m 1092 211 b 986 18 1124 133 1075 65 b 496 108 897 -29 636 -68 b 406 361 439 179 415 269 b 339 360 376 360 353 360 b 189 465 253 360 200 383 b 350 592 178 547 258 597 b 401 590 364 590 382 590 b 406 654 403 611 404 632 b 326 657 369 654 340 656 b 211 756 275 661 217 688 b 338 865 206 824 285 865 b 433 864 351 865 388 865 b 457 961 440 904 449 938 b 624 1061 489 1053 554 1088 b 692 893 692 1035 707 967 b 685 863 689 885 688 874 b 783 860 732 863 768 861 b 878 750 836 854 883 807 b 756 660 874 703 824 660 b 651 658 736 660 697 660 b 646 594 649 638 647 617 b 776 597 704 596 754 597 b 892 493 842 597 897 553 b 779 374 886 433 854 379 b 646 368 753 372 703 369 b 728 228 656 289 681 250 b 946 250 801 193 901 232 b 1092 211 989 269 1063 278 "},"ゃ":{"ha":0,"x_min":0,"x_max":0,"o":"m 1038 569 b 1071 393 1092 508 1083 424 b 986 335 1057 357 1019 331 b 917 411 954 339 919 368 b 917 435 917 421 917 429 b 903 468 917 449 917 449 b 871 486 894 478 883 483 b 869 436 869 464 869 446 b 799 353 865 385 842 356 l 796 353 b 721 428 765 353 728 379 b 718 443 719 432 719 438 b 657 414 700 435 679 425 b 688 342 667 392 676 368 b 736 236 706 301 721 267 b 785 124 756 192 772 156 b 761 0 806 63 799 24 b 719 -12 749 -8 733 -12 b 636 39 689 -12 658 6 b 551 219 601 90 576 157 b 517 304 540 250 529 279 b 503 338 513 317 507 326 b 432 304 467 319 440 307 b 397 297 419 300 408 297 b 313 350 364 297 335 315 b 304 414 301 369 297 392 b 361 475 310 432 324 457 b 401 494 372 481 386 488 b 432 510 411 500 422 504 b 418 551 428 524 422 538 b 468 686 396 621 413 665 b 585 604 514 703 557 672 b 593 583 588 599 590 590 b 704 622 631 597 668 611 b 704 632 704 626 704 629 b 774 731 707 690 732 725 b 861 669 822 738 854 703 b 865 647 863 664 864 656 b 1038 569 940 647 990 625 "},"や":{"ha":0,"x_min":0,"x_max":0,"o":"m 1204 831 b 1253 575 1278 744 1271 624 b 1136 494 1233 528 1182 489 b 1042 599 1094 500 1044 539 b 1018 690 1038 660 1049 649 b 951 722 1001 710 979 721 b 949 636 951 685 950 653 b 854 522 946 579 922 526 b 747 626 810 521 757 558 b 743 663 746 635 744 647 b 631 608 708 647 669 628 b 679 492 644 572 661 533 b 824 165 746 338 794 244 b 792 -8 854 78 843 24 b 619 49 742 -40 672 -29 b 443 444 543 161 497 322 b 417 501 433 464 425 483 b 303 447 360 474 315 451 b 136 514 214 418 163 471 b 204 685 103 567 118 643 b 319 742 235 700 275 719 b 296 811 311 765 303 789 b 363 1000 261 917 292 974 b 524 885 432 1025 489 971 b 540 843 529 872 535 857 b 724 907 601 868 664 890 b 724 929 724 915 724 924 b 819 1067 726 1004 756 1058 b 938 983 882 1076 926 1032 b 943 942 940 972 942 958 b 1204 831 1068 943 1140 904 "},"ゅ":{"ha":0,"x_min":0,"x_max":0,"o":"m 951 581 b 1039 256 1046 500 1079 372 b 794 78 1001 149 910 82 b 782 78 790 78 786 78 b 768 25 778 56 772 38 b 699 -25 756 -6 729 -25 b 681 -22 693 -25 686 -25 b 619 65 636 -8 614 22 l 624 97 b 624 103 624 99 624 101 b 576 128 604 111 588 119 b 543 186 558 143 546 164 b 561 244 542 207 547 228 b 642 274 581 269 607 279 b 647 346 644 297 646 322 b 649 483 649 390 650 439 b 607 463 633 478 618 471 b 501 317 557 425 515 367 b 496 293 500 310 497 301 l 496 290 l 488 290 l 494 289 b 431 172 483 240 472 194 b 393 163 419 165 407 163 b 313 239 357 163 315 186 b 310 525 311 267 310 501 b 390 618 310 589 351 618 l 394 618 b 468 550 433 615 464 588 b 585 625 494 575 533 604 b 642 643 601 633 621 639 b 661 714 639 679 650 701 b 719 738 676 731 701 738 b 800 644 767 738 790 710 b 951 581 861 635 915 613 m 806 340 b 800 250 804 322 803 289 b 815 253 806 250 811 251 b 897 376 861 264 910 304 b 808 489 883 454 835 481 b 806 340 808 439 807 389 "},"ゆ":{"ha":0,"x_min":0,"x_max":0,"o":"m 1068 839 b 1193 374 1203 722 1251 540 b 844 119 1139 221 1008 125 b 817 118 835 119 826 118 b 796 35 811 85 804 56 b 706 -33 779 -6 744 -33 b 682 -29 697 -33 689 -32 b 599 90 624 -11 592 28 b 604 136 600 103 601 118 b 606 153 604 142 606 147 b 532 190 574 164 547 178 b 488 268 506 211 490 239 b 510 347 483 296 492 325 b 631 383 539 383 578 396 b 638 501 633 422 636 463 b 642 718 642 572 642 649 b 564 681 611 708 585 696 b 406 463 489 625 425 536 b 396 424 403 450 399 436 l 396 421 b 307 256 379 351 364 288 b 256 243 292 247 274 243 b 149 344 207 243 153 275 b 144 765 146 385 144 729 b 257 890 144 856 203 893 b 357 789 314 888 357 843 l 357 778 b 540 903 392 814 456 867 b 632 929 567 914 599 922 b 632 931 632 929 632 929 b 657 1035 625 986 642 1018 b 735 1067 675 1054 708 1067 b 843 931 800 1067 831 1028 b 1068 839 936 918 1015 886 m 878 356 b 1006 549 949 374 1025 436 b 860 722 983 676 896 713 b 856 724 858 724 857 724 b 850 494 856 647 853 569 b 842 349 850 472 847 415 b 878 356 854 350 867 353 "},"ょ":{"ha":0,"x_min":0,"x_max":0,"o":"m 911 411 b 839 410 892 411 865 410 b 797 408 825 408 810 408 b 799 313 797 363 797 325 b 940 226 819 304 911 268 b 949 122 975 178 961 150 l 947 119 b 882 89 938 100 914 89 b 839 96 868 89 853 92 b 763 115 811 107 776 113 b 606 -18 754 90 717 0 b 553 -22 588 -21 569 -22 b 360 124 450 -22 381 31 b 465 317 335 239 435 301 b 617 336 510 340 592 338 b 608 624 615 378 607 572 b 696 731 611 688 649 733 b 793 626 742 729 792 692 b 794 578 793 617 793 599 b 932 574 846 578 907 576 b 1008 483 972 569 1013 532 b 911 411 1004 443 961 411 m 601 161 b 603 174 604 165 604 169 b 576 194 600 182 586 190 b 564 196 572 196 568 196 b 519 175 547 196 525 189 b 518 153 515 167 514 160 b 547 135 521 144 532 139 b 561 133 553 135 557 133 b 601 161 578 133 592 143 "}}}
